<svg width="672" height="122" viewBox="0 0 672 122" fill="none" xmlns="http://www.w3.org/2000/svg">
<path d="M353.616 55.8174L342.106 83.6685H332.034L320.575 55.8174L330.595 55.8174L337.276 72.1568L344.315 55.8174L353.616 55.8174Z" fill="white"/>
<path d="M415.377 55.8174L403.867 83.6685H393.795L382.336 55.8174L392.356 55.8174L399.037 72.1568L406.076 55.8174L415.377 55.8174Z" fill="white"/>
<path d="M289.659 83.6647L301.17 55.8137L311.241 55.8137L322.7 83.6647L312.68 83.6647L306 67.3253L298.96 83.6647L289.659 83.6647Z" fill="white"/>
<path d="M351.421 83.6647L362.932 55.8137L373.003 55.8137L384.462 83.6647L374.442 83.6647L367.762 67.3253L360.722 83.6647L351.421 83.6647Z" fill="white"/>
<path d="M65.8776 41.4702L42.928 97H22.8471L0 41.4702H19.9784L33.2974 74.048L47.3335 41.4702H65.8776Z" fill="white"/>
<path d="M70.9098 41.4702H90.376V97H70.9098V41.4702ZM80.6429 35.323C77.0912 35.323 74.2225 34.3327 72.0368 32.3519C69.8511 30.3711 68.7583 27.9122 68.7583 24.9752C68.7583 22.0382 69.8511 19.5794 72.0368 17.5986C74.2225 15.6178 77.0912 14.6274 80.6429 14.6274C84.1946 14.6274 87.0633 15.5837 89.249 17.4961C91.4346 19.3403 92.5275 21.7309 92.5275 24.6679C92.5275 27.7415 91.4346 30.3028 89.249 32.3519C87.0633 34.3327 84.1946 35.323 80.6429 35.323Z" fill="white"/>
<path d="M175.359 40.5482C182.189 40.5482 187.619 42.5972 191.649 46.6954C195.747 50.7935 197.796 56.9749 197.796 65.2394V97H178.33V68.4155C178.33 64.5223 177.579 61.6536 176.076 59.8094C174.642 57.9653 172.592 57.0432 169.929 57.0432C166.992 57.0432 164.635 58.0677 162.859 60.1168C161.084 62.1658 160.196 65.2736 160.196 69.44V97H140.729V68.4155C140.729 60.8339 137.929 57.0432 132.328 57.0432C129.323 57.0432 126.932 58.0677 125.157 60.1168C123.381 62.1658 122.493 65.2736 122.493 69.44V97H103.027V41.4702H121.571V47.3101C123.62 45.0561 126.044 43.3827 128.845 42.2899C131.714 41.1287 134.821 40.5482 138.168 40.5482C142.061 40.5482 145.545 41.2653 148.618 42.6997C151.692 44.134 154.185 46.3197 156.097 49.2567C158.283 46.4563 161.049 44.3048 164.396 42.8021C167.743 41.2995 171.397 40.5482 175.359 40.5482Z" fill="white"/>
<path d="M265.659 68.4155C265.659 68.5521 265.557 70.1572 265.352 73.2308H224.985C225.805 76.0995 227.376 78.3193 229.698 79.8903C232.089 81.3929 235.06 82.1443 238.611 82.1443C241.275 82.1443 243.563 81.7686 245.476 81.0173C247.457 80.2659 249.437 79.0365 251.418 77.3289L261.663 87.9841C256.268 93.9947 248.379 97 237.997 97C231.508 97 225.805 95.7706 220.887 93.3117C215.969 90.8528 212.144 87.4377 209.412 83.0663C206.748 78.695 205.417 73.7431 205.417 68.2106C205.417 62.7464 206.714 57.8628 209.31 53.5597C211.974 49.1884 215.628 45.7733 220.272 43.3144C224.917 40.8555 230.142 39.6261 235.948 39.6261C241.48 39.6261 246.5 40.7872 251.008 43.1095C255.516 45.3635 259.068 48.6761 261.663 53.0475C264.327 57.3505 265.659 62.4732 265.659 68.4155ZM236.05 53.4573C233.045 53.4573 230.518 54.3111 228.469 56.0186C226.488 57.7262 225.224 60.0485 224.678 62.9855H247.422C246.876 60.0485 245.578 57.7262 243.529 56.0186C241.548 54.3111 239.055 53.4573 236.05 53.4573Z" fill="white"/>
<path d="M502.477 42.8V97H484.377V91.2C482.377 93.4 479.977 95.0667 477.177 96.2C474.377 97.3333 471.41 97.9 468.277 97.9C461.277 97.9 455.677 95.8333 451.477 91.7C447.344 87.5667 445.277 81.3667 445.277 73.1V42.8H464.277V70C464.277 74.0667 465.044 77.0333 466.577 78.9C468.11 80.7667 470.344 81.7 473.277 81.7C476.277 81.7 478.71 80.6667 480.577 78.6C482.51 76.4667 483.477 73.2333 483.477 68.9V42.8H502.477ZM552.115 94.8C550.515 95.8 548.549 96.5667 546.215 97.1C543.949 97.6333 541.515 97.9 538.915 97.9C531.849 97.9 526.415 96.1667 522.615 92.7C518.815 89.2333 516.915 84.0667 516.915 77.2V59H509.015V44.8H516.915V30.7H535.915V44.8H548.315V59H535.915V77C535.915 78.9333 536.415 80.4667 537.415 81.6C538.482 82.6667 539.882 83.2 541.615 83.2C543.815 83.2 545.749 82.6333 547.415 81.5L552.115 94.8ZM559.442 42.8H578.442V97H559.442V42.8ZM568.942 36.8C565.475 36.8 562.675 35.8333 560.542 33.9C558.408 31.9667 557.342 29.5667 557.342 26.7C557.342 23.8333 558.408 21.4333 560.542 19.5C562.675 17.5667 565.475 16.6 568.942 16.6C572.408 16.6 575.208 17.5333 577.342 19.4C579.475 21.2 580.542 23.5333 580.542 26.4C580.542 29.4 579.475 31.9 577.342 33.9C575.208 35.8333 572.408 36.8 568.942 36.8ZM590.789 22.8H609.789V97H590.789V22.8ZM641.837 97.9C637.304 97.9 632.837 97.4 628.437 96.4C624.037 95.3333 620.504 93.9667 617.837 92.3L623.537 79.3C626.004 80.8333 628.937 82.0667 632.337 83C635.737 83.8667 639.104 84.3 642.437 84.3C645.504 84.3 647.67 84 648.937 83.4C650.27 82.7333 650.937 81.8 650.937 80.6C650.937 79.4 650.137 78.5667 648.537 78.1C647.004 77.5667 644.537 77.0667 641.137 76.6C636.804 76.0667 633.104 75.3667 630.037 74.5C627.037 73.6333 624.437 72.0333 622.237 69.7C620.037 67.3667 618.937 64.1 618.937 59.9C618.937 56.4333 619.97 53.3667 622.037 50.7C624.104 47.9667 627.104 45.8333 631.037 44.3C635.037 42.7 639.804 41.9 645.337 41.9C649.27 41.9 653.17 42.3 657.037 43.1C660.904 43.9 664.137 45.0333 666.737 46.5L661.037 59.4C656.237 56.7333 651.037 55.4 645.437 55.4C642.437 55.4 640.237 55.7667 638.837 56.5C637.437 57.1667 636.737 58.0667 636.737 59.2C636.737 60.4667 637.504 61.3667 639.037 61.9C640.57 62.3667 643.104 62.8667 646.637 63.4C651.104 64.0667 654.804 64.8333 657.737 65.7C660.67 66.5667 663.204 68.1667 665.337 70.5C667.537 72.7667 668.637 75.9667 668.637 80.1C668.637 83.5 667.604 86.5667 665.537 89.3C663.47 91.9667 660.404 94.0667 656.337 95.6C652.337 97.1333 647.504 97.9 641.837 97.9Z" fill="white"/>
</svg>
