<svg width="973" height="100" viewBox="0 0 973 100" fill="none" xmlns="http://www.w3.org/2000/svg">
<path d="M890.489 68.9875C893.114 69.1071 895.715 68.4365 897.956 67.0623C900.196 65.6881 901.973 63.6735 903.057 61.2789C904.14 58.8843 904.48 56.2198 904.034 53.6297C903.587 51.0396 902.373 48.6431 900.55 46.7499C898.727 44.8568 896.378 43.5539 893.807 43.0098C891.235 42.4657 888.56 42.7054 886.126 43.6979C883.692 44.6903 881.612 46.3899 880.154 48.577C878.697 50.7641 877.929 53.3381 877.949 55.9663C877.887 59.3555 879.172 62.6308 881.524 65.0725C883.875 67.5141 887.1 68.9223 890.489 68.9875ZM870.65 36.3178C874.527 32.4028 879.473 29.7191 884.868 28.6032C890.263 27.4873 895.868 27.9888 900.979 30.0449C906.091 32.101 910.482 35.6202 913.601 40.1613C916.721 44.7024 918.431 50.0634 918.516 55.5722C918.616 59.264 917.958 62.9371 916.582 66.3643C915.206 69.7916 913.142 72.9002 910.517 75.4981C907.903 78.1788 904.77 80.2971 901.308 81.7229C897.846 83.1488 894.13 83.852 890.387 83.7895C886.634 83.8897 882.903 83.1845 879.446 81.7215C875.989 80.2585 872.885 78.0717 870.344 75.3083C865.279 70.0698 862.479 63.0484 862.549 55.762C862.536 52.1447 863.246 48.5613 864.637 45.2222C866.028 41.8832 868.073 38.8558 870.65 36.3178Z" fill="#231F20"/>
<path d="M776.218 68.9875C778.844 69.1101 781.447 68.442 783.689 67.0697C785.931 65.6974 787.71 63.6839 788.796 61.2897C789.882 58.8955 790.224 56.2306 789.779 53.6396C789.334 51.0486 788.122 48.6508 786.299 46.7561C784.477 44.8614 782.128 43.5571 779.556 43.0117C776.984 42.4663 774.308 42.705 771.874 43.6969C769.439 44.6888 767.358 46.3883 765.9 48.5756C764.441 50.763 763.673 53.3375 763.693 55.9663C763.635 59.3519 764.919 62.6228 767.267 65.0632C769.614 67.5036 772.833 68.9146 776.218 68.9875ZM756.38 36.3178C760.258 32.4048 765.205 29.7229 770.6 28.6081C775.996 27.4933 781.6 27.9951 786.712 30.0507C791.823 32.1062 796.215 35.6241 799.336 40.1639C802.458 44.7037 804.171 50.0635 804.26 55.5722C804.364 59.2619 803.71 62.9337 802.339 66.3608C800.968 69.788 798.91 72.8977 796.29 75.498C793.674 78.1799 790.538 80.2988 787.074 81.7246C783.61 83.1504 779.891 83.8531 776.145 83.7895C772.394 83.8933 768.664 83.1897 765.209 81.7264C761.753 80.2631 758.653 78.0743 756.117 75.3083C751.052 70.0698 748.252 63.0484 748.322 55.7619C748.309 52.146 749.018 48.564 750.407 45.2253C751.796 41.8867 753.836 38.8584 756.409 36.3178" fill="#231F20"/>
<path d="M586.725 82.315H602.228V8.90323L586.725 12.1293V82.315Z" fill="#231F20"/>
<path d="M578.58 29.2964H563.077V82.3006H578.58V29.2964Z" fill="#231F20"/>
<path d="M570.814 4.2468C568.931 4.2468 567.09 4.80537 565.525 5.85184C563.959 6.8983 562.739 8.38563 562.019 10.1256C561.299 11.8656 561.112 13.78 561.48 15.6267C561.849 17.4733 562.756 19.1692 564.089 20.4997C565.422 21.8302 567.119 22.7355 568.966 23.1011C570.813 23.4667 572.727 23.2761 574.466 22.5535C576.205 21.8309 577.691 20.6087 578.735 19.0416C579.779 17.4745 580.334 15.6329 580.332 13.7499C580.328 11.2282 579.323 8.81106 577.539 7.0293C575.754 5.24754 573.336 4.24679 570.814 4.2468Z" fill="#231F20"/>
<path d="M634.445 60.1997L624.475 29.2964H607.206L626.65 79.0454L619.118 99.4821H634.81L662.487 29.2964H645.7L634.445 60.1997Z" fill="#231F20"/>
<path d="M468.688 68.3452C460.689 68.3452 454.966 62.7105 454.966 55.3095C454.966 51.8251 456.351 48.4834 458.814 46.0195C461.278 43.5557 464.62 42.1715 468.104 42.1715C469.835 42.1704 471.548 42.5182 473.142 43.1943C474.735 43.8703 476.176 44.8607 477.378 46.1062C478.58 47.3517 479.518 48.8267 480.137 50.4431C480.756 52.0595 481.042 53.7841 480.979 55.5138C481.02 57.1647 480.734 58.8074 480.137 60.3473C479.541 61.8872 478.646 63.2939 477.503 64.4865C476.361 65.679 474.994 66.6339 473.481 67.2961C471.968 67.9584 470.339 68.3149 468.688 68.3452ZM491.884 55.6014C491.847 49.9241 493.275 44.3333 496.03 39.3688V8.71361L480.439 11.9397V35.077C476.878 30.5372 471.944 28.3621 465.535 28.3621C462.251 28.3391 458.995 28.973 455.959 30.2265C452.923 31.4799 450.169 33.3276 447.857 35.6609C445.11 38.3019 442.938 41.4829 441.48 45.004C440.021 48.525 439.307 52.3097 439.382 56.1201C439.458 59.9305 440.321 63.6841 441.918 67.1446C443.514 70.6052 445.81 73.6978 448.66 76.228C453.182 80.3645 459.115 82.6154 465.243 82.5196C468.162 82.6517 471.075 82.1603 473.788 81.0779C476.502 79.9955 478.953 78.3471 480.979 76.2426V82.1546H496.074V72.126C493.307 67.0606 491.88 61.3727 491.928 55.6014" fill="#231F20"/>
<path d="M745.329 40.96C744.773 38.3583 743.579 35.9354 741.855 33.9093C738.935 30.4643 734.761 28.8439 729.768 28.4206C726.01 27.9676 722.202 28.6488 718.834 30.3767C715.957 32.1545 713.335 34.3152 711.039 36.7997C709.622 34.2181 707.534 32.0672 704.995 30.5744C702.456 29.0815 699.562 28.3021 696.617 28.3184C689.318 28.3184 684.939 31.3985 681.917 36.4055V29.2965H667.83V82.3007H682.632V54.4045C682.632 48.5654 683.99 42.8285 691.829 42.8285C698.602 42.8285 699.128 48.3319 699.128 52.9155V82.3007H714.397V54.2147C714.397 45.2663 718.28 42.8285 723.652 42.8285C728.031 42.8285 730.878 44.7846 730.878 52.9155V82.3007H746.074V72.1991C743.32 67.1237 741.893 61.4343 741.928 55.6599C741.932 50.5654 743.095 45.5385 745.329 40.96Z" fill="#231F20"/>
<path d="M829.689 8.90323L813.909 12.1293V29.5736H807.194V44.9158H813.909V82.3005H829.689V44.9158H836.696V29.5736H829.689V8.90323Z" fill="#231F20"/>
<path d="M851.294 23.2675C853.177 23.2704 855.019 22.7146 856.586 21.6706C858.153 20.6265 859.375 19.1411 860.098 17.4022C860.82 15.6633 861.011 13.7492 860.645 11.902C860.28 10.0547 859.374 8.35751 858.044 7.02497C856.713 5.69244 855.017 4.7845 853.171 4.41607C851.324 4.04764 849.41 4.23528 847.67 4.95522C845.93 5.67516 844.442 6.89506 843.396 8.46055C842.349 10.026 841.791 11.8668 841.791 13.7498C841.791 16.2715 842.792 18.6902 844.573 20.4747C846.355 22.2592 848.772 23.2636 851.294 23.2675Z" fill="#231F20"/>
<path d="M859.06 42.2008V29.2964H843.557V82.3007H859.06V69.659C857.135 65.2788 856.141 60.5465 856.14 55.762C856.163 51.0881 857.157 46.47 859.06 42.2008Z" fill="#231F20"/>
<path d="M954.135 28.3184C947.128 28.3184 942.194 31.0773 938.924 36.4055L939.128 29.2964H924.326V82.3007H939.625V53.587C939.625 46.4779 942.88 42.8285 948.996 42.8285C955.113 42.8285 956.602 46.1859 956.602 53.587V82.3007H972.192V47.3684C972.192 35.2231 965.083 28.3914 954.135 28.3914" fill="#231F20"/>
<path d="M527.561 68.4911C529.216 68.4665 530.849 68.1142 532.367 67.4545C533.885 66.7948 535.257 65.8408 536.404 64.6476C537.551 63.4545 538.45 62.0459 539.05 60.5031C539.649 58.9604 539.937 57.3142 539.896 55.6597C539.957 53.9263 539.667 52.1984 539.044 50.5798C538.42 48.9612 537.476 47.4852 536.268 46.2405C535.06 44.9958 533.613 44.0079 532.014 43.3363C530.415 42.6646 528.697 42.323 526.962 42.332C523.478 42.332 520.136 43.7161 517.672 46.18C515.209 48.6438 513.824 51.9855 513.824 55.4699C513.839 62.8563 519.561 68.4911 527.561 68.4911ZM539.794 76.3884C537.768 78.4775 535.321 80.1122 532.616 81.1843C529.91 82.2564 527.008 82.7413 524.101 82.607C517.984 82.7168 512.055 80.4933 507.518 76.3884C504.671 73.856 502.378 70.7622 500.784 67.3012C499.19 63.8403 498.329 60.087 498.255 56.2772C498.181 52.4675 498.895 48.6836 500.354 45.1633C501.812 41.6431 503.983 38.4625 506.73 35.8214C509.038 33.4878 511.79 31.6398 514.824 30.3863C517.857 29.1328 521.111 28.4991 524.393 28.5225C530.816 28.5225 535.75 30.6976 539.297 35.2375V29.3984H554.902V82.3881H539.794V76.3884Z" fill="#231F20"/>
<path d="M353.616 42.1955L342.106 70.0465H332.034L320.575 42.1955L330.595 42.1955L337.275 58.5349L344.315 42.1955L353.616 42.1955Z" fill="#231F20"/>
<path d="M415.377 42.1955L403.867 70.0465H393.795L382.336 42.1955L392.356 42.1955L399.036 58.5349L406.076 42.1955L415.377 42.1955Z" fill="#231F20"/>
<path d="M289.659 70.0428L301.17 42.1918L311.241 42.1918L322.7 70.0428L312.68 70.0428L306 53.7034L298.96 70.0428L289.659 70.0428Z" fill="#231F20"/>
<path d="M351.421 70.0428L362.932 42.1918L373.003 42.1918L384.462 70.0428L374.442 70.0428L367.762 53.7034L360.722 70.0428L351.421 70.0428Z" fill="#231F20"/>
<path d="M65.8776 27.6396L42.928 83.1694H22.8471L0 27.6396H19.9784L33.2974 60.2173L47.3335 27.6396H65.8776Z" fill="#231F20"/>
<path d="M70.9098 27.6396H90.376V83.1694H70.9098V27.6396ZM80.6429 21.4924C77.0912 21.4924 74.2225 20.502 72.0368 18.5212C69.8511 16.5405 68.7583 14.0816 68.7583 11.1446C68.7583 8.20758 69.8511 5.7487 72.0368 3.76793C74.2225 1.78717 77.0912 0.796783 80.6429 0.796783C84.1946 0.796783 87.0633 1.75302 89.249 3.66548C91.4346 5.50964 92.5275 7.90022 92.5275 10.8372C92.5275 13.9108 91.4346 16.4722 89.249 18.5212C87.0633 20.502 84.1946 21.4924 80.6429 21.4924Z" fill="#231F20"/>
<path d="M175.359 26.7175C182.189 26.7175 187.619 28.7666 191.649 32.8647C195.747 36.9628 197.796 43.1442 197.796 51.4088V83.1694H178.33V54.5848C178.33 50.6916 177.579 47.8229 176.076 45.9788C174.642 44.1346 172.592 43.2125 169.929 43.2125C166.992 43.2125 164.635 44.237 162.859 46.2861C161.084 48.3352 160.196 51.4429 160.196 55.6094V83.1694H140.729V54.5848C140.729 47.0033 137.929 43.2125 132.328 43.2125C129.323 43.2125 126.932 44.237 125.157 46.2861C123.381 48.3352 122.493 51.4429 122.493 55.6094V83.1694H103.027V27.6396H121.571V33.4794C123.62 31.2255 126.044 29.5521 128.845 28.4592C131.714 27.2981 134.821 26.7175 138.168 26.7175C142.061 26.7175 145.545 27.4347 148.618 28.869C151.692 30.3034 154.185 32.489 156.097 35.426C158.283 32.6257 161.049 30.4741 164.396 28.9715C167.743 27.4688 171.397 26.7175 175.359 26.7175Z" fill="#231F20"/>
<path d="M265.659 54.5848C265.659 54.7214 265.557 56.3266 265.352 59.4002H224.985C225.805 62.2689 227.376 64.4887 229.698 66.0596C232.089 67.5623 235.06 68.3136 238.611 68.3136C241.275 68.3136 243.563 67.9379 245.476 67.1866C247.457 66.4353 249.437 65.2058 251.418 63.4983L261.663 74.1535C256.268 80.1641 248.379 83.1694 237.997 83.1694C231.508 83.1694 225.805 81.9399 220.887 79.481C215.969 77.0221 212.144 73.607 209.412 69.2357C206.748 64.8643 205.417 59.9124 205.417 54.3799C205.417 48.9157 206.714 44.0321 209.31 39.7291C211.974 35.3577 215.628 31.9426 220.272 29.4837C224.917 27.0249 230.142 25.7954 235.948 25.7954C241.48 25.7954 246.5 26.9566 251.008 29.2788C255.516 31.5328 259.068 34.8455 261.663 39.2168C264.327 43.5199 265.659 48.6425 265.659 54.5848ZM236.05 39.6266C233.045 39.6266 230.518 40.4804 228.469 42.188C226.488 43.8955 225.224 46.2178 224.678 49.1548H247.422C246.876 46.2178 245.578 43.8955 243.529 42.188C241.548 40.4804 239.055 39.6266 236.05 39.6266Z" fill="#231F20"/>
</svg>
