<svg width="830" height="89" viewBox="0 0 830 89" fill="none" xmlns="http://www.w3.org/2000/svg">
<path d="M561.173 14.6239C559.739 9.29729 555.539 5.09743 550.212 3.66333C540.481 1 501.556 1 501.556 1C501.556 1 462.63 1 452.899 3.56089C447.674 4.99499 443.372 9.29729 441.938 14.6239C439.377 24.3553 439.377 44.5351 439.377 44.5351C439.377 44.5351 439.377 64.8174 441.938 74.4464C443.372 79.773 447.572 83.9729 452.899 85.407C462.732 88.0703 501.556 88.0703 501.556 88.0703C501.556 88.0703 540.481 88.0703 550.212 85.5094C555.539 84.0753 559.739 79.8754 561.173 74.5488C563.734 64.8174 563.734 44.6376 563.734 44.6376C563.734 44.6376 563.836 24.3553 561.173 14.6239Z" fill="#231F20"/>
<path d="M489.161 63.1786L521.53 44.5353L489.161 25.892V63.1786Z" fill="white"/>
<path d="M619.971 80.2853C617.513 78.6464 615.771 76.0855 614.747 72.5002C613.723 69.0174 613.21 64.3054 613.21 58.569V50.6814C613.21 44.8426 613.825 40.1306 614.952 36.5453C616.181 32.9601 618.025 30.3992 620.483 28.7602C623.044 27.1212 626.322 26.3018 630.42 26.3018C634.415 26.3018 637.692 27.1212 640.151 28.7602C642.609 30.3992 644.351 33.0625 645.478 36.5453C646.604 40.0281 647.219 44.7402 647.219 50.6814V58.569C647.219 64.4078 646.707 69.0174 645.58 72.6027C644.453 76.0855 642.712 78.7488 640.253 80.3878C637.795 82.0267 634.415 82.8462 630.215 82.8462C625.912 82.7438 622.43 81.9243 619.971 80.2853ZM633.8 71.6807C634.517 69.9393 634.824 66.9687 634.824 62.9737V45.9694C634.824 42.0768 634.517 39.2086 633.8 37.3648C633.083 35.521 631.956 34.7015 630.215 34.7015C628.576 34.7015 627.346 35.6234 626.732 37.3648C626.015 39.2086 625.707 42.0768 625.707 45.9694V62.9737C625.707 66.9687 626.015 69.9393 626.732 71.6807C627.346 73.4222 628.576 74.3441 630.317 74.3441C631.956 74.3441 633.083 73.5246 633.8 71.6807Z" fill="#231F20"/>
<path d="M809.067 58.6713V61.4371C809.067 64.9199 809.17 67.5832 809.375 69.3246C809.579 71.066 809.989 72.3977 810.706 73.1148C811.321 73.9342 812.345 74.344 813.779 74.344C815.623 74.344 816.852 73.6269 817.569 72.1928C818.286 70.7587 818.594 68.4027 818.696 65.0223L829.247 65.637C829.35 66.1491 829.35 66.7637 829.35 67.5832C829.35 72.6026 828.018 76.3927 825.252 78.8512C822.486 81.3096 818.594 82.5388 813.574 82.5388C807.531 82.5388 803.331 80.5926 800.872 76.8024C798.414 73.0123 797.185 67.1735 797.185 59.1835V49.657C797.185 41.4621 798.414 35.5209 800.975 31.7308C803.536 27.9406 807.838 26.0968 813.882 26.0968C818.082 26.0968 821.36 26.9163 823.613 28.4528C825.867 29.9894 827.403 32.4478 828.325 35.6233C829.247 38.9013 829.657 43.4084 829.657 49.1448V58.4665H809.067V58.6713ZM810.604 35.7258C809.989 36.5452 809.579 37.7745 809.375 39.5159C809.17 41.2573 809.067 43.9206 809.067 47.5059V51.3984H818.082V47.5059C818.082 44.023 817.979 41.3597 817.774 39.5159C817.569 37.672 817.057 36.4428 816.443 35.7258C815.828 35.0087 814.804 34.599 813.574 34.599C812.14 34.4965 811.218 34.9063 810.604 35.7258Z" fill="#231F20"/>
<path d="M590.06 57.647L576.129 7.14621H588.318L593.235 29.9894C594.465 35.6233 595.387 40.4378 596.001 44.4328H596.308C596.718 41.5646 597.64 36.8525 599.074 30.0918L604.196 7.14621H616.386L602.25 57.647V81.8218H590.162V57.647H590.06Z" fill="#231F20"/>
<path d="M686.862 27.326V81.9242H677.233L676.208 75.2659H675.901C673.34 80.2852 669.345 82.8461 664.121 82.8461C660.536 82.8461 657.872 81.6169 656.131 79.2609C654.389 76.9049 653.57 73.2172 653.57 68.0954V27.326H665.862V67.3784C665.862 69.8368 666.17 71.5782 666.682 72.6026C667.194 73.6269 668.116 74.1391 669.345 74.1391C670.369 74.1391 671.394 73.8318 672.418 73.1147C673.442 72.5001 674.16 71.6806 674.569 70.6563V27.326H686.862Z" fill="#231F20"/>
<path d="M749.859 27.326V81.9242H740.231L739.206 75.2659H738.899C736.338 80.2852 732.343 82.8461 727.119 82.8461C723.533 82.8461 720.87 81.6169 719.129 79.2609C717.387 76.9049 716.568 73.2172 716.568 68.0954V27.326H728.86V67.3784C728.86 69.8368 729.167 71.5782 729.68 72.6026C730.192 73.6269 731.114 74.1391 732.343 74.1391C733.367 74.1391 734.392 73.8318 735.416 73.1147C736.44 72.5001 737.157 71.6806 737.567 70.6563V27.326H749.859Z" fill="#231F20"/>
<path d="M720.256 17.0825H708.066V81.8218H696.081V17.0825H683.891V7.14621H720.256V17.0825Z" fill="#231F20"/>
<path d="M790.526 36.0332C789.809 32.5504 788.58 30.0919 786.941 28.5554C785.302 27.0188 782.946 26.1993 780.078 26.1993C777.824 26.1993 775.673 26.814 773.727 28.1456C771.781 29.3749 770.244 31.1163 769.22 33.165H769.117V4.38055H757.235V81.8219H767.376L768.605 76.7001H768.913C769.834 78.544 771.269 79.9781 773.215 81.1048C775.161 82.1292 777.21 82.7438 779.566 82.7438C783.766 82.7438 786.736 80.7975 788.683 77.0074C790.629 73.2173 791.653 67.1736 791.653 59.0812V50.4766C791.551 44.228 791.243 39.4135 790.526 36.0332ZM779.259 58.2617C779.259 62.2567 779.054 65.3298 778.746 67.5833C778.439 69.8369 777.824 71.4759 777.107 72.3978C776.288 73.3197 775.264 73.8319 774.034 73.8319C773.01 73.8319 772.088 73.627 771.269 73.1149C770.449 72.6027 769.732 71.8856 769.22 70.9637V40.0282C769.63 38.5941 770.347 37.3648 771.371 36.3405C772.395 35.4186 773.522 34.9064 774.649 34.9064C775.878 34.9064 776.903 35.4186 777.517 36.3405C778.234 37.3648 778.644 39.0038 778.951 41.2574C779.259 43.6134 779.361 46.8913 779.361 51.0912V58.2617H779.259Z" fill="#231F20"/>
<path d="M353.616 41.6273L342.106 69.4783H332.034L320.575 41.6273L330.595 41.6273L337.275 57.9667L344.315 41.6273L353.616 41.6273Z" fill="#231F20"/>
<path d="M415.377 41.6273L403.867 69.4783H393.795L382.336 41.6273L392.356 41.6273L399.036 57.9667L406.076 41.6273L415.377 41.6273Z" fill="#231F20"/>
<path d="M289.659 69.4746L301.17 41.6236L311.241 41.6236L322.7 69.4746L312.68 69.4746L306 53.1352L298.96 69.4746L289.659 69.4746Z" fill="#231F20"/>
<path d="M351.421 69.4746L362.932 41.6236L373.003 41.6236L384.462 69.4746L374.442 69.4746L367.762 53.1352L360.722 69.4746L351.421 69.4746Z" fill="#231F20"/>
<path d="M65.8776 27.2801L42.928 82.8099H22.8471L0 27.2801H19.9784L33.2974 59.8578L47.3335 27.2801H65.8776Z" fill="#231F20"/>
<path d="M70.9098 27.2801H90.376V82.8099H70.9098V27.2801ZM80.6429 21.1329C77.0912 21.1329 74.2225 20.1425 72.0368 18.1618C69.8511 16.181 68.7583 13.7221 68.7583 10.7851C68.7583 7.84812 69.8511 5.38923 72.0368 3.40847C74.2225 1.4277 77.0912 0.437317 80.6429 0.437317C84.1946 0.437317 87.0633 1.39355 89.249 3.30601C91.4346 5.15018 92.5275 7.54076 92.5275 10.4778C92.5275 13.5514 91.4346 16.1127 89.249 18.1618C87.0633 20.1425 84.1946 21.1329 80.6429 21.1329Z" fill="#231F20"/>
<path d="M175.359 26.358C182.189 26.358 187.619 28.4071 191.649 32.5052C195.747 36.6034 197.796 42.7847 197.796 51.0493V82.8099H178.33V54.2254C178.33 50.3321 177.579 47.4635 176.076 45.6193C174.642 43.7751 172.592 42.853 169.929 42.853C166.992 42.853 164.635 43.8776 162.859 45.9267C161.084 47.9757 160.196 51.0835 160.196 55.2499V82.8099H140.729V54.2254C140.729 46.6438 137.929 42.853 132.328 42.853C129.323 42.853 126.932 43.8776 125.157 45.9267C123.381 47.9757 122.493 51.0835 122.493 55.2499V82.8099H103.027V27.2801H121.571V33.12C123.62 30.866 126.044 29.1926 128.845 28.0997C131.714 26.9386 134.821 26.358 138.168 26.358C142.061 26.358 145.545 27.0752 148.618 28.5096C151.692 29.9439 154.185 32.1296 156.097 35.0666C158.283 32.2662 161.049 30.1147 164.396 28.612C167.743 27.1094 171.397 26.358 175.359 26.358Z" fill="#231F20"/>
<path d="M265.659 54.2254C265.659 54.362 265.557 55.9671 265.352 59.0407H224.985C225.805 61.9094 227.376 64.1292 229.698 65.7002C232.089 67.2028 235.06 67.9541 238.611 67.9541C241.275 67.9541 243.563 67.5785 245.476 66.8271C247.457 66.0758 249.437 64.8464 251.418 63.1388L261.663 73.794C256.268 79.8046 248.379 82.8099 237.997 82.8099C231.508 82.8099 225.805 81.5804 220.887 79.1216C215.969 76.6627 212.144 73.2476 209.412 68.8762C206.748 64.5049 205.417 59.5529 205.417 54.0205C205.417 48.5563 206.714 43.6727 209.31 39.3696C211.974 34.9983 215.628 31.5832 220.272 29.1243C224.917 26.6654 230.142 25.436 235.948 25.436C241.48 25.436 246.5 26.5971 251.008 28.9194C255.516 31.1733 259.068 34.486 261.663 38.8574C264.327 43.1604 265.659 48.2831 265.659 54.2254ZM236.05 39.2672C233.045 39.2672 230.518 40.1209 228.469 41.8285C226.488 43.5361 225.224 45.8583 224.678 48.7953H247.422C246.876 45.8583 245.578 43.5361 243.529 41.8285C241.548 40.1209 239.055 39.2672 236.05 39.2672Z" fill="#231F20"/>
</svg>
