<svg width="869" height="122" viewBox="0 0 869 122" fill="none" xmlns="http://www.w3.org/2000/svg">
<path d="M353.616 55.8174L342.106 83.6684H332.034L320.575 55.8174L330.595 55.8174L337.276 72.1568L344.315 55.8174L353.616 55.8174Z" fill="white"/>
<path d="M415.377 55.8174L403.867 83.6684H393.795L382.336 55.8174L392.356 55.8174L399.037 72.1568L406.076 55.8174L415.377 55.8174Z" fill="white"/>
<path d="M289.659 83.6648L301.17 55.8138L311.241 55.8138L322.7 83.6648L312.68 83.6648L306 67.3254L298.96 83.6648L289.659 83.6648Z" fill="white"/>
<path d="M351.421 83.6648L362.932 55.8138L373.003 55.8138L384.462 83.6648L374.442 83.6648L367.762 67.3254L360.722 83.6648L351.421 83.6648Z" fill="white"/>
<path d="M65.8776 41.4702L42.928 97H22.8471L0 41.4702H19.9784L33.2974 74.048L47.3335 41.4702H65.8776Z" fill="white"/>
<path d="M70.9098 41.4702H90.376V97H70.9098V41.4702ZM80.6429 35.323C77.0912 35.323 74.2225 34.3327 72.0368 32.3519C69.8511 30.3711 68.7583 27.9122 68.7583 24.9752C68.7583 22.0382 69.8511 19.5794 72.0368 17.5986C74.2225 15.6178 77.0912 14.6274 80.6429 14.6274C84.1946 14.6274 87.0633 15.5837 89.249 17.4961C91.4346 19.3403 92.5275 21.7309 92.5275 24.6679C92.5275 27.7415 91.4346 30.3028 89.249 32.3519C87.0633 34.3327 84.1946 35.323 80.6429 35.323Z" fill="white"/>
<path d="M175.359 40.5482C182.189 40.5482 187.619 42.5972 191.649 46.6954C195.747 50.7935 197.796 56.9749 197.796 65.2394V97H178.33V68.4155C178.33 64.5223 177.579 61.6536 176.076 59.8094C174.642 57.9653 172.592 57.0432 169.929 57.0432C166.992 57.0432 164.635 58.0677 162.859 60.1168C161.084 62.1658 160.196 65.2736 160.196 69.44V97H140.729V68.4155C140.729 60.8339 137.929 57.0432 132.328 57.0432C129.323 57.0432 126.932 58.0677 125.157 60.1168C123.381 62.1658 122.493 65.2736 122.493 69.44V97H103.027V41.4702H121.571V47.3101C123.62 45.0561 126.044 43.3827 128.845 42.2899C131.714 41.1287 134.821 40.5482 138.168 40.5482C142.061 40.5482 145.545 41.2653 148.618 42.6997C151.692 44.134 154.185 46.3197 156.097 49.2567C158.283 46.4563 161.049 44.3048 164.396 42.8021C167.743 41.2995 171.397 40.5482 175.359 40.5482Z" fill="white"/>
<path d="M265.659 68.4155C265.659 68.5521 265.557 70.1572 265.352 73.2308H224.985C225.805 76.0995 227.376 78.3193 229.698 79.8903C232.089 81.3929 235.06 82.1443 238.611 82.1443C241.275 82.1443 243.563 81.7686 245.476 81.0173C247.457 80.2659 249.437 79.0365 251.418 77.3289L261.663 87.9841C256.268 93.9947 248.379 97 237.997 97C231.508 97 225.805 95.7706 220.887 93.3117C215.969 90.8528 212.144 87.4377 209.412 83.0663C206.748 78.695 205.417 73.7431 205.417 68.2106C205.417 62.7464 206.714 57.8628 209.31 53.5597C211.974 49.1884 215.628 45.7733 220.272 43.3144C224.917 40.8555 230.142 39.6261 235.948 39.6261C241.48 39.6261 246.5 40.7872 251.008 43.1095C255.516 45.3635 259.068 48.6761 261.663 53.0475C264.327 57.3505 265.659 62.4732 265.659 68.4155ZM236.05 53.4573C233.045 53.4573 230.518 54.3111 228.469 56.0186C226.488 57.7262 225.224 60.0485 224.678 62.9855H247.422C246.876 60.0485 245.578 57.7262 243.529 56.0186C241.548 54.3111 239.055 53.4573 236.05 53.4573Z" fill="white"/>
<path d="M479.577 41.9C484.51 41.9 488.977 43.0667 492.977 45.4C497.044 47.6667 500.244 50.9333 502.577 55.2C504.977 59.4 506.177 64.3 506.177 69.9C506.177 75.5 504.977 80.4333 502.577 84.7C500.244 88.9 497.044 92.1667 492.977 94.5C488.977 96.7667 484.51 97.9 479.577 97.9C473.244 97.9 468.21 96 464.477 92.2V116.4H445.477V42.8H463.577V48.2C467.11 44 472.444 41.9 479.577 41.9ZM475.577 82.8C478.91 82.8 481.644 81.6667 483.777 79.4C485.91 77.0667 486.977 73.9 486.977 69.9C486.977 65.9 485.91 62.7667 483.777 60.5C481.644 58.1667 478.91 57 475.577 57C472.244 57 469.51 58.1667 467.377 60.5C465.244 62.7667 464.177 65.9 464.177 69.9C464.177 73.9 465.244 77.0667 467.377 79.4C469.51 81.6667 472.244 82.8 475.577 82.8ZM533.108 49.3C535.042 46.8333 537.542 45 540.608 43.8C543.742 42.5333 547.308 41.9 551.308 41.9V59C549.575 58.8 548.142 58.7 547.008 58.7C542.942 58.7 539.742 59.8 537.408 62C535.142 64.2 534.008 67.5667 534.008 72.1V97H515.008V42.8H533.108V49.3ZM614.061 70C614.061 70.1333 613.961 71.7 613.761 74.7H574.361C575.161 77.5 576.694 79.6667 578.961 81.2C581.294 82.6667 584.194 83.4 587.661 83.4C590.261 83.4 592.494 83.0333 594.361 82.3C596.294 81.5667 598.227 80.3667 600.161 78.7L610.161 89.1C604.894 94.9667 597.194 97.9 587.061 97.9C580.727 97.9 575.161 96.7 570.361 94.3C565.561 91.9 561.827 88.5667 559.161 84.3C556.561 80.0333 555.261 75.2 555.261 69.8C555.261 64.4667 556.527 59.7 559.061 55.5C561.661 51.2333 565.227 47.9 569.761 45.5C574.294 43.1 579.394 41.9 585.061 41.9C590.461 41.9 595.361 43.0333 599.761 45.3C604.161 47.5 607.627 50.7333 610.161 55C612.761 59.2 614.061 64.2 614.061 70ZM585.161 55.4C582.227 55.4 579.761 56.2333 577.761 57.9C575.827 59.5667 574.594 61.8333 574.061 64.7H596.261C595.727 61.8333 594.461 59.5667 592.461 57.9C590.527 56.2333 588.094 55.4 585.161 55.4ZM678.944 42.8L656.544 97H636.944L614.644 42.8H634.144L647.144 75.9L660.844 42.8H678.944ZM683.856 42.8H702.856V97H683.856V42.8ZM693.356 36.8C689.889 36.8 687.089 35.8333 684.956 33.9C682.823 31.9667 681.756 29.5667 681.756 26.7C681.756 23.8333 682.823 21.4333 684.956 19.5C687.089 17.5667 689.889 16.6 693.356 16.6C696.823 16.6 699.623 17.5333 701.756 19.4C703.889 21.2 704.956 23.5333 704.956 26.4C704.956 29.4 703.889 31.9 701.756 33.9C699.623 35.8333 696.823 36.8 693.356 36.8ZM770.604 70C770.604 70.1333 770.504 71.7 770.304 74.7H730.904C731.704 77.5 733.237 79.6667 735.504 81.2C737.837 82.6667 740.737 83.4 744.204 83.4C746.804 83.4 749.037 83.0333 750.904 82.3C752.837 81.5667 754.77 80.3667 756.704 78.7L766.704 89.1C761.437 94.9667 753.737 97.9 743.604 97.9C737.27 97.9 731.704 96.7 726.904 94.3C722.104 91.9 718.37 88.5667 715.704 84.3C713.104 80.0333 711.804 75.2 711.804 69.8C711.804 64.4667 713.07 59.7 715.604 55.5C718.204 51.2333 721.77 47.9 726.304 45.5C730.837 43.1 735.937 41.9 741.604 41.9C747.004 41.9 751.904 43.0333 756.304 45.3C760.704 47.5 764.17 50.7333 766.704 55C769.304 59.2 770.604 64.2 770.604 70ZM741.704 55.4C738.77 55.4 736.304 56.2333 734.304 57.9C732.37 59.5667 731.137 61.8333 730.604 64.7H752.804C752.27 61.8333 751.004 59.5667 749.004 57.9C747.07 56.2333 744.637 55.4 741.704 55.4ZM868.187 42.8L848.887 97H830.487L820.287 67.5L809.687 97H791.287L771.987 42.8H789.987L801.087 75.6L812.587 42.8H828.787L839.987 75.9L851.487 42.8H868.187Z" fill="white"/>
</svg>
