<svg viewBox="0 0 24 24" xmlns="http://www.w3.org/2000/svg">
<path fill-rule="evenodd" clip-rule="evenodd" d="M3 6.00078C3 5.53931 3.50182 5 3.99782 5H20.0022C20.5346 5 21 5.53931 21 6.00078V17.9884C21 18.4996 20.5131 19 19.9914 19H4.00858C3.52335 19 3 18.4996 3 17.9884V6.00078ZM6.85095 8.5763H11.1298V10.2929H7.70671V13.7262H11.1298V15.4428H6.85095C6.42307 15.4428 5.99518 15.0136 5.99518 14.5845V9.43461C5.99518 9.00546 6.42307 8.5763 6.85095 8.5763ZM17.9759 8.5763H13.6971C13.2692 8.5763 12.8413 9.00546 12.8413 9.43461V14.5845C12.8413 15.0136 13.2692 15.4428 13.6971 15.4428H17.9759V8.5763ZM14.5529 10.2929H17.9759V13.7262H14.5529V10.2929Z" fill-opacity="0.5"/>
</svg>
