<svg viewBox="0 0 24 24" xmlns="http://www.w3.org/2000/svg">
<path fill-rule="evenodd" clip-rule="evenodd" d="M11.0706 5C11.0283 5 10.9905 5.02663 10.9764 5.0665L10.2466 7.11899C9.87502 7.22527 9.51877 7.36445 9.18169 7.5329L7.11676 6.56496C7.07704 6.54634 7.02906 6.55364 6.99766 6.58308L5.68861 7.81031C5.65721 7.83975 5.64943 7.88472 5.66929 7.92196L6.70175 9.85784C6.52208 10.1739 6.37362 10.5078 6.26026 10.8562L4.07017 11.5406C4.02843 11.5536 4 11.5923 4 11.636V13.364C4 13.4077 4.02842 13.4464 4.07017 13.4594L6.26026 14.1438C6.37362 14.4922 6.52208 14.8261 6.70176 15.1422L5.66929 17.078C5.64943 17.1153 5.65722 17.1603 5.68862 17.1897L6.99767 18.4169C7.02907 18.4464 7.07704 18.4537 7.11676 18.435L9.18169 17.4671C9.51878 17.6356 9.87503 17.7747 10.2466 17.881L10.9764 19.9335C10.9905 19.9734 11.0283 20 11.0706 20H12.9294C12.9717 20 13.0095 19.9734 13.0236 19.9335L13.7534 17.881C14.125 17.7747 14.4812 17.6356 14.8183 17.4671L16.8832 18.435C16.923 18.4537 16.9709 18.4464 17.0023 18.4169L18.3114 17.1897C18.3428 17.1602 18.3506 17.1153 18.3307 17.078L17.2982 15.1422C17.4779 14.8261 17.6264 14.4922 17.7397 14.1438L19.9298 13.4594C19.9716 13.4464 20 13.4077 20 13.364V11.636C20 11.5923 19.9716 11.5536 19.9298 11.5406L17.7397 10.8562C17.6264 10.5078 17.4779 10.1739 17.2982 9.85783L18.3307 7.92196C18.3506 7.88472 18.3428 7.83975 18.3114 7.81031L17.0023 6.58308C16.9709 6.55364 16.923 6.54634 16.8832 6.56496L14.8183 7.53289C14.4812 7.36445 14.125 7.22527 13.7534 7.11899L13.0236 5.0665C13.0095 5.02663 12.9717 5 12.9294 5H11.0706ZM12 15.3125C13.6569 15.3125 15 14.0533 15 12.5C15 10.9467 13.6569 9.6875 12 9.6875C10.3431 9.6875 9 10.9467 9 12.5C9 14.0533 10.3431 15.3125 12 15.3125Z" />
</svg>
