<svg viewBox="0 0 24 24" xmlns="http://www.w3.org/2000/svg">
<path fill-rule="evenodd" clip-rule="evenodd" d="M3 6.00078C3 5.53931 3.50182 5 3.99782 5H20.0022C20.5346 5 21 5.53931 21 6.00078V17.9884C21 18.4996 20.5131 19 19.9914 19H4.00858C3.52335 19 3 18.4996 3 17.9884V6.00078ZM11.1298 13.7262H7.70672V10.2929H11.1298V8.57631H6.85094C6.42306 8.57631 5.99518 9.00546 5.99518 9.43462V14.5845C5.99518 15.0136 6.42306 15.4428 6.85094 15.4428H11.1298V13.7262ZM17.9759 15.4428V8.57631H13.6971C13.2692 8.57631 12.8413 9.00546 12.8413 9.43462V14.5845C12.8413 15.0136 13.2692 15.4428 13.6971 15.4428H17.9759ZM14.5528 10.2929H17.9759V13.7262H14.5528V10.2929Z" />
</svg>
