<svg viewBox="0 0 24 24" fill="none" xmlns="http://www.w3.org/2000/svg">
<path d="M18.2222 5H5.77778C4.79111 5 4 5.7875 4 6.75V17.25C4 18.2125 4.79111 19 5.77778 19H18.2222C19.2 19 20 18.2125 20 17.25V6.75C20 5.7875 19.2 5 18.2222 5ZM11.1111 11.125H9.77778V10.6875H8V13.3125H9.77778V12.875H11.1111V13.75C11.1111 14.2313 10.7111 14.625 10.2222 14.625H7.55556C7.06667 14.625 6.66667 14.2313 6.66667 13.75V10.25C6.66667 9.76875 7.06667 9.375 7.55556 9.375H10.2222C10.7111 9.375 11.1111 9.76875 11.1111 10.25V11.125ZM17.3333 11.125H16V10.6875H14.2222V13.3125H16V12.875H17.3333V13.75C17.3333 14.2313 16.9333 14.625 16.4444 14.625H13.7778C13.2889 14.625 12.8889 14.2313 12.8889 13.75V10.25C12.8889 9.76875 13.2889 9.375 13.7778 9.375H16.4444C16.9333 9.375 17.3333 9.76875 17.3333 10.25V11.125Z" />
</svg>
