<svg><defs><clipPath id="clip0"><path d="M0 0h18v18H0z"/></clipPath><clipPath id="clip0"><path d="M0 0h18v18H0z"/></clipPath><clipPath id="clip0"><path d="M0 0h18v18H0z"/></clipPath><clipPath id="clip0"><path d="M0 0h18v18H0z"/></clipPath></defs><symbol id="vime-captions-off"><g clip-path="url(#clip0)"><path fill-rule="evenodd" clip-rule="evenodd" d="M0 3c0-.461.503-1 1-1h16.03c.533 0 .999.539.999 1v11.97c0 .511-.488 1.011-1.01 1.011H1.01c-.486 0-1.01-.5-1.01-1.01V2.999zM3.857 5.57h4.286v1.715H4.714v3.428h3.429v1.715H3.857C3.43 12.429 3 12 3 11.57V6.43c0-.429.429-.858.857-.858zm11.143 0h-4.286c-.428 0-.857.429-.857.858v5.142c0 .429.429.858.857.858H15v-1.715h-3.429V7.286H15V5.57z" fill-opacity=".5"/></g></symbol><symbol id="vime-captions-on"><g clip-path="url(#clip0)"><path fill-rule="evenodd" clip-rule="evenodd" d="M0 3c0-.461.503-1 1-1h16.03c.533 0 .999.539.999 1v11.97c0 .511-.488 1.011-1.01 1.011H1.01c-.486 0-1.01-.5-1.01-1.01V2.999zM3.857 5.57h4.286v1.715H4.714v3.428h3.429v1.715H3.857C3.43 12.429 3 12 3 11.57V6.43c0-.429.429-.858.857-.858zm11.143 0h-4.286c-.428 0-.857.429-.857.858v5.142c0 .429.429.858.857.858H15v-1.715h-3.429V7.286H15V5.57z"/></g></symbol><symbol id="vime-checkmark" viewBox="0 0 12 12"><path d="M1.50693 5.42938L0 6.9363L3.86703 10.8255L12 2.69254L10.482 1.17453L3.86703 7.78949L1.50693 5.42938Z"/></symbol><symbol id="vime-enter-fullscreen"><path d="M2 1a1 1 0 00-1 1v5h2.286V3.286H7V1H2zM11 1v2.286h3.714V7H17V2a1 1 0 00-1-1h-5zM17 11h-2.286v3.714H11V17h5a1 1 0 001-1v-5zM3.286 14.714H7V17H2a1 1 0 01-1-1v-5h2.286v3.714z"/></symbol><symbol id="vime-enter-pip"><path d="M7 8h6.762v4.33H7V8z"/><path fill-rule="evenodd" clip-rule="evenodd" d="M0 15c0 .5.5 1 1 1h16c.5 0 1-.5 1-1V3c0-.5-.5-1-1-1H1c-.5 0-1 .5-1 1v12zm2-1V4h14v10H2z"/></symbol><symbol id="vime-exit-fullscreen"><path d="M4.723 1H7v5c0 .5-.5 1-1 1H1V4.71h3.723V1zM17 4.723V7h-5c-.5 0-1-.5-1-1V1h2.29v3.723H17zM13.277 17H11v-5c0-.5.5-1 1-1h5v2.29h-3.723V17zM1 13.277V11h5c.5 0 1 .5 1 1v5H4.71v-3.723H1z"/></symbol><symbol id="vime-exit-pip"><path d="M1 2a1 1 0 011-1h6v2.286H4.7l5.785 5.785-1.414 1.414L3.286 4.7V8H1V2z"/><path d="M11 3.286V1h5a1 1 0 011 1v14a1 1 0 01-1 1H2a1 1 0 01-1-1v-5h2.286v3.714h11.428V3.286H11z"/></symbol><symbol id="vime-pause"><path d="M3.5 1h4v16h-4V1zM10.5 1h4v16h-4V1z"/></symbol><symbol id="vime-play"><path d="M3 1.52c0-.398.644-.637.977-.418L15 8.662a.5.5 0 010 .835L3.977 16.911c-.333.219-.977-.02-.977-.418V1.52z"/></symbol><symbol id="vime-seek-backward"><path d="M1.65.856h2.006v1.81a8 8 0 11-2.006 10.85l1.739-.997a6 6 0 101.72-8.425h1.783v2H1.65V.856z"/></symbol><symbol id="vime-seek-forward"><path d="M16.35.856h-2.006v1.81a8 8 0 102.006 10.85l-1.739-.997a6 6 0 11-1.72-8.425h-1.783v2h5.242V.856z"/></symbol><symbol id="vime-settings"><path fill-rule="evenodd" clip-rule="evenodd" d="M8.072 1a.1.1 0 00-.095.068l-.73 2.192a5.963 5.963 0 00-1.065.442L4.115 2.668a.1.1 0 00-.116.019L2.687 3.999a.1.1 0 00-.019.116l1.034 2.067c-.18.337-.328.693-.442 1.065l-2.192.73A.1.1 0 001 8.072v1.856a.1.1 0 00.068.095l2.192.73c.114.372.262.728.442 1.065l-1.034 2.067a.1.1 0 00.019.116l1.312 1.312a.1.1 0 00.116.019l2.067-1.034c.337.18.693.328 1.065.442l.73 2.192a.1.1 0 00.095.068h1.856a.1.1 0 00.095-.068l.73-2.192a5.956 5.956 0 001.065-.442l2.067 1.034a.1.1 0 00.116-.019l1.312-1.312a.1.1 0 00.019-.116l-1.034-2.067c.18-.337.328-.693.442-1.065l2.192-.73A.1.1 0 0017 9.928V8.072a.1.1 0 00-.068-.095l-2.192-.73a5.956 5.956 0 00-.442-1.065l1.034-2.067a.1.1 0 00-.019-.116l-1.312-1.312a.1.1 0 00-.116-.019l-2.067 1.034a5.962 5.962 0 00-1.065-.442l-.73-2.192A.1.1 0 009.928 1H8.072zM9 12a3 3 0 100-6 3 3 0 000 6z"/></symbol><symbol id="vime-volume-high"><g clip-path="url(#clip0)"><path d="M8.942 1.48a.5.5 0 00-.853-.353L2.749 6.5H0v5h2.559l5.53 5.353a.5.5 0 00.853-.353V1.48zM14 9c0 2-1.681 3-3 3V9 6c1.319 0 3 1 3 3z"/><path d="M11 2v2c2.5 0 5 2 5 5s-2.5 5-5 5v2c3 0 7-2 7-7s-4-7-7-7z"/></g></symbol><symbol id="vime-volume-low"><path d="M8.942 1.455A.5.5 0 008.09 1.1L2.749 6.5H0v5h2.559l5.53 5.38a.5.5 0 00.853-.354V1.455zM14 9c0 2-1.681 3-3 3V9 6c1.319 0 3 1 3 3z"/></symbol><symbol id="vime-volume-mute"><g clip-path="url(#clip0)"><path d="M8.942 1.51a.5.5 0 00-.853-.354L2.749 6.5H0v5h2.559l5.53 5.355a.5.5 0 00.853-.354V1.51zM18 7.23L16.77 6l-2.257 2.257L12.256 6l-1.23 1.23 2.256 2.257-2.256 2.257 1.23 1.23 2.257-2.256 2.256 2.256 1.23-1.23-2.256-2.257L18 7.231z"/></g></symbol></svg>