<svg width="18" height="18" fill="none" xmlns="http://www.w3.org/2000/svg"><path fill-rule="evenodd" clip-rule="evenodd" d="M8.072 1a.1.1 0 00-.095.068l-.73 2.192a5.963 5.963 0 00-1.065.442L4.115 2.668a.1.1 0 00-.116.019L2.687 3.999a.1.1 0 00-.019.116l1.034 2.067c-.18.337-.328.693-.442 1.065l-2.192.73A.1.1 0 001 8.072v1.856a.1.1 0 00.068.095l2.192.73c.114.372.262.728.442 1.065l-1.034 2.067a.1.1 0 00.019.116l1.312 1.312a.1.1 0 00.116.019l2.067-1.034c.337.18.693.328 1.065.442l.73 2.192a.1.1 0 00.095.068h1.856a.1.1 0 00.095-.068l.73-2.192a5.956 5.956 0 001.065-.442l2.067 1.034a.1.1 0 00.116-.019l1.312-1.312a.1.1 0 00.019-.116l-1.034-2.067c.18-.337.328-.693.442-1.065l2.192-.73A.1.1 0 0017 9.928V8.072a.1.1 0 00-.068-.095l-2.192-.73a5.956 5.956 0 00-.442-1.065l1.034-2.067a.1.1 0 00-.019-.116l-1.312-1.312a.1.1 0 00-.116-.019l-2.067 1.034a5.962 5.962 0 00-1.065-.442l-.73-2.192A.1.1 0 009.928 1H8.072zM9 12a3 3 0 100-6 3 3 0 000 6z"/></svg>