<svg width="18" height="18" fill="none" xmlns="http://www.w3.org/2000/svg"><g clip-path="url(#clip0)"><path fill-rule="evenodd" clip-rule="evenodd" d="M0 3c0-.461.503-1 1-1h16.03c.533 0 .999.539.999 1v11.97c0 .511-.488 1.011-1.01 1.011H1.01c-.486 0-1.01-.5-1.01-1.01V2.999zM3.857 5.57h4.286v1.715H4.714v3.428h3.429v1.715H3.857C3.43 12.429 3 12 3 11.57V6.43c0-.429.429-.858.857-.858zm11.143 0h-4.286c-.428 0-.857.429-.857.858v5.142c0 .429.429.858.857.858H15v-1.715h-3.429V7.286H15V5.57z"/></g><defs><clipPath id="clip0"><path d="M0 0h18v18H0z"/></clipPath></defs></svg>