<svg viewBox="0 0 24 24" xmlns="http://www.w3.org/2000/svg">
<path d="M7.98999 5L10.125 5L10.125 9.6875C10.125 10.1562 9.65625 10.625 9.1875 10.625L4.5 10.625L4.5 8.479L7.98999 8.479L7.98999 5Z" />
<path d="M19.5 8.48999V10.625H14.8125C14.3438 10.625 13.875 10.1562 13.875 9.6875V5L16.021 5V8.48999H19.5Z" />
<path d="M16.01 20H13.875L13.875 15.3125C13.875 14.8438 14.3438 14.375 14.8125 14.375L19.5 14.375V16.521H16.01L16.01 20Z" />
<path d="M4.5 16.51L4.5 14.375H9.1875C9.65625 14.375 10.125 14.8438 10.125 15.3125V20H7.979L7.979 16.51H4.5Z" />
</svg>
