<svg viewBox="0 0 24 24" xmlns="http://www.w3.org/2000/svg">
<path d="M11.9424 5.4697C11.9424 5.05208 11.4038 4.84293 11.0889 5.13824L5.74961 10.1755H3L3.00003 14.8631H5.55861L11.0889 19.8818C11.4038 20.1771 11.9424 19.9679 11.9424 19.5503V5.4697Z" />
<path d="M17 12.5193C17 14.3943 15.3186 15.3318 14 15.3318C14 15.3318 14 14.0726 14 12.5193C14 10.9659 14 9.70669 14 9.70669C15.3186 9.70669 17 10.6442 17 12.5193Z" />
<path d="M14 5.95659V7.83164C16.5 7.83164 19 9.70669 19 12.5193C19 15.3318 16.5 17.2069 14 17.2069V19.0819C17 19.0819 21 17.2069 21 12.5193C21 7.83164 17 5.95659 14 5.95659Z" />
</svg>
