<svg viewBox="0 0 24 24" fill="none" xmlns="http://www.w3.org/2000/svg">
<path d="M8.17307 5.02172H18.6273C19.5723 5.02172 20.3454 5.79444 20.3454 6.73889V17.0419C20.3454 17.0848 20.3368 17.1278 20.3282 17.1793L17.4247 14.2773C17.6309 14.1141 17.7683 13.8823 17.7683 13.6076V12.749H16.4798V13.1783H16.3338L14.7617 11.6071V10.6025H16.4798V11.0318H17.7683V10.1732C17.7683 9.70101 17.3818 9.31465 16.9093 9.31465H14.3322C13.8598 9.31465 13.4732 9.70101 13.4732 10.1732V10.3192L8.17307 5.02172ZM19.2974 21L17.0553 18.7591H6.60106C5.64755 18.7591 4.88302 17.9864 4.88302 17.0419V6.73889C4.88302 6.69596 4.9002 6.65303 4.9002 6.6101L3.5 5.21061L4.71122 4L20.5 19.7808L19.2974 21ZM11.7552 13.4616L11.0422 12.749H10.4666V13.1783H8.74861V10.6025H8.89464L7.80369 9.50354C7.59752 9.66667 7.46008 9.89848 7.46008 10.1732V13.6076C7.46008 14.0798 7.84664 14.4662 8.3191 14.4662H10.8962C11.3686 14.4662 11.7552 14.0798 11.7552 13.6076V13.4616Z" />
</svg>
