<svg viewBox="0 0 24 24" fill="none" xmlns="http://www.w3.org/2000/svg">
<path d="M17.7346 13.2344C17.7668 13 17.7828 12.7578 17.7828 12.5C17.7828 12.25 17.7668 12 17.7266 11.7656L19.357 10.5312C19.5016 10.4219 19.5418 10.2109 19.4534 10.0547L17.9113 7.46094C17.815 7.28906 17.6142 7.23437 17.4375 7.28906L15.5179 8.03906C15.1163 7.74219 14.6906 7.49219 14.2167 7.30469L13.9276 5.32031C13.8955 5.13281 13.7348 5 13.5421 5H10.4579C10.2652 5 10.1126 5.13281 10.0804 5.32031L9.79128 7.30469C9.31741 7.49219 8.8837 7.75 8.49015 8.03906L6.57057 7.28906C6.39387 7.22656 6.19308 7.28906 6.0967 7.46094L4.56265 10.0547C4.46627 10.2187 4.49839 10.4219 4.65903 10.5312L6.28946 11.7656C6.2493 12 6.21718 12.2578 6.21718 12.5C6.21718 12.7422 6.23324 13 6.2734 13.2344L4.64296 14.4687C4.49839 14.5781 4.45824 14.7891 4.54658 14.9453L6.08867 17.5391C6.18505 17.7109 6.38584 17.7656 6.56254 17.7109L8.48212 16.9609C8.8837 17.2578 9.30938 17.5078 9.78325 17.6953L10.0724 19.6797C10.1126 19.8672 10.2652 20 10.4579 20H13.5421C13.7348 20 13.8955 19.8672 13.9196 19.6797L14.2087 17.6953C14.6826 17.5078 15.1163 17.2578 15.5099 16.9609L17.4294 17.7109C17.6061 17.7734 17.8069 17.7109 17.9033 17.5391L19.4454 14.9453C19.5418 14.7734 19.5016 14.5781 19.349 14.4687L17.7346 13.2344ZM12 15.3125C10.4097 15.3125 9.10859 14.0469 9.10859 12.5C9.10859 10.9531 10.4097 9.6875 12 9.6875C13.5903 9.6875 14.8914 10.9531 14.8914 12.5C14.8914 14.0469 13.5903 15.3125 12 15.3125Z" />
</svg>
