<svg width="342" height="77" viewBox="0 0 342 77" fill="none" xmlns="http://www.w3.org/2000/svg">
<path d="M174.212 0.765266L143.017 76.2449L115.722 76.2449L84.6664 0.765266L111.822 0.765266L129.926 45.047L149.005 0.765266L174.212 0.765266Z" fill="#231F20"/>
<path d="M341.591 0.765266L310.397 76.2449L283.101 76.2449L252.046 0.765266L279.202 0.765266L297.306 45.047L316.385 0.765266L341.591 0.765266Z" fill="#231F20"/>
<path d="M0.880516 76.2347L32.0751 0.755002L59.3703 0.755L90.4256 76.2347L63.2696 76.2347L45.1656 31.9529L26.0868 76.2347L0.880516 76.2347Z" fill="#231F20"/>
<path d="M168.263 76.2347L199.458 0.755002L226.753 0.755L257.808 76.2347L230.652 76.2347L212.549 31.9529L193.47 76.2347L168.263 76.2347Z" fill="#231F20"/>
</svg>
