<svg width="533" height="166" viewBox="0 0 533 166" fill="none" xmlns="http://www.w3.org/2000/svg">
<path d="M132.072 53.8146L86.0623 165.141H45.804L0 53.8146H40.0529L66.7547 119.127L94.8945 53.8146H132.072Z" fill="#231F20"/>
<path d="M142.16 53.8146H181.186V165.141H142.16V53.8146ZM161.673 41.4906C154.553 41.4906 148.802 39.5051 144.42 35.5341C140.038 31.563 137.847 26.6334 137.847 20.7453C137.847 14.8572 140.038 9.92762 144.42 5.95657C148.802 1.98552 154.553 0 161.673 0C168.794 0 174.545 1.91706 178.927 5.75118C183.309 9.44836 185.5 14.241 185.5 20.1291C185.5 26.2911 183.309 31.4261 178.927 35.5341C174.545 39.5051 168.794 41.4906 161.673 41.4906Z" fill="#231F20"/>
<path d="M351.56 51.966C365.253 51.966 376.139 56.074 384.219 64.2899C392.435 72.5059 396.542 84.8983 396.542 101.467V165.141H357.517V107.835C357.517 100.029 356.01 94.2782 352.998 90.5811C350.122 86.8839 346.014 85.0353 340.674 85.0353C334.786 85.0353 330.062 87.0893 326.501 91.1973C322.941 95.3052 321.161 101.536 321.161 109.889V165.141H282.135V107.835C282.135 92.635 276.521 85.0353 265.292 85.0353C259.267 85.0353 254.475 87.0893 250.914 91.1973C247.354 95.3052 245.574 101.536 245.574 109.889V165.141H206.548V53.8146H243.725V65.5223C247.833 61.0036 252.695 57.6487 258.309 55.4578C264.06 53.1299 270.29 51.966 277 51.966C284.805 51.966 291.789 53.4038 297.951 56.2794C304.113 59.155 309.111 63.5368 312.945 69.4249C317.327 63.8107 322.873 59.4973 329.582 56.4848C336.292 53.4723 343.618 51.966 351.56 51.966Z" fill="#231F20"/>
<path d="M532.595 107.835C532.595 108.108 532.389 111.326 531.979 117.488H451.051C452.694 123.24 455.844 127.69 460.5 130.839C465.292 133.852 471.249 135.358 478.369 135.358C483.71 135.358 488.297 134.605 492.131 133.099C496.102 131.592 500.073 129.128 504.044 125.704L524.584 147.066C513.767 159.116 497.951 165.141 477.137 165.141C464.128 165.141 452.694 162.676 442.835 157.747C432.976 152.817 425.308 145.97 419.831 137.207C414.49 128.443 411.82 118.515 411.82 107.424C411.82 96.4691 414.422 86.6784 419.625 78.0517C424.966 69.288 432.292 62.4413 441.603 57.5118C450.914 52.5822 461.39 50.1174 473.029 50.1174C484.121 50.1174 494.185 52.4453 503.223 57.101C512.26 61.6197 519.381 68.261 524.584 77.0247C529.925 85.6515 532.595 95.9214 532.595 107.835ZM473.234 77.8463C467.209 77.8463 462.143 79.5579 458.035 82.9813C454.064 86.4046 451.531 91.0603 450.435 96.9484H496.034C494.938 91.0603 492.337 86.4046 488.229 82.9813C484.257 79.5579 479.259 77.8463 473.234 77.8463Z" fill="#231F20"/>
</svg>
