<svg width="692" height="122" viewBox="0 0 692 122" fill="none" xmlns="http://www.w3.org/2000/svg">
<path d="M353.616 55.8174L342.106 83.6685H332.034L320.575 55.8174L330.595 55.8174L337.276 72.1568L344.315 55.8174L353.616 55.8174Z" fill="white"/>
<path d="M415.377 55.8174L403.867 83.6685H393.795L382.336 55.8174L392.356 55.8174L399.037 72.1568L406.076 55.8174L415.377 55.8174Z" fill="white"/>
<path d="M289.659 83.6647L301.17 55.8137L311.241 55.8137L322.7 83.6647L312.68 83.6647L306 67.3253L298.96 83.6647L289.659 83.6647Z" fill="white"/>
<path d="M351.421 83.6647L362.932 55.8137L373.003 55.8137L384.462 83.6647L374.442 83.6647L367.762 67.3253L360.722 83.6647L351.421 83.6647Z" fill="white"/>
<path d="M65.8776 41.4702L42.928 97H22.8471L0 41.4702H19.9784L33.2974 74.0479L47.3335 41.4702H65.8776Z" fill="white"/>
<path d="M70.9098 41.4702H90.376V97H70.9098V41.4702ZM80.6429 35.323C77.0912 35.323 74.2225 34.3326 72.0368 32.3519C69.8511 30.3711 68.7583 27.9122 68.7583 24.9752C68.7583 22.0382 69.8511 19.5793 72.0368 17.5986C74.2225 15.6178 77.0912 14.6274 80.6429 14.6274C84.1946 14.6274 87.0633 15.5836 89.249 17.4961C91.4346 19.3403 92.5275 21.7309 92.5275 24.6678C92.5275 27.7415 91.4346 30.3028 89.249 32.3519C87.0633 34.3326 84.1946 35.323 80.6429 35.323Z" fill="white"/>
<path d="M175.359 40.5481C182.189 40.5481 187.619 42.5972 191.649 46.6953C195.747 50.7935 197.796 56.9748 197.796 65.2394V97H178.33V68.4155C178.33 64.5222 177.579 61.6535 176.076 59.8094C174.642 57.9652 172.592 57.0431 169.929 57.0431C166.992 57.0431 164.635 58.0677 162.859 60.1167C161.084 62.1658 160.196 65.2736 160.196 69.44V97H140.729V68.4155C140.729 60.8339 137.929 57.0431 132.328 57.0431C129.323 57.0431 126.932 58.0677 125.157 60.1167C123.381 62.1658 122.493 65.2736 122.493 69.44V97H103.027V41.4702H121.571V47.3101C123.62 45.0561 126.044 43.3827 128.845 42.2898C131.714 41.1287 134.821 40.5481 138.168 40.5481C142.061 40.5481 145.545 41.2653 148.618 42.6997C151.692 44.134 154.185 46.3197 156.097 49.2567C158.283 46.4563 161.049 44.3048 164.396 42.8021C167.743 41.2995 171.397 40.5481 175.359 40.5481Z" fill="white"/>
<path d="M265.659 68.4155C265.659 68.5521 265.557 70.1572 265.352 73.2308H224.985C225.805 76.0995 227.376 78.3193 229.698 79.8903C232.089 81.3929 235.06 82.1442 238.611 82.1442C241.275 82.1442 243.563 81.7686 245.476 81.0172C247.457 80.2659 249.437 79.0365 251.418 77.3289L261.663 87.9841C256.268 93.9947 248.379 97 237.997 97C231.508 97 225.805 95.7705 220.887 93.3117C215.969 90.8528 212.144 87.4377 209.412 83.0663C206.748 78.695 205.417 73.743 205.417 68.2106C205.417 62.7464 206.714 57.8628 209.31 53.5597C211.974 49.1884 215.628 45.7733 220.272 43.3144C224.917 40.8555 230.142 39.626 235.948 39.626C241.48 39.626 246.5 40.7872 251.008 43.1095C255.516 45.3634 259.068 48.6761 261.663 53.0474C264.327 57.3505 265.659 62.4732 265.659 68.4155ZM236.05 53.4573C233.045 53.4573 230.518 54.311 228.469 56.0186C226.488 57.7262 225.224 60.0484 224.678 62.9854H247.422C246.876 60.0484 245.578 57.7262 243.529 56.0186C241.548 54.311 239.055 53.4573 236.05 53.4573Z" fill="white"/>
<path d="M503.077 22.8V97H484.977V91.6C481.444 95.8 476.144 97.9 469.077 97.9C464.144 97.9 459.644 96.7667 455.577 94.5C451.51 92.1667 448.277 88.8667 445.877 84.6C443.544 80.3333 442.377 75.4 442.377 69.8C442.377 64.2 443.544 59.3 445.877 55.1C448.277 50.8333 451.51 47.5667 455.577 45.3C459.644 43.0333 464.144 41.9 469.077 41.9C475.544 41.9 480.544 43.7667 484.077 47.5V22.8H503.077ZM473.077 82.8C476.344 82.8 479.044 81.6667 481.177 79.4C483.31 77.0667 484.377 73.8667 484.377 69.8C484.377 65.8 483.31 62.6667 481.177 60.4C479.11 58.1333 476.41 57 473.077 57C469.744 57 467.01 58.1333 464.877 60.4C462.744 62.6667 461.677 65.8 461.677 69.8C461.677 73.8667 462.744 77.0667 464.877 79.4C467.01 81.6667 469.744 82.8 473.077 82.8ZM542.501 97.9C536.701 97.9 531.468 96.7 526.801 94.3C522.135 91.9 518.468 88.5667 515.801 84.3C513.201 80.0333 511.901 75.2 511.901 69.8C511.901 64.4667 513.201 59.6667 515.801 55.4C518.468 51.1333 522.101 47.8333 526.701 45.5C531.368 43.1 536.635 41.9 542.501 41.9C548.368 41.9 553.635 43.1 558.301 45.5C562.968 47.8333 566.601 51.1333 569.201 55.4C571.801 59.6 573.101 64.4 573.101 69.8C573.101 75.2 571.801 80.0333 569.201 84.3C566.601 88.5667 562.968 91.9 558.301 94.3C553.635 96.7 548.368 97.9 542.501 97.9ZM542.501 82.8C545.835 82.8 548.568 81.6667 550.701 79.4C552.835 77.0667 553.901 73.8667 553.901 69.8C553.901 65.8 552.835 62.6667 550.701 60.4C548.568 58.1333 545.835 57 542.501 57C539.168 57 536.435 58.1333 534.301 60.4C532.168 62.6667 531.101 65.8 531.101 69.8C531.101 73.8667 532.168 77.0667 534.301 79.4C536.435 81.6667 539.168 82.8 542.501 82.8ZM609.603 97.9C603.603 97.9 598.236 96.7 593.503 94.3C588.769 91.9 585.069 88.5667 582.403 84.3C579.803 80.0333 578.503 75.2 578.503 69.8C578.503 64.4 579.803 59.6 582.403 55.4C585.069 51.1333 588.769 47.8333 593.503 45.5C598.236 43.1 603.603 41.9 609.603 41.9C615.736 41.9 621.036 43.2333 625.503 45.9C629.969 48.5 633.136 52.1333 635.003 56.8L620.303 64.3C617.836 59.4333 614.236 57 609.503 57C606.103 57 603.269 58.1333 601.003 60.4C598.803 62.6667 597.703 65.8 597.703 69.8C597.703 73.8667 598.803 77.0667 601.003 79.4C603.269 81.6667 606.103 82.8 609.503 82.8C614.236 82.8 617.836 80.3667 620.303 75.5L635.003 83C633.136 87.6667 629.969 91.3333 625.503 94C621.036 96.6 615.736 97.9 609.603 97.9ZM661.857 97.9C657.323 97.9 652.857 97.4 648.457 96.4C644.057 95.3333 640.523 93.9667 637.857 92.3L643.557 79.3C646.023 80.8333 648.957 82.0667 652.357 83C655.757 83.8667 659.123 84.3 662.457 84.3C665.523 84.3 667.69 84 668.957 83.4C670.29 82.7333 670.957 81.8 670.957 80.6C670.957 79.4 670.157 78.5667 668.557 78.1C667.023 77.5667 664.557 77.0667 661.157 76.6C656.823 76.0667 653.123 75.3667 650.057 74.5C647.057 73.6333 644.457 72.0333 642.257 69.7C640.057 67.3667 638.957 64.1 638.957 59.9C638.957 56.4333 639.99 53.3667 642.057 50.7C644.123 47.9667 647.123 45.8333 651.057 44.3C655.057 42.7 659.823 41.9 665.357 41.9C669.29 41.9 673.19 42.3 677.057 43.1C680.923 43.9 684.157 45.0333 686.757 46.5L681.057 59.4C676.257 56.7333 671.057 55.4 665.457 55.4C662.457 55.4 660.257 55.7667 658.857 56.5C657.457 57.1667 656.757 58.0667 656.757 59.2C656.757 60.4667 657.523 61.3667 659.057 61.9C660.59 62.3667 663.123 62.8667 666.657 63.4C671.123 64.0667 674.823 64.8333 677.757 65.7C680.69 66.5667 683.223 68.1667 685.357 70.5C687.557 72.7667 688.657 75.9667 688.657 80.1C688.657 83.5 687.623 86.5667 685.557 89.3C683.49 91.9667 680.423 94.0667 676.357 95.6C672.357 97.1333 667.523 97.9 661.857 97.9Z" fill="white"/>
</svg>
