<svg width="919" height="123" viewBox="0 0 919 123" fill="none" xmlns="http://www.w3.org/2000/svg">
<path d="M353.616 56.0574L342.106 83.9084H332.034L320.575 56.0574L330.595 56.0574L337.275 72.3968L344.315 56.0574L353.616 56.0574Z" fill="#231F20"/>
<path d="M415.377 56.0574L403.867 83.9084H393.795L382.336 56.0574L392.356 56.0574L399.036 72.3968L406.076 56.0574L415.377 56.0574Z" fill="#231F20"/>
<path d="M289.659 83.9048L301.17 56.0538L311.241 56.0538L322.7 83.9048L312.68 83.9048L306 67.5654L298.96 83.9048L289.659 83.9048Z" fill="#231F20"/>
<path d="M351.421 83.9048L362.932 56.0538L373.003 56.0538L384.462 83.9048L374.442 83.9048L367.762 67.5654L360.722 83.9048L351.421 83.9048Z" fill="#231F20"/>
<path d="M65.8776 41.7102L42.928 97.24H22.8471L0 41.7102H19.9784L33.2974 74.2879L47.3335 41.7102H65.8776Z" fill="#231F20"/>
<path d="M70.9098 41.7102H90.376V97.24H70.9098V41.7102ZM80.6429 35.563C77.0912 35.563 74.2225 34.5726 72.0368 32.5919C69.8511 30.6111 68.7583 28.1522 68.7583 25.2152C68.7583 22.2782 69.8511 19.8193 72.0368 17.8386C74.2225 15.8578 77.0912 14.8674 80.6429 14.8674C84.1946 14.8674 87.0633 15.8237 89.249 17.7361C91.4346 19.5803 92.5275 21.9709 92.5275 24.9079C92.5275 27.9815 91.4346 30.5428 89.249 32.5919C87.0633 34.5726 84.1946 35.563 80.6429 35.563Z" fill="#231F20"/>
<path d="M175.359 40.7882C182.189 40.7882 187.619 42.8372 191.649 46.9354C195.747 51.0335 197.796 57.2149 197.796 65.4794V97.24H178.33V68.6555C178.33 64.7623 177.579 61.8936 176.076 60.0494C174.642 58.2052 172.592 57.2832 169.929 57.2832C166.992 57.2832 164.635 58.3077 162.859 60.3568C161.084 62.4058 160.196 65.5136 160.196 69.68V97.24H140.729V68.6555C140.729 61.0739 137.929 57.2832 132.328 57.2832C129.323 57.2832 126.932 58.3077 125.157 60.3568C123.381 62.4058 122.493 65.5136 122.493 69.68V97.24H103.027V41.7102H121.571V47.5501C123.62 45.2961 126.044 43.6227 128.845 42.5299C131.714 41.3687 134.821 40.7882 138.168 40.7882C142.061 40.7882 145.545 41.5053 148.618 42.9397C151.692 44.374 154.185 46.5597 156.097 49.4967C158.283 46.6963 161.049 44.5448 164.396 43.0421C167.743 41.5395 171.397 40.7882 175.359 40.7882Z" fill="#231F20"/>
<path d="M265.659 68.6555C265.659 68.7921 265.557 70.3972 265.352 73.4708H224.985C225.805 76.3395 227.376 78.5593 229.698 80.1303C232.089 81.6329 235.06 82.3843 238.611 82.3843C241.275 82.3843 243.563 82.0086 245.476 81.2573C247.457 80.5059 249.437 79.2765 251.418 77.5689L261.663 88.2241C256.268 94.2347 248.379 97.24 237.997 97.24C231.508 97.24 225.805 96.0106 220.887 93.5517C215.969 91.0928 212.144 87.6777 209.412 83.3063C206.748 78.935 205.417 73.9831 205.417 68.4506C205.417 62.9864 206.714 58.1028 209.31 53.7997C211.974 49.4284 215.628 46.0133 220.272 43.5544C224.917 41.0955 230.142 39.8661 235.948 39.8661C241.48 39.8661 246.5 41.0272 251.008 43.3495C255.516 45.6035 259.068 48.9161 261.663 53.2875C264.327 57.5905 265.659 62.7132 265.659 68.6555ZM236.05 53.6973C233.045 53.6973 230.518 54.5511 228.469 56.2586C226.488 57.9662 225.224 60.2885 224.678 63.2255H247.422C246.876 60.2885 245.578 57.9662 243.529 56.2586C241.548 54.5511 239.055 53.6973 236.05 53.6973Z" fill="#231F20"/>
<path d="M465.177 98.14C460.644 98.14 456.177 97.64 451.777 96.64C447.377 95.5733 443.844 94.2067 441.177 92.54L446.877 79.54C449.344 81.0733 452.277 82.3067 455.677 83.24C459.077 84.1067 462.444 84.54 465.777 84.54C468.844 84.54 471.01 84.24 472.277 83.64C473.61 82.9733 474.277 82.04 474.277 80.84C474.277 79.64 473.477 78.8067 471.877 78.34C470.344 77.8067 467.877 77.3067 464.477 76.84C460.144 76.3067 456.444 75.6067 453.377 74.74C450.377 73.8733 447.777 72.2733 445.577 69.94C443.377 67.6067 442.277 64.34 442.277 60.14C442.277 56.6733 443.31 53.6067 445.377 50.94C447.444 48.2067 450.444 46.0733 454.377 44.54C458.377 42.94 463.144 42.14 468.677 42.14C472.61 42.14 476.51 42.54 480.377 43.34C484.244 44.14 487.477 45.2733 490.077 46.74L484.377 59.64C479.577 56.9733 474.377 55.64 468.777 55.64C465.777 55.64 463.577 56.0067 462.177 56.74C460.777 57.4067 460.077 58.3067 460.077 59.44C460.077 60.7067 460.844 61.6067 462.377 62.14C463.91 62.6067 466.444 63.1067 469.977 63.64C474.444 64.3067 478.144 65.0733 481.077 65.94C484.01 66.8067 486.544 68.4067 488.677 70.74C490.877 73.0067 491.977 76.2067 491.977 80.34C491.977 83.74 490.944 86.8067 488.877 89.54C486.81 92.2067 483.744 94.3067 479.677 95.84C475.677 97.3733 470.844 98.14 465.177 98.14ZM537.565 95.04C535.965 96.04 533.998 96.8067 531.665 97.34C529.398 97.8733 526.965 98.14 524.365 98.14C517.298 98.14 511.865 96.4067 508.065 92.94C504.265 89.4733 502.365 84.3067 502.365 77.44V59.24H494.465V45.04H502.365V30.94H521.365V45.04H533.765V59.24H521.365V77.24C521.365 79.1733 521.865 80.7067 522.865 81.84C523.931 82.9067 525.331 83.44 527.065 83.44C529.265 83.44 531.198 82.8733 532.865 81.74L537.565 95.04ZM567.991 42.14C576.991 42.14 583.858 44.2067 588.591 48.34C593.324 52.4067 595.691 58.6733 595.691 67.14V97.24H577.991V90.24C575.258 95.5067 569.924 98.14 561.991 98.14C557.791 98.14 554.158 97.4067 551.091 95.94C548.024 94.4733 545.691 92.5067 544.091 90.04C542.558 87.5067 541.791 84.64 541.791 81.44C541.791 76.3067 543.758 72.34 547.691 69.54C551.624 66.6733 557.691 65.24 565.891 65.24H576.691C576.358 59.5067 572.524 56.64 565.191 56.64C562.591 56.64 559.958 57.0733 557.291 57.94C554.624 58.74 552.358 59.8733 550.491 61.34L544.091 48.44C547.091 46.44 550.724 44.9067 554.991 43.84C559.324 42.7067 563.658 42.14 567.991 42.14ZM567.291 86.14C569.491 86.14 571.424 85.6067 573.091 84.54C574.758 83.4733 575.958 81.9067 576.691 79.84V75.14H568.491C562.958 75.14 560.191 76.9733 560.191 80.64C560.191 82.3067 560.824 83.64 562.091 84.64C563.358 85.64 565.091 86.14 567.291 86.14ZM642.984 42.14C649.717 42.14 655.117 44.14 659.184 48.14C663.317 52.14 665.384 58.1733 665.384 66.24V97.24H646.384V69.34C646.384 61.94 643.417 58.24 637.484 58.24C634.217 58.24 631.584 59.3067 629.584 61.44C627.651 63.5733 626.684 66.7733 626.684 71.04V97.24H607.684V43.04H625.784V48.94C627.917 46.74 630.451 45.0733 633.384 43.94C636.317 42.74 639.517 42.14 642.984 42.14ZM735.694 23.04V97.24H717.594V91.84C714.061 96.04 708.761 98.14 701.694 98.14C696.761 98.14 692.261 97.0067 688.194 94.74C684.128 92.4067 680.894 89.1067 678.494 84.84C676.161 80.5733 674.994 75.64 674.994 70.04C674.994 64.44 676.161 59.54 678.494 55.34C680.894 51.0733 684.128 47.8067 688.194 45.54C692.261 43.2733 696.761 42.14 701.694 42.14C708.161 42.14 713.161 44.0067 716.694 47.74V23.04H735.694ZM705.694 83.04C708.961 83.04 711.661 81.9067 713.794 79.64C715.928 77.3067 716.994 74.1067 716.994 70.04C716.994 66.04 715.928 62.9067 713.794 60.64C711.728 58.3733 709.028 57.24 705.694 57.24C702.361 57.24 699.628 58.3733 697.494 60.64C695.361 62.9067 694.294 66.04 694.294 70.04C694.294 74.1067 695.361 77.3067 697.494 79.64C699.628 81.9067 702.361 83.04 705.694 83.04ZM771.018 42.14C780.018 42.14 786.885 44.2067 791.618 48.34C796.352 52.4067 798.718 58.6733 798.718 67.14V97.24H781.018V90.24C778.285 95.5067 772.952 98.14 765.018 98.14C760.818 98.14 757.185 97.4067 754.118 95.94C751.052 94.4733 748.718 92.5067 747.118 90.04C745.585 87.5067 744.818 84.64 744.818 81.44C744.818 76.3067 746.785 72.34 750.718 69.54C754.652 66.6733 760.718 65.24 768.918 65.24H779.718C779.385 59.5067 775.552 56.64 768.218 56.64C765.618 56.64 762.985 57.0733 760.318 57.94C757.652 58.74 755.385 59.8733 753.518 61.34L747.118 48.44C750.118 46.44 753.752 44.9067 758.018 43.84C762.352 42.7067 766.685 42.14 771.018 42.14ZM770.318 86.14C772.518 86.14 774.452 85.6067 776.118 84.54C777.785 83.4733 778.985 81.9067 779.718 79.84V75.14H771.518C765.985 75.14 763.218 76.9733 763.218 80.64C763.218 82.3067 763.852 83.64 765.118 84.64C766.385 85.64 768.118 86.14 770.318 86.14ZM828.811 49.54C830.745 47.0733 833.245 45.24 836.311 44.04C839.445 42.7733 843.011 42.14 847.011 42.14V59.24C845.278 59.04 843.845 58.94 842.711 58.94C838.645 58.94 835.445 60.04 833.111 62.24C830.845 64.44 829.711 67.8067 829.711 72.34V97.24H810.711V43.04H828.811V49.54ZM911.964 23.04V97.24H893.864V91.84C890.33 96.04 885.03 98.14 877.964 98.14C873.03 98.14 868.53 97.0067 864.464 94.74C860.397 92.4067 857.164 89.1067 854.764 84.84C852.43 80.5733 851.264 75.64 851.264 70.04C851.264 64.44 852.43 59.54 854.764 55.34C857.164 51.0733 860.397 47.8067 864.464 45.54C868.53 43.2733 873.03 42.14 877.964 42.14C884.43 42.14 889.43 44.0067 892.964 47.74V23.04H911.964ZM881.964 83.04C885.23 83.04 887.93 81.9067 890.064 79.64C892.197 77.3067 893.264 74.1067 893.264 70.04C893.264 66.04 892.197 62.9067 890.064 60.64C887.997 58.3733 885.297 57.24 881.964 57.24C878.63 57.24 875.897 58.3733 873.764 60.64C871.63 62.9067 870.564 66.04 870.564 70.04C870.564 74.1067 871.63 77.3067 873.764 79.64C875.897 81.9067 878.63 83.04 881.964 83.04Z" fill="black"/>
</svg>
