<svg width="672" height="123" viewBox="0 0 672 123" fill="none" xmlns="http://www.w3.org/2000/svg">
<path d="M353.616 56.6273L342.106 84.4783H332.034L320.575 56.6273L330.595 56.6273L337.275 72.9667L344.315 56.6273L353.616 56.6273Z" fill="#231F20"/>
<path d="M415.377 56.6273L403.867 84.4783H393.795L382.336 56.6273L392.356 56.6273L399.036 72.9667L406.076 56.6273L415.377 56.6273Z" fill="#231F20"/>
<path d="M289.659 84.4746L301.17 56.6236L311.241 56.6236L322.7 84.4746L312.68 84.4746L306 68.1352L298.96 84.4746L289.659 84.4746Z" fill="#231F20"/>
<path d="M351.421 84.4746L362.932 56.6236L373.003 56.6236L384.462 84.4746L374.442 84.4746L367.762 68.1352L360.722 84.4746L351.421 84.4746Z" fill="#231F20"/>
<path d="M65.8776 42.2801L42.928 97.8099H22.8471L0 42.2801H19.9784L33.2974 74.8578L47.3335 42.2801H65.8776Z" fill="#231F20"/>
<path d="M70.9098 42.2801H90.376V97.8099H70.9098V42.2801ZM80.6429 36.1329C77.0912 36.1329 74.2225 35.1425 72.0368 33.1618C69.8511 31.181 68.7583 28.7221 68.7583 25.7851C68.7583 22.8481 69.8511 20.3892 72.0368 18.4085C74.2225 16.4277 77.0912 15.4373 80.6429 15.4373C84.1946 15.4373 87.0633 16.3935 89.249 18.306C91.4346 20.1502 92.5275 22.5408 92.5275 25.4778C92.5275 28.5514 91.4346 31.1127 89.249 33.1618C87.0633 35.1425 84.1946 36.1329 80.6429 36.1329Z" fill="#231F20"/>
<path d="M175.359 41.358C182.189 41.358 187.619 43.4071 191.649 47.5052C195.747 51.6034 197.796 57.7847 197.796 66.0493V97.8099H178.33V69.2254C178.33 65.3321 177.579 62.4635 176.076 60.6193C174.642 58.7751 172.592 57.853 169.929 57.853C166.992 57.853 164.635 58.8776 162.859 60.9267C161.084 62.9757 160.196 66.0835 160.196 70.2499V97.8099H140.729V69.2254C140.729 61.6438 137.929 57.853 132.328 57.853C129.323 57.853 126.932 58.8776 125.157 60.9267C123.381 62.9757 122.493 66.0835 122.493 70.2499V97.8099H103.027V42.2801H121.571V48.12C123.62 45.866 126.044 44.1926 128.845 43.0997C131.714 41.9386 134.821 41.358 138.168 41.358C142.061 41.358 145.545 42.0752 148.618 43.5096C151.692 44.9439 154.185 47.1296 156.097 50.0666C158.283 47.2662 161.049 45.1147 164.396 43.612C167.743 42.1094 171.397 41.358 175.359 41.358Z" fill="#231F20"/>
<path d="M265.659 69.2254C265.659 69.362 265.557 70.9671 265.352 74.0407H224.985C225.805 76.9094 227.376 79.1292 229.698 80.7002C232.089 82.2028 235.06 82.9541 238.611 82.9541C241.275 82.9541 243.563 82.5785 245.476 81.8271C247.457 81.0758 249.437 79.8464 251.418 78.1388L261.663 88.794C256.268 94.8046 248.379 97.8099 237.997 97.8099C231.508 97.8099 225.805 96.5804 220.887 94.1216C215.969 91.6627 212.144 88.2476 209.412 83.8762C206.748 79.5049 205.417 74.5529 205.417 69.0205C205.417 63.5563 206.714 58.6727 209.31 54.3696C211.974 49.9983 215.628 46.5832 220.272 44.1243C224.917 41.6654 230.142 40.436 235.948 40.436C241.48 40.436 246.5 41.5971 251.008 43.9194C255.516 46.1733 259.068 49.486 261.663 53.8574C264.327 58.1604 265.659 63.2831 265.659 69.2254ZM236.05 54.2672C233.045 54.2672 230.518 55.1209 228.469 56.8285C226.488 58.5361 225.224 60.8583 224.678 63.7953H247.422C246.876 60.8583 245.578 58.5361 243.529 56.8285C241.548 55.1209 239.055 54.2672 236.05 54.2672Z" fill="#231F20"/>
<path d="M473.177 98.7099C467.177 98.7099 461.81 97.5099 457.077 95.1099C452.344 92.7099 448.644 89.3765 445.977 85.1099C443.377 80.8432 442.077 76.0099 442.077 70.6099C442.077 65.2099 443.377 60.4099 445.977 56.2099C448.644 51.9432 452.344 48.6432 457.077 46.3099C461.81 43.9099 467.177 42.7099 473.177 42.7099C479.31 42.7099 484.61 44.0432 489.077 46.7099C493.544 49.3099 496.71 52.9432 498.577 57.6099L483.877 65.1099C481.41 60.2432 477.81 57.8099 473.077 57.8099C469.677 57.8099 466.844 58.9432 464.577 61.2099C462.377 63.4765 461.277 66.6099 461.277 70.6099C461.277 74.6765 462.377 77.8765 464.577 80.2099C466.844 82.4765 469.677 83.6099 473.077 83.6099C477.81 83.6099 481.41 81.1765 483.877 76.3099L498.577 83.8099C496.71 88.4765 493.544 92.1432 489.077 94.8099C484.61 97.4099 479.31 98.7099 473.177 98.7099ZM532.345 98.7099C526.545 98.7099 521.312 97.5099 516.645 95.1099C511.978 92.7099 508.312 89.3765 505.645 85.1099C503.045 80.8432 501.745 76.0099 501.745 70.6099C501.745 65.2765 503.045 60.4765 505.645 56.2099C508.312 51.9432 511.945 48.6432 516.545 46.3099C521.212 43.9099 526.478 42.7099 532.345 42.7099C538.212 42.7099 543.478 43.9099 548.145 46.3099C552.812 48.6432 556.445 51.9432 559.045 56.2099C561.645 60.4099 562.945 65.2099 562.945 70.6099C562.945 76.0099 561.645 80.8432 559.045 85.1099C556.445 89.3765 552.812 92.7099 548.145 95.1099C543.478 97.5099 538.212 98.7099 532.345 98.7099ZM532.345 83.6099C535.678 83.6099 538.412 82.4765 540.545 80.2099C542.678 77.8765 543.745 74.6765 543.745 70.6099C543.745 66.6099 542.678 63.4765 540.545 61.2099C538.412 58.9432 535.678 57.8099 532.345 57.8099C529.012 57.8099 526.278 58.9432 524.145 61.2099C522.012 63.4765 520.945 66.6099 520.945 70.6099C520.945 74.6765 522.012 77.8765 524.145 80.2099C526.278 82.4765 529.012 83.6099 532.345 83.6099ZM589.847 50.1099C591.78 47.6432 594.28 45.8099 597.347 44.6099C600.48 43.3432 604.047 42.7099 608.047 42.7099V59.8099C606.313 59.6099 604.88 59.5099 603.747 59.5099C599.68 59.5099 596.48 60.6099 594.147 62.8099C591.88 65.0099 590.747 68.3765 590.747 72.9099V97.8099H571.747V43.6099H589.847V50.1099ZM670.799 70.8099C670.799 70.9432 670.699 72.5099 670.499 75.5099H631.099C631.899 78.3099 633.432 80.4765 635.699 82.0099C638.032 83.4765 640.932 84.2099 644.399 84.2099C646.999 84.2099 649.232 83.8432 651.099 83.1099C653.032 82.3765 654.966 81.1765 656.899 79.5099L666.899 89.9099C661.632 95.7765 653.932 98.7099 643.799 98.7099C637.466 98.7099 631.899 97.5099 627.099 95.1099C622.299 92.7099 618.566 89.3765 615.899 85.1099C613.299 80.8432 611.999 76.0099 611.999 70.6099C611.999 65.2765 613.266 60.5099 615.799 56.3099C618.399 52.0432 621.966 48.7099 626.499 46.3099C631.032 43.9099 636.132 42.7099 641.799 42.7099C647.199 42.7099 652.099 43.8432 656.499 46.1099C660.899 48.3099 664.366 51.5432 666.899 55.8099C669.499 60.0099 670.799 65.0099 670.799 70.8099ZM641.899 56.2099C638.966 56.2099 636.499 57.0432 634.499 58.7099C632.566 60.3765 631.332 62.6432 630.799 65.5099H652.999C652.466 62.6432 651.199 60.3765 649.199 58.7099C647.266 57.0432 644.832 56.2099 641.899 56.2099Z" fill="black"/>
</svg>
