<svg width="945" height="123" viewBox="0 0 945 123" fill="none" xmlns="http://www.w3.org/2000/svg">
<path d="M354.493 56.0574L342.983 83.9084H332.911L321.452 56.0574L331.472 56.0574L338.152 72.3968L345.192 56.0574L354.493 56.0574Z" fill="white"/>
<path d="M416.254 56.0574L404.744 83.9084H394.672L383.213 56.0574L393.233 56.0574L399.913 72.3968L406.953 56.0574L416.254 56.0574Z" fill="white"/>
<path d="M290.536 83.9048L302.047 56.0538L312.118 56.0538L323.577 83.9048L313.557 83.9048L306.877 67.5654L299.837 83.9048L290.536 83.9048Z" fill="white"/>
<path d="M352.298 83.9048L363.809 56.0538L373.88 56.0538L385.339 83.9048L375.319 83.9048L368.639 67.5654L361.599 83.9048L352.298 83.9048Z" fill="white"/>
<path d="M66.7545 41.7102L43.805 97.24H23.7241L0.876953 41.7102H20.8554L34.1743 74.2879L48.2105 41.7102H66.7545Z" fill="white"/>
<path d="M71.7868 41.7102H91.2529V97.24H71.7868V41.7102ZM81.5198 35.563C77.9681 35.563 75.0994 34.5726 72.9138 32.5919C70.7281 30.6111 69.6352 28.1522 69.6352 25.2152C69.6352 22.2782 70.7281 19.8193 72.9138 17.8386C75.0994 15.8578 77.9681 14.8674 81.5198 14.8674C85.0716 14.8674 87.9403 15.8237 90.1259 17.7361C92.3116 19.5803 93.4044 21.9709 93.4044 24.9079C93.4044 27.9815 92.3116 30.5428 90.1259 32.5919C87.9403 34.5726 85.0716 35.563 81.5198 35.563Z" fill="white"/>
<path d="M176.236 40.7882C183.066 40.7882 188.496 42.8372 192.526 46.9354C196.624 51.0335 198.673 57.2149 198.673 65.4794V97.24H179.207V68.6555C179.207 64.7623 178.455 61.8936 176.953 60.0494C175.518 58.2052 173.469 57.2832 170.806 57.2832C167.869 57.2832 165.512 58.3077 163.736 60.3568C161.96 62.4058 161.073 65.5136 161.073 69.68V97.24H141.606V68.6555C141.606 61.0739 138.806 57.2832 133.205 57.2832C130.2 57.2832 127.809 58.3077 126.033 60.3568C124.258 62.4058 123.37 65.5136 123.37 69.68V97.24H103.904V41.7102H122.448V47.5501C124.497 45.2961 126.921 43.6227 129.722 42.5299C132.59 41.3687 135.698 40.7882 139.045 40.7882C142.938 40.7882 146.422 41.5053 149.495 42.9397C152.569 44.374 155.062 46.5597 156.974 49.4967C159.16 46.6963 161.926 44.5448 165.273 43.0421C168.62 41.5395 172.274 40.7882 176.236 40.7882Z" fill="white"/>
<path d="M266.536 68.6555C266.536 68.7921 266.434 70.3972 266.229 73.4708H225.862C226.682 76.3395 228.253 78.5593 230.575 80.1303C232.965 81.6329 235.937 82.3843 239.488 82.3843C242.152 82.3843 244.44 82.0086 246.353 81.2573C248.334 80.5059 250.314 79.2765 252.295 77.5689L262.54 88.2241C257.145 94.2347 249.256 97.24 238.874 97.24C232.385 97.24 226.682 96.0106 221.764 93.5517C216.846 91.0928 213.021 87.6777 210.289 83.3063C207.625 78.935 206.293 73.9831 206.293 68.4506C206.293 62.9864 207.591 58.1028 210.187 53.7997C212.85 49.4284 216.505 46.0133 221.149 43.5544C225.794 41.0955 231.019 39.8661 236.825 39.8661C242.357 39.8661 247.377 41.0272 251.885 43.3495C256.393 45.6035 259.945 48.9161 262.54 53.2875C265.204 57.5905 266.536 62.7132 266.536 68.6555ZM236.927 53.6973C233.922 53.6973 231.395 54.5511 229.345 56.2586C227.365 57.9662 226.101 60.2885 225.555 63.2255H248.299C247.753 60.2885 246.455 57.9662 244.406 56.2586C242.425 54.5511 239.932 53.6973 236.927 53.6973Z" fill="white"/>
<path d="M474.054 98.14C468.054 98.14 462.687 96.94 457.954 94.54C453.221 92.14 449.521 88.8067 446.854 84.54C444.254 80.2733 442.954 75.44 442.954 70.04C442.954 64.64 444.254 59.84 446.854 55.64C449.521 51.3733 453.221 48.0733 457.954 45.74C462.687 43.34 468.054 42.14 474.054 42.14C480.187 42.14 485.487 43.4733 489.954 46.14C494.421 48.74 497.587 52.3733 499.454 57.04L484.754 64.54C482.287 59.6733 478.687 57.24 473.954 57.24C470.554 57.24 467.721 58.3733 465.454 60.64C463.254 62.9067 462.154 66.04 462.154 70.04C462.154 74.1067 463.254 77.3067 465.454 79.64C467.721 81.9067 470.554 83.04 473.954 83.04C478.687 83.04 482.287 80.6067 484.754 75.74L499.454 83.24C497.587 87.9067 494.421 91.5733 489.954 94.24C485.487 96.84 480.187 98.14 474.054 98.14ZM533.222 98.14C527.422 98.14 522.189 96.94 517.522 94.54C512.855 92.14 509.189 88.8067 506.522 84.54C503.922 80.2733 502.622 75.44 502.622 70.04C502.622 64.7067 503.922 59.9067 506.522 55.64C509.189 51.3733 512.822 48.0733 517.422 45.74C522.089 43.34 527.355 42.14 533.222 42.14C539.089 42.14 544.355 43.34 549.022 45.74C553.689 48.0733 557.322 51.3733 559.922 55.64C562.522 59.84 563.822 64.64 563.822 70.04C563.822 75.44 562.522 80.2733 559.922 84.54C557.322 88.8067 553.689 92.14 549.022 94.54C544.355 96.94 539.089 98.14 533.222 98.14ZM533.222 83.04C536.555 83.04 539.289 81.9067 541.422 79.64C543.555 77.3067 544.622 74.1067 544.622 70.04C544.622 66.04 543.555 62.9067 541.422 60.64C539.289 58.3733 536.555 57.24 533.222 57.24C529.889 57.24 527.155 58.3733 525.022 60.64C522.889 62.9067 521.822 66.04 521.822 70.04C521.822 74.1067 522.889 77.3067 525.022 79.64C527.155 81.9067 529.889 83.04 533.222 83.04ZM643.223 42.14C649.89 42.14 655.19 44.14 659.123 48.14C663.123 52.14 665.123 58.1733 665.123 66.24V97.24H646.123V69.34C646.123 65.54 645.39 62.74 643.923 60.94C642.523 59.14 640.523 58.24 637.923 58.24C635.057 58.24 632.757 59.24 631.023 61.24C629.29 63.24 628.423 66.2733 628.423 70.34V97.24H609.423V69.34C609.423 61.94 606.69 58.24 601.223 58.24C598.29 58.24 595.957 59.24 594.223 61.24C592.49 63.24 591.623 66.2733 591.623 70.34V97.24H572.623V43.04H590.723V48.74C592.723 46.54 595.09 44.9067 597.823 43.84C600.623 42.7067 603.657 42.14 606.923 42.14C610.723 42.14 614.123 42.84 617.123 44.24C620.123 45.64 622.557 47.7733 624.423 50.64C626.557 47.9067 629.257 45.8067 632.523 44.34C635.79 42.8733 639.357 42.14 643.223 42.14ZM711.216 42.14C716.149 42.14 720.616 43.3067 724.616 45.64C728.682 47.9067 731.882 51.1733 734.216 55.44C736.616 59.64 737.816 64.54 737.816 70.14C737.816 75.74 736.616 80.6733 734.216 84.94C731.882 89.14 728.682 92.4067 724.616 94.74C720.616 97.0067 716.149 98.14 711.216 98.14C704.882 98.14 699.849 96.24 696.116 92.44V116.64H677.116V43.04H695.216V48.44C698.749 44.24 704.082 42.14 711.216 42.14ZM707.216 83.04C710.549 83.04 713.282 81.9067 715.416 79.64C717.549 77.3067 718.616 74.14 718.616 70.14C718.616 66.14 717.549 63.0067 715.416 60.74C713.282 58.4067 710.549 57.24 707.216 57.24C703.882 57.24 701.149 58.4067 699.016 60.74C696.882 63.0067 695.816 66.14 695.816 70.14C695.816 74.14 696.882 77.3067 699.016 79.64C701.149 81.9067 703.882 83.04 707.216 83.04ZM746.647 23.04H765.647V97.24H746.647V23.04ZM833.395 70.24C833.395 70.3733 833.295 71.94 833.095 74.94H793.695C794.495 77.74 796.028 79.9067 798.295 81.44C800.628 82.9067 803.528 83.64 806.995 83.64C809.595 83.64 811.828 83.2733 813.695 82.54C815.628 81.8067 817.561 80.6067 819.495 78.94L829.495 89.34C824.228 95.2067 816.528 98.14 806.395 98.14C800.061 98.14 794.495 96.94 789.695 94.54C784.895 92.14 781.161 88.8067 778.495 84.54C775.895 80.2733 774.595 75.44 774.595 70.04C774.595 64.7067 775.861 59.94 778.395 55.74C780.995 51.4733 784.561 48.14 789.095 45.74C793.628 43.34 798.728 42.14 804.395 42.14C809.795 42.14 814.695 43.2733 819.095 45.54C823.495 47.74 826.961 50.9733 829.495 55.24C832.095 59.44 833.395 64.44 833.395 70.24ZM804.495 55.64C801.561 55.64 799.095 56.4733 797.095 58.14C795.161 59.8067 793.928 62.0733 793.395 64.94H815.595C815.061 62.0733 813.795 59.8067 811.795 58.14C809.861 56.4733 807.428 55.64 804.495 55.64ZM879.555 95.04C877.955 96.04 875.988 96.8067 873.655 97.34C871.388 97.8733 868.955 98.14 866.355 98.14C859.288 98.14 853.855 96.4067 850.055 92.94C846.255 89.4733 844.355 84.3067 844.355 77.44V59.24H836.455V45.04H844.355V30.94H863.355V45.04H875.755V59.24H863.355V77.24C863.355 79.1733 863.855 80.7067 864.855 81.84C865.921 82.9067 867.321 83.44 869.055 83.44C871.255 83.44 873.188 82.8733 874.855 81.74L879.555 95.04ZM940.719 70.24C940.719 70.3733 940.619 71.94 940.419 74.94H901.019C901.819 77.74 903.352 79.9067 905.619 81.44C907.952 82.9067 910.852 83.64 914.319 83.64C916.919 83.64 919.152 83.2733 921.019 82.54C922.952 81.8067 924.885 80.6067 926.819 78.94L936.819 89.34C931.552 95.2067 923.852 98.14 913.719 98.14C907.385 98.14 901.819 96.94 897.019 94.54C892.219 92.14 888.485 88.8067 885.819 84.54C883.219 80.2733 881.919 75.44 881.919 70.04C881.919 64.7067 883.185 59.94 885.719 55.74C888.319 51.4733 891.885 48.14 896.419 45.74C900.952 43.34 906.052 42.14 911.719 42.14C917.119 42.14 922.019 43.2733 926.419 45.54C930.819 47.74 934.285 50.9733 936.819 55.24C939.419 59.44 940.719 64.44 940.719 70.24ZM911.819 55.64C908.885 55.64 906.419 56.4733 904.419 58.14C902.485 59.8067 901.252 62.0733 900.719 64.94H922.919C922.385 62.0733 921.119 59.8067 919.119 58.14C917.185 56.4733 914.752 55.64 911.819 55.64Z" fill="white"/>
</svg>
