<svg width="869" height="123" viewBox="0 0 869 123" fill="none" xmlns="http://www.w3.org/2000/svg">
<path d="M353.616 56.6272L342.106 84.4782H332.034L320.575 56.6272L330.595 56.6272L337.275 72.9666L344.315 56.6272L353.616 56.6272Z" fill="#231F20"/>
<path d="M415.377 56.6272L403.867 84.4782H393.795L382.336 56.6272L392.356 56.6272L399.036 72.9666L406.076 56.6272L415.377 56.6272Z" fill="#231F20"/>
<path d="M289.659 84.4746L301.17 56.6236L311.241 56.6236L322.7 84.4746L312.68 84.4746L306 68.1352L298.96 84.4746L289.659 84.4746Z" fill="#231F20"/>
<path d="M351.421 84.4746L362.932 56.6236L373.003 56.6236L384.462 84.4746L374.442 84.4746L367.762 68.1352L360.722 84.4746L351.421 84.4746Z" fill="#231F20"/>
<path d="M65.8776 42.2801L42.928 97.8099H22.8471L0 42.2801H19.9784L33.2974 74.8578L47.3335 42.2801H65.8776Z" fill="#231F20"/>
<path d="M70.9098 42.2801H90.376V97.8099H70.9098V42.2801ZM80.6429 36.1329C77.0912 36.1329 74.2225 35.1425 72.0368 33.1618C69.8511 31.181 68.7583 28.7221 68.7583 25.7851C68.7583 22.8481 69.8511 20.3892 72.0368 18.4085C74.2225 16.4277 77.0912 15.4373 80.6429 15.4373C84.1946 15.4373 87.0633 16.3935 89.249 18.306C91.4346 20.1502 92.5275 22.5408 92.5275 25.4778C92.5275 28.5514 91.4346 31.1127 89.249 33.1618C87.0633 35.1425 84.1946 36.1329 80.6429 36.1329Z" fill="#231F20"/>
<path d="M175.359 41.358C182.189 41.358 187.619 43.4071 191.649 47.5052C195.747 51.6034 197.796 57.7847 197.796 66.0493V97.8099H178.33V69.2254C178.33 65.3321 177.579 62.4635 176.076 60.6193C174.642 58.7751 172.592 57.853 169.929 57.853C166.992 57.853 164.635 58.8776 162.859 60.9267C161.084 62.9757 160.196 66.0835 160.196 70.2499V97.8099H140.729V69.2254C140.729 61.6438 137.929 57.853 132.328 57.853C129.323 57.853 126.932 58.8776 125.157 60.9267C123.381 62.9757 122.493 66.0835 122.493 70.2499V97.8099H103.027V42.2801H121.571V48.12C123.62 45.866 126.044 44.1926 128.845 43.0997C131.714 41.9386 134.821 41.358 138.168 41.358C142.061 41.358 145.545 42.0752 148.618 43.5096C151.692 44.9439 154.185 47.1296 156.097 50.0666C158.283 47.2662 161.049 45.1147 164.396 43.612C167.743 42.1094 171.397 41.358 175.359 41.358Z" fill="#231F20"/>
<path d="M265.659 69.2254C265.659 69.362 265.557 70.9671 265.352 74.0407H224.985C225.805 76.9094 227.376 79.1292 229.698 80.7002C232.089 82.2028 235.06 82.9541 238.611 82.9541C241.275 82.9541 243.563 82.5785 245.476 81.8271C247.457 81.0758 249.437 79.8464 251.418 78.1388L261.663 88.794C256.268 94.8046 248.379 97.8099 237.997 97.8099C231.508 97.8099 225.805 96.5804 220.887 94.1216C215.969 91.6627 212.144 88.2476 209.412 83.8762C206.748 79.5049 205.417 74.5529 205.417 69.0205C205.417 63.5563 206.714 58.6727 209.31 54.3696C211.974 49.9983 215.628 46.5832 220.272 44.1243C224.917 41.6654 230.142 40.436 235.948 40.436C241.48 40.436 246.5 41.5971 251.008 43.9194C255.516 46.1733 259.068 49.486 261.663 53.8574C264.327 58.1604 265.659 63.2831 265.659 69.2254ZM236.05 54.2672C233.045 54.2672 230.518 55.1209 228.469 56.8285C226.488 58.5361 225.224 60.8583 224.678 63.7953H247.422C246.876 60.8583 245.578 58.5361 243.529 56.8285C241.548 55.1209 239.055 54.2672 236.05 54.2672Z" fill="#231F20"/>
<path d="M479.577 42.7099C484.51 42.7099 488.977 43.8765 492.977 46.2099C497.044 48.4765 500.244 51.7432 502.577 56.0099C504.977 60.2099 506.177 65.1099 506.177 70.7099C506.177 76.3099 504.977 81.2432 502.577 85.5099C500.244 89.7099 497.044 92.9765 492.977 95.3099C488.977 97.5765 484.51 98.7099 479.577 98.7099C473.244 98.7099 468.21 96.8099 464.477 93.0099V117.21H445.477V43.6099H463.577V49.0099C467.11 44.8099 472.444 42.7099 479.577 42.7099ZM475.577 83.6099C478.91 83.6099 481.644 82.4765 483.777 80.2099C485.91 77.8765 486.977 74.7099 486.977 70.7099C486.977 66.7099 485.91 63.5765 483.777 61.3099C481.644 58.9765 478.91 57.8099 475.577 57.8099C472.244 57.8099 469.51 58.9765 467.377 61.3099C465.244 63.5765 464.177 66.7099 464.177 70.7099C464.177 74.7099 465.244 77.8765 467.377 80.2099C469.51 82.4765 472.244 83.6099 475.577 83.6099ZM533.108 50.1099C535.042 47.6432 537.542 45.8099 540.608 44.6099C543.742 43.3432 547.308 42.7099 551.308 42.7099V59.8099C549.575 59.6099 548.142 59.5099 547.008 59.5099C542.942 59.5099 539.742 60.6099 537.408 62.8099C535.142 65.0099 534.008 68.3765 534.008 72.9099V97.8099H515.008V43.6099H533.108V50.1099ZM614.061 70.8099C614.061 70.9432 613.961 72.5099 613.761 75.5099H574.361C575.161 78.3099 576.694 80.4765 578.961 82.0099C581.294 83.4765 584.194 84.2099 587.661 84.2099C590.261 84.2099 592.494 83.8432 594.361 83.1099C596.294 82.3765 598.227 81.1765 600.161 79.5099L610.161 89.9099C604.894 95.7765 597.194 98.7099 587.061 98.7099C580.727 98.7099 575.161 97.5099 570.361 95.1099C565.561 92.7099 561.827 89.3765 559.161 85.1099C556.561 80.8432 555.261 76.0099 555.261 70.6099C555.261 65.2765 556.527 60.5099 559.061 56.3099C561.661 52.0432 565.227 48.7099 569.761 46.3099C574.294 43.9099 579.394 42.7099 585.061 42.7099C590.461 42.7099 595.361 43.8432 599.761 46.1099C604.161 48.3099 607.627 51.5432 610.161 55.8099C612.761 60.0099 614.061 65.0099 614.061 70.8099ZM585.161 56.2099C582.227 56.2099 579.761 57.0432 577.761 58.7099C575.827 60.3765 574.594 62.6432 574.061 65.5099H596.261C595.727 62.6432 594.461 60.3765 592.461 58.7099C590.527 57.0432 588.094 56.2099 585.161 56.2099ZM678.944 43.6099L656.544 97.8099H636.944L614.644 43.6099H634.144L647.144 76.7099L660.844 43.6099H678.944ZM683.856 43.6099H702.856V97.8099H683.856V43.6099ZM693.356 37.6099C689.889 37.6099 687.089 36.6432 684.956 34.7099C682.823 32.7765 681.756 30.3765 681.756 27.5099C681.756 24.6432 682.823 22.2432 684.956 20.3099C687.089 18.3765 689.889 17.4099 693.356 17.4099C696.823 17.4099 699.623 18.3432 701.756 20.2099C703.889 22.0099 704.956 24.3432 704.956 27.2099C704.956 30.2099 703.889 32.7099 701.756 34.7099C699.623 36.6432 696.823 37.6099 693.356 37.6099ZM770.604 70.8099C770.604 70.9432 770.504 72.5099 770.304 75.5099H730.904C731.704 78.3099 733.237 80.4765 735.504 82.0099C737.837 83.4765 740.737 84.2099 744.204 84.2099C746.804 84.2099 749.037 83.8432 750.904 83.1099C752.837 82.3765 754.77 81.1765 756.704 79.5099L766.704 89.9099C761.437 95.7765 753.737 98.7099 743.604 98.7099C737.27 98.7099 731.704 97.5099 726.904 95.1099C722.104 92.7099 718.37 89.3765 715.704 85.1099C713.104 80.8432 711.804 76.0099 711.804 70.6099C711.804 65.2765 713.07 60.5099 715.604 56.3099C718.204 52.0432 721.77 48.7099 726.304 46.3099C730.837 43.9099 735.937 42.7099 741.604 42.7099C747.004 42.7099 751.904 43.8432 756.304 46.1099C760.704 48.3099 764.17 51.5432 766.704 55.8099C769.304 60.0099 770.604 65.0099 770.604 70.8099ZM741.704 56.2099C738.77 56.2099 736.304 57.0432 734.304 58.7099C732.37 60.3765 731.137 62.6432 730.604 65.5099H752.804C752.27 62.6432 751.004 60.3765 749.004 58.7099C747.07 57.0432 744.637 56.2099 741.704 56.2099ZM868.187 43.6099L848.887 97.8099H830.487L820.287 68.3099L809.687 97.8099H791.287L771.987 43.6099H789.987L801.087 76.4099L812.587 43.6099H828.787L839.987 76.7099L851.487 43.6099H868.187Z" fill="black"/>
</svg>
