<svg width="551" height="148" viewBox="0 0 551 148" fill="none" xmlns="http://www.w3.org/2000/svg">
<path d="M455.43 0.49295H462.095V7.06412H468.197V0.49295H474.862V20.4255H468.197V13.7604H462.095V20.4255H455.43V0.49295Z" fill="#231F20"/>
<path d="M483.623 7.09538H477.74V0.49292H496.14V7.09538H490.257V20.4255H483.592L483.623 7.09538Z" fill="#231F20"/>
<path d="M499.081 0.49292H506.028L510.315 7.50216L514.57 0.49292H521.517V20.4255H514.883V10.5374L510.283 17.6405H510.158L505.59 10.5374V20.4255H499.081V0.49292Z" fill="#231F20"/>
<path d="M524.834 0.49292H531.499V13.8543H540.886V20.4567H524.834V0.49292Z" fill="#231F20"/>
<path d="M480.869 77.5946H498.174V64.1706H479.649L480.869 77.5946ZM445.823 29.187L455.367 136.109L498.174 148L541.011 136.141L550.555 29.187C550.524 29.187 445.823 29.187 445.823 29.187ZM532.813 129.319L498.174 138.925V125.314H498.142L471.294 117.835L469.417 96.7761H482.59L483.561 107.697L498.174 111.639H498.205V90.6743H468.854L465.318 51.0283H498.174V37.9172H540.98L532.813 129.319Z" fill="#231F20"/>
<path opacity="0.8" d="M514.32 90.7056H498.174V111.671L512.787 107.728L514.32 90.7056ZM498.174 37.9172V51.0283H531.029L529.84 64.1393H498.174V77.5633H528.651L525.053 117.835L498.174 125.282V138.894L532.813 129.319L540.98 37.9172H498.174Z" fill="#231F20"/>
<g opacity="0.2">
<path opacity="0.2" d="M498.174 51.0283H465.318L468.854 90.7056H498.174V77.5946H480.87L479.649 64.1393H498.174V51.0283Z" fill="#231F20"/>
<path opacity="0.2" d="M498.174 111.671L483.561 107.728L482.59 96.7762H469.417L471.294 117.835L498.142 125.314H498.174V111.671Z" fill="#231F20"/>
</g>
<path d="M355.741 76.782L344.231 104.633H334.159L322.7 76.782L332.72 76.782L339.401 93.1213L346.44 76.782L355.741 76.782Z" fill="#231F20"/>
<path d="M421.823 76.782L410.313 104.633H400.241L388.782 76.782L398.802 76.782L405.483 93.1213L412.522 76.782L421.823 76.782Z" fill="#231F20"/>
<path d="M289.659 104.629L301.17 76.7782L311.241 76.7782L322.7 104.629L312.68 104.629L306 88.2899L298.96 104.629L289.659 104.629Z" fill="#231F20"/>
<path d="M355.741 104.629L367.252 76.7782L377.323 76.7782L388.782 104.629L378.762 104.629L372.082 88.2899L365.042 104.629L355.741 104.629Z" fill="#231F20"/>
<path d="M65.8776 59.6565L42.928 115.186H22.8471L0 59.6565H19.9784L33.2974 92.2342L47.3335 59.6565H65.8776Z" fill="#231F20"/>
<path d="M70.9098 59.6565H90.376V115.186H70.9098V59.6565ZM80.6429 53.5093C77.0912 53.5093 74.2225 52.5189 72.0368 50.5382C69.8511 48.5574 68.7583 46.0985 68.7583 43.1615C68.7583 40.2245 69.8511 37.7656 72.0368 35.7849C74.2225 33.8041 77.0912 32.8137 80.6429 32.8137C84.1946 32.8137 87.0633 33.77 89.249 35.6824C91.4346 37.5266 92.5275 39.9172 92.5275 42.8542C92.5275 45.9278 91.4346 48.4891 89.249 50.5382C87.0633 52.5189 84.1946 53.5093 80.6429 53.5093Z" fill="#231F20"/>
<path d="M175.359 58.7344C182.189 58.7344 187.619 60.7835 191.649 64.8816C195.747 68.9798 197.796 75.1611 197.796 83.4257V115.186H178.33V86.6018C178.33 82.7085 177.579 79.8399 176.076 77.9957C174.642 76.1515 172.592 75.2294 169.929 75.2294C166.992 75.2294 164.635 76.254 162.859 78.3031C161.084 80.3521 160.196 83.4599 160.196 87.6263V115.186H140.729V86.6018C140.729 79.0202 137.929 75.2294 132.328 75.2294C129.323 75.2294 126.932 76.254 125.157 78.3031C123.381 80.3521 122.493 83.4599 122.493 87.6263V115.186H103.027V59.6565H121.571V65.4964C123.62 63.2424 126.044 61.569 128.845 60.4762C131.714 59.315 134.821 58.7344 138.168 58.7344C142.061 58.7344 145.545 59.4516 148.618 60.886C151.692 62.3203 154.185 64.506 156.097 67.443C158.283 64.6426 161.049 62.4911 164.396 60.9884C167.743 59.4858 171.397 58.7344 175.359 58.7344Z" fill="#231F20"/>
<path d="M265.659 86.6018C265.659 86.7384 265.557 88.3435 265.352 91.4171H224.985C225.805 94.2858 227.376 96.5056 229.698 98.0766C232.089 99.5792 235.06 100.331 238.611 100.331C241.275 100.331 243.563 99.9549 245.476 99.2036C247.457 98.4522 249.437 97.2228 251.418 95.5152L261.663 106.17C256.268 112.181 248.379 115.186 237.997 115.186C231.508 115.186 225.805 113.957 220.887 111.498C215.969 109.039 212.144 105.624 209.412 101.253C206.748 96.8813 205.417 91.9294 205.417 86.3969C205.417 80.9327 206.714 76.0491 209.31 71.746C211.974 67.3747 215.628 63.9596 220.272 61.5007C224.917 59.0418 230.142 57.8124 235.948 57.8124C241.48 57.8124 246.5 58.9735 251.008 61.2958C255.516 63.5497 259.068 66.8624 261.663 71.2338C264.327 75.5368 265.659 80.6595 265.659 86.6018ZM236.05 71.6436C233.045 71.6436 230.518 72.4974 228.469 74.2049C226.488 75.9125 225.224 78.2347 224.678 81.1717H247.422C246.876 78.2347 245.578 75.9125 243.529 74.2049C241.548 72.4974 239.055 71.6436 236.05 71.6436Z" fill="#231F20"/>
</svg>
