<svg width="920" height="123" viewBox="0 0 920 123" fill="none" xmlns="http://www.w3.org/2000/svg">
<path d="M354.493 56.0574L342.983 83.9084H332.911L321.452 56.0574L331.472 56.0574L338.152 72.3968L345.192 56.0574L354.493 56.0574Z" fill="white"/>
<path d="M416.254 56.0574L404.744 83.9084H394.672L383.213 56.0574L393.233 56.0574L399.913 72.3968L406.953 56.0574L416.254 56.0574Z" fill="white"/>
<path d="M290.536 83.9048L302.047 56.0538L312.118 56.0538L323.577 83.9048L313.557 83.9048L306.877 67.5654L299.837 83.9048L290.536 83.9048Z" fill="white"/>
<path d="M352.298 83.9048L363.809 56.0538L373.88 56.0538L385.339 83.9048L375.319 83.9048L368.639 67.5654L361.599 83.9048L352.298 83.9048Z" fill="white"/>
<path d="M66.7545 41.7102L43.805 97.24H23.7241L0.876953 41.7102H20.8554L34.1743 74.2879L48.2105 41.7102H66.7545Z" fill="white"/>
<path d="M71.7868 41.7102H91.2529V97.24H71.7868V41.7102ZM81.5198 35.563C77.9681 35.563 75.0994 34.5726 72.9138 32.5919C70.7281 30.6111 69.6352 28.1522 69.6352 25.2152C69.6352 22.2782 70.7281 19.8193 72.9138 17.8386C75.0994 15.8578 77.9681 14.8674 81.5198 14.8674C85.0716 14.8674 87.9403 15.8237 90.1259 17.7361C92.3116 19.5803 93.4044 21.9709 93.4044 24.9079C93.4044 27.9815 92.3116 30.5428 90.1259 32.5919C87.9403 34.5726 85.0716 35.563 81.5198 35.563Z" fill="white"/>
<path d="M176.236 40.7882C183.066 40.7882 188.496 42.8372 192.526 46.9354C196.624 51.0335 198.673 57.2149 198.673 65.4794V97.24H179.207V68.6555C179.207 64.7623 178.455 61.8936 176.953 60.0494C175.518 58.2052 173.469 57.2832 170.806 57.2832C167.869 57.2832 165.512 58.3077 163.736 60.3568C161.96 62.4058 161.073 65.5136 161.073 69.68V97.24H141.606V68.6555C141.606 61.0739 138.806 57.2832 133.205 57.2832C130.2 57.2832 127.809 58.3077 126.033 60.3568C124.258 62.4058 123.37 65.5136 123.37 69.68V97.24H103.904V41.7102H122.448V47.5501C124.497 45.2961 126.921 43.6227 129.722 42.5299C132.59 41.3687 135.698 40.7882 139.045 40.7882C142.938 40.7882 146.422 41.5053 149.495 42.9397C152.569 44.374 155.062 46.5597 156.974 49.4967C159.16 46.6963 161.926 44.5448 165.273 43.0421C168.62 41.5395 172.274 40.7882 176.236 40.7882Z" fill="white"/>
<path d="M266.536 68.6555C266.536 68.7921 266.434 70.3972 266.229 73.4708H225.862C226.682 76.3395 228.253 78.5593 230.575 80.1303C232.965 81.6329 235.937 82.3843 239.488 82.3843C242.152 82.3843 244.44 82.0086 246.353 81.2573C248.334 80.5059 250.314 79.2765 252.295 77.5689L262.54 88.2241C257.145 94.2347 249.256 97.24 238.874 97.24C232.385 97.24 226.682 96.0106 221.764 93.5517C216.846 91.0928 213.021 87.6777 210.289 83.3063C207.625 78.935 206.293 73.9831 206.293 68.4506C206.293 62.9864 207.591 58.1028 210.187 53.7997C212.85 49.4284 216.505 46.0133 221.149 43.5544C225.794 41.0955 231.019 39.8661 236.825 39.8661C242.357 39.8661 247.377 41.0272 251.885 43.3495C256.393 45.6035 259.945 48.9161 262.54 53.2875C265.204 57.5905 266.536 62.7132 266.536 68.6555ZM236.927 53.6973C233.922 53.6973 231.395 54.5511 229.345 56.2586C227.365 57.9662 226.101 60.2885 225.555 63.2255H248.299C247.753 60.2885 246.455 57.9662 244.406 56.2586C242.425 54.5511 239.932 53.6973 236.927 53.6973Z" fill="white"/>
<path d="M466.054 98.14C461.521 98.14 457.054 97.64 452.654 96.64C448.254 95.5733 444.721 94.2067 442.054 92.54L447.754 79.54C450.221 81.0733 453.154 82.3067 456.554 83.24C459.954 84.1067 463.321 84.54 466.654 84.54C469.721 84.54 471.887 84.24 473.154 83.64C474.487 82.9733 475.154 82.04 475.154 80.84C475.154 79.64 474.354 78.8067 472.754 78.34C471.221 77.8067 468.754 77.3067 465.354 76.84C461.021 76.3067 457.321 75.6067 454.254 74.74C451.254 73.8733 448.654 72.2733 446.454 69.94C444.254 67.6067 443.154 64.34 443.154 60.14C443.154 56.6733 444.187 53.6067 446.254 50.94C448.321 48.2067 451.321 46.0733 455.254 44.54C459.254 42.94 464.021 42.14 469.554 42.14C473.487 42.14 477.387 42.54 481.254 43.34C485.121 44.14 488.354 45.2733 490.954 46.74L485.254 59.64C480.454 56.9733 475.254 55.64 469.654 55.64C466.654 55.64 464.454 56.0067 463.054 56.74C461.654 57.4067 460.954 58.3067 460.954 59.44C460.954 60.7067 461.721 61.6067 463.254 62.14C464.787 62.6067 467.321 63.1067 470.854 63.64C475.321 64.3067 479.021 65.0733 481.954 65.94C484.887 66.8067 487.421 68.4067 489.554 70.74C491.754 73.0067 492.854 76.2067 492.854 80.34C492.854 83.74 491.821 86.8067 489.754 89.54C487.687 92.2067 484.621 94.3067 480.554 95.84C476.554 97.3733 471.721 98.14 466.054 98.14ZM538.441 95.04C536.841 96.04 534.875 96.8067 532.541 97.34C530.275 97.8733 527.841 98.14 525.241 98.14C518.175 98.14 512.741 96.4067 508.941 92.94C505.141 89.4733 503.241 84.3067 503.241 77.44V59.24H495.341V45.04H503.241V30.94H522.241V45.04H534.641V59.24H522.241V77.24C522.241 79.1733 522.741 80.7067 523.741 81.84C524.808 82.9067 526.208 83.44 527.941 83.44C530.141 83.44 532.075 82.8733 533.741 81.74L538.441 95.04ZM568.868 42.14C577.868 42.14 584.735 44.2067 589.468 48.34C594.201 52.4067 596.568 58.6733 596.568 67.14V97.24H578.868V90.24C576.135 95.5067 570.801 98.14 562.868 98.14C558.668 98.14 555.035 97.4067 551.968 95.94C548.901 94.4733 546.568 92.5067 544.968 90.04C543.435 87.5067 542.668 84.64 542.668 81.44C542.668 76.3067 544.635 72.34 548.568 69.54C552.501 66.6733 558.568 65.24 566.768 65.24H577.568C577.235 59.5067 573.401 56.64 566.068 56.64C563.468 56.64 560.835 57.0733 558.168 57.94C555.501 58.74 553.235 59.8733 551.368 61.34L544.968 48.44C547.968 46.44 551.601 44.9067 555.868 43.84C560.201 42.7067 564.535 42.14 568.868 42.14ZM568.168 86.14C570.368 86.14 572.301 85.6067 573.968 84.54C575.635 83.4733 576.835 81.9067 577.568 79.84V75.14H569.368C563.835 75.14 561.068 76.9733 561.068 80.64C561.068 82.3067 561.701 83.64 562.968 84.64C564.235 85.64 565.968 86.14 568.168 86.14ZM643.861 42.14C650.594 42.14 655.994 44.14 660.061 48.14C664.194 52.14 666.261 58.1733 666.261 66.24V97.24H647.261V69.34C647.261 61.94 644.294 58.24 638.361 58.24C635.094 58.24 632.461 59.3067 630.461 61.44C628.528 63.5733 627.561 66.7733 627.561 71.04V97.24H608.561V43.04H626.661V48.94C628.794 46.74 631.328 45.0733 634.261 43.94C637.194 42.74 640.394 42.14 643.861 42.14ZM736.571 23.04V97.24H718.471V91.84C714.938 96.04 709.638 98.14 702.571 98.14C697.638 98.14 693.138 97.0067 689.071 94.74C685.004 92.4067 681.771 89.1067 679.371 84.84C677.038 80.5733 675.871 75.64 675.871 70.04C675.871 64.44 677.038 59.54 679.371 55.34C681.771 51.0733 685.004 47.8067 689.071 45.54C693.138 43.2733 697.638 42.14 702.571 42.14C709.038 42.14 714.038 44.0067 717.571 47.74V23.04H736.571ZM706.571 83.04C709.838 83.04 712.538 81.9067 714.671 79.64C716.804 77.3067 717.871 74.1067 717.871 70.04C717.871 66.04 716.804 62.9067 714.671 60.64C712.604 58.3733 709.904 57.24 706.571 57.24C703.238 57.24 700.504 58.3733 698.371 60.64C696.238 62.9067 695.171 66.04 695.171 70.04C695.171 74.1067 696.238 77.3067 698.371 79.64C700.504 81.9067 703.238 83.04 706.571 83.04ZM771.895 42.14C780.895 42.14 787.762 44.2067 792.495 48.34C797.229 52.4067 799.595 58.6733 799.595 67.14V97.24H781.895V90.24C779.162 95.5067 773.829 98.14 765.895 98.14C761.695 98.14 758.062 97.4067 754.995 95.94C751.929 94.4733 749.595 92.5067 747.995 90.04C746.462 87.5067 745.695 84.64 745.695 81.44C745.695 76.3067 747.662 72.34 751.595 69.54C755.529 66.6733 761.595 65.24 769.795 65.24H780.595C780.262 59.5067 776.429 56.64 769.095 56.64C766.495 56.64 763.862 57.0733 761.195 57.94C758.529 58.74 756.262 59.8733 754.395 61.34L747.995 48.44C750.995 46.44 754.629 44.9067 758.895 43.84C763.229 42.7067 767.562 42.14 771.895 42.14ZM771.195 86.14C773.395 86.14 775.329 85.6067 776.995 84.54C778.662 83.4733 779.862 81.9067 780.595 79.84V75.14H772.395C766.862 75.14 764.095 76.9733 764.095 80.64C764.095 82.3067 764.729 83.64 765.995 84.64C767.262 85.64 768.995 86.14 771.195 86.14ZM829.688 49.54C831.622 47.0733 834.122 45.24 837.188 44.04C840.322 42.7733 843.888 42.14 847.888 42.14V59.24C846.155 59.04 844.722 58.94 843.588 58.94C839.522 58.94 836.322 60.04 833.988 62.24C831.722 64.44 830.588 67.8067 830.588 72.34V97.24H811.588V43.04H829.688V49.54ZM912.841 23.04V97.24H894.741V91.84C891.207 96.04 885.907 98.14 878.841 98.14C873.907 98.14 869.407 97.0067 865.341 94.74C861.274 92.4067 858.041 89.1067 855.641 84.84C853.307 80.5733 852.141 75.64 852.141 70.04C852.141 64.44 853.307 59.54 855.641 55.34C858.041 51.0733 861.274 47.8067 865.341 45.54C869.407 43.2733 873.907 42.14 878.841 42.14C885.307 42.14 890.307 44.0067 893.841 47.74V23.04H912.841ZM882.841 83.04C886.107 83.04 888.807 81.9067 890.941 79.64C893.074 77.3067 894.141 74.1067 894.141 70.04C894.141 66.04 893.074 62.9067 890.941 60.64C888.874 58.3733 886.174 57.24 882.841 57.24C879.507 57.24 876.774 58.3733 874.641 60.64C872.507 62.9067 871.441 66.04 871.441 70.04C871.441 74.1067 872.507 77.3067 874.641 79.64C876.774 81.9067 879.507 83.04 882.841 83.04Z" fill="white"/>
</svg>
