<svg width="743" height="86" viewBox="0 0 743 86" fill="none" xmlns="http://www.w3.org/2000/svg">
<path d="M507.94 40.4808C507.647 47.0333 503.029 55.9884 494.124 67.3824C484.926 79.286 477.121 85.2196 470.744 85.2196C466.787 85.2196 463.452 81.6158 460.74 74.3717C458.908 67.7464 457.112 61.0847 455.28 54.4594C453.264 47.2153 451.065 43.6115 448.757 43.6115C448.244 43.6115 446.485 44.6671 443.443 46.7785L440.292 42.665C443.626 39.7528 446.925 36.8406 450.186 33.892C454.657 30.0697 457.992 28.0676 460.227 27.8491C465.504 27.3395 468.729 30.907 469.938 38.5879C471.257 46.8513 472.173 51.9841 472.687 54.0226C474.189 60.8663 475.875 64.2882 477.707 64.2882C479.136 64.2882 481.262 62.0676 484.083 57.6265C486.905 53.1854 488.444 49.7999 488.627 47.4701C489.031 43.6479 487.528 41.7185 484.083 41.7185C482.471 41.7185 480.785 42.0826 479.063 42.8106C482.398 31.999 488.737 26.7207 498.119 27.0119C505.081 27.2303 508.343 31.7078 507.94 40.4808Z" fill="#231F20"/>
<path d="M549.753 61.6671C546.931 66.9819 543.01 71.8234 538.063 76.1554C531.283 81.9798 524.467 84.892 517.688 84.892C514.536 84.892 512.117 83.8727 510.468 81.8706C508.783 79.8684 508.013 77.2474 508.123 74.0076C508.233 70.695 509.259 65.5622 511.238 58.6093C513.217 51.6564 514.206 47.9433 514.206 47.4337C514.206 44.8127 513.29 43.5022 511.458 43.5022C510.835 43.5022 509.112 44.5579 506.291 46.6693L502.809 42.5922C506.034 39.68 509.296 36.7677 512.52 33.8191C516.881 29.9969 520.106 27.9947 522.268 27.7763C525.603 27.4851 528.058 28.468 529.634 30.7249C531.21 32.9819 531.796 35.9305 531.393 39.5343C530.074 45.65 528.645 53.4401 527.142 62.8684C527.032 67.2003 528.608 69.3481 531.869 69.3481C533.299 69.3481 535.827 67.8556 539.455 64.8706C542.497 62.3952 544.989 60.0654 546.894 57.8813L549.753 61.6671ZM536.523 7.97329C536.414 10.4851 535.168 12.8876 532.712 15.181C529.964 17.802 526.739 19.0761 523.001 19.0761C517.211 19.0761 514.426 16.5643 514.646 11.5771C514.756 8.95616 516.295 6.48078 519.263 4.07821C522.268 1.67564 525.566 0.47435 529.231 0.47435C531.356 0.47435 533.115 1.31161 534.545 2.94973C535.974 4.62425 536.597 6.29877 536.523 7.97329Z" fill="#231F20"/>
<path d="M644.665 61.6671C641.844 66.9819 637.922 71.8234 632.975 76.1553C626.196 81.9798 619.38 84.892 612.6 84.892C606.004 84.892 602.816 81.2881 603.036 74.044C603.146 70.8406 603.769 66.9455 604.941 62.4316C606.114 57.9176 606.737 54.3866 606.847 51.8748C606.957 48.0525 605.784 46.1232 603.329 46.1232C600.69 46.1232 597.539 49.2538 593.874 55.4787C590.026 62.0311 587.938 68.3652 587.608 74.5172C587.388 78.8491 587.828 82.1618 588.89 84.4915C581.818 84.71 576.871 83.5451 574.049 81.0333C571.52 78.8127 570.348 75.1361 570.567 70.0033C570.677 66.7999 571.154 63.56 572.07 60.3566C572.949 57.1532 573.462 54.2774 573.572 51.7292C573.792 48.0161 572.4 46.1596 569.468 46.1596C566.939 46.1596 564.191 49.0354 561.259 54.7506C558.328 60.5022 556.679 66.4723 556.385 72.7335C556.166 78.3759 556.532 82.3074 557.485 84.5279C550.522 84.7464 545.575 83.2903 542.68 80.1596C540.261 77.5386 539.162 73.6072 539.345 68.256C539.455 65.635 539.895 61.9947 540.738 57.3352C541.581 52.6757 542.057 49.0354 542.13 46.4144C542.314 44.5943 541.874 43.7206 540.774 43.7206C540.151 43.7206 538.429 44.7399 535.607 46.7785L531.943 42.7014C532.456 42.3009 535.644 39.3887 541.507 33.9283C545.758 29.9969 548.653 27.9947 550.156 27.8855C552.794 27.6671 554.92 28.7592 556.532 31.1253C558.145 33.4915 558.951 36.2217 558.951 39.3523C558.951 40.3716 558.841 41.3181 558.658 42.2281C560.16 39.8984 561.956 37.8962 563.971 36.1853C568.625 32.1446 573.866 29.8876 579.619 29.378C584.603 28.9776 588.121 30.1425 590.246 32.8363C591.969 35.0568 592.775 38.2238 592.665 42.3373C593.361 41.7549 594.131 41.0632 594.937 40.3716C597.282 37.6414 599.554 35.4936 601.79 33.8919C605.528 31.1617 609.449 29.6692 613.48 29.378C618.354 28.9776 621.835 30.1425 623.96 32.8363C625.793 35.0568 626.599 38.1874 626.379 42.3009C626.269 45.1039 625.609 49.181 624.327 54.5686C623.044 59.9198 622.421 63.014 622.421 63.8149C622.311 65.9262 622.531 67.3823 623.044 68.1832C623.557 68.984 624.767 69.3845 626.709 69.3845C628.138 69.3845 630.667 67.892 634.295 64.9069C637.336 62.4316 639.828 60.1018 641.734 57.9176L644.665 61.6671Z" fill="#231F20"/>
<path d="M701.686 61.5215C698.754 66.363 692.964 71.1682 684.353 76.0097C673.615 82.1254 662.732 85.2196 651.665 85.2196C643.456 85.2196 637.556 82.4894 634.038 77.0654C631.509 73.3523 630.3 68.9112 630.373 63.7785C630.483 55.6243 634.111 47.8705 641.33 40.5172C649.246 32.4722 658.554 28.4315 669.291 28.4315C679.222 28.4315 684.499 32.4358 685.086 40.4808C685.489 45.6136 682.667 50.8555 676.584 56.2795C670.097 62.2131 661.925 65.9626 652.104 67.5643C653.937 70.0761 656.648 71.3138 660.313 71.3138C667.606 71.3138 675.558 69.4573 684.169 65.7806C690.363 63.196 695.2 60.5022 698.754 57.6992L701.686 61.5215ZM667.166 45.7592C667.276 43.0654 666.14 41.7185 663.831 41.7185C660.789 41.7185 657.711 43.7934 654.56 47.9433C651.408 52.0932 649.796 56.0975 649.722 59.8834C649.649 59.8834 649.649 60.5386 649.722 61.8491C654.67 60.0654 658.994 57.2988 662.622 53.5857C665.553 50.3823 667.056 47.7613 667.166 45.7592Z" fill="#231F20"/>
<path d="M742.949 51.4015C742.546 60.6478 739.101 68.6564 732.615 75.3908C726.129 82.1253 718.067 85.4743 708.429 85.4743C700.44 85.4743 694.357 82.9262 690.179 77.7934C687.138 73.9711 685.452 69.2024 685.159 63.4872C684.646 54.8598 687.797 46.8876 694.577 39.6799C701.869 31.6349 711.031 27.6306 722.098 27.6306C729.17 27.6306 734.557 29.9968 738.222 34.7291C741.667 38.9882 743.242 44.5942 742.949 51.4015ZM725.762 50.8555C725.872 48.1253 725.469 45.6499 724.626 43.3565C723.747 41.0996 722.538 39.9347 720.889 39.9347C715.721 39.9347 711.471 42.7013 708.136 48.2709C705.277 52.8212 703.775 57.6628 703.555 62.7955C703.445 65.3073 703.922 67.5279 704.911 69.4572C706.01 71.6778 707.586 72.7698 709.638 72.7698C714.182 72.7698 718.103 70.1125 721.328 64.7613C724.077 60.3202 725.543 55.697 725.762 50.8555Z" fill="#231F20"/>
<path d="M354.531 47.0037L343.02 74.8547H332.949L321.49 47.0037L331.51 47.0037L338.19 63.3431L345.23 47.0037L354.531 47.0037Z" fill="#231F20"/>
<path d="M416.292 47.0037L404.781 74.8547H394.71L383.251 47.0037L393.271 47.0037L399.951 63.3431L406.991 47.0037L416.292 47.0037Z" fill="#231F20"/>
<path d="M290.574 74.851L302.084 47L312.156 47L323.615 74.851L313.595 74.851L306.914 58.5116L299.875 74.851L290.574 74.851Z" fill="#231F20"/>
<path d="M352.336 74.851L363.846 47L373.918 47L385.377 74.851L375.357 74.851L368.676 58.5116L361.637 74.851L352.336 74.851Z" fill="#231F20"/>
<path d="M66.7921 30.3052L43.8426 85.8349H23.7617L0.914551 30.3052H20.893L34.2119 62.8829L48.2481 30.3052H66.7921Z" fill="#231F20"/>
<path d="M71.8243 30.3052H91.2905V85.8349H71.8243V30.3052ZM81.5574 24.158C78.0057 24.158 75.137 23.1676 72.9513 21.1868C70.7657 19.206 69.6728 16.7472 69.6728 13.8102C69.6728 10.8732 70.7657 8.41427 72.9513 6.43351C75.137 4.45274 78.0057 3.46236 81.5574 3.46236C85.1091 3.46236 87.9779 4.41859 90.1635 6.33106C92.3492 8.17522 93.442 10.5658 93.442 13.5028C93.442 16.5764 92.3492 19.1377 90.1635 21.1868C87.9779 23.1676 85.1091 24.158 81.5574 24.158Z" fill="#231F20"/>
<path d="M176.273 29.3831C183.104 29.3831 188.534 31.4322 192.563 35.5303C196.662 39.6284 198.711 45.8098 198.711 54.0744V85.8349H179.244V57.2504C179.244 53.3572 178.493 50.4885 176.99 48.6443C175.556 46.8002 173.507 45.8781 170.843 45.8781C167.906 45.8781 165.55 46.9026 163.774 48.9517C161.998 51.0008 161.11 54.1085 161.11 58.275V85.8349H141.644V57.2504C141.644 49.6689 138.844 45.8781 133.243 45.8781C130.238 45.8781 127.847 46.9026 126.071 48.9517C124.295 51.0008 123.407 54.1085 123.407 58.275V85.8349H103.941V30.3052H122.485V36.145C124.534 33.891 126.959 32.2176 129.759 31.1248C132.628 29.9637 135.736 29.3831 139.083 29.3831C142.976 29.3831 146.459 30.1003 149.533 31.5346C152.607 32.969 155.1 35.1546 157.012 38.0916C159.198 35.2912 161.964 33.1397 165.311 31.6371C168.658 30.1344 172.312 29.3831 176.273 29.3831Z" fill="#231F20"/>
<path d="M266.574 57.2504C266.574 57.387 266.471 58.9921 266.266 62.0657H225.9C226.719 64.9344 228.29 67.1542 230.613 68.7252C233.003 70.2278 235.974 70.9792 239.526 70.9792C242.19 70.9792 244.478 70.6035 246.39 69.8522C248.371 69.1009 250.352 67.8714 252.333 66.1639L262.578 76.819C257.182 82.8296 249.293 85.8349 238.911 85.8349C232.423 85.8349 226.719 84.6055 221.802 82.1466C216.884 79.6877 213.059 76.2726 210.327 71.9013C207.663 67.5299 206.331 62.578 206.331 57.0455C206.331 51.5813 207.629 46.6977 210.224 42.3947C212.888 38.0233 216.542 34.6082 221.187 32.1493C225.831 29.6904 231.057 28.461 236.862 28.461C242.395 28.461 247.415 29.6221 251.923 31.9444C256.431 34.1984 259.983 37.5111 262.578 41.8824C265.242 46.1854 266.574 51.3081 266.574 57.2504ZM236.965 42.2922C233.959 42.2922 231.432 43.146 229.383 44.8535C227.402 46.5611 226.139 48.8834 225.592 51.8204H248.337C247.791 48.8834 246.493 46.5611 244.444 44.8535C242.463 43.146 239.97 42.2922 236.965 42.2922Z" fill="#231F20"/>
</svg>
