<svg width="692" height="123" viewBox="0 0 692 123" fill="none" xmlns="http://www.w3.org/2000/svg">
<path d="M353.616 56.6273L342.106 84.4783H332.034L320.575 56.6273L330.595 56.6273L337.275 72.9667L344.315 56.6273L353.616 56.6273Z" fill="#231F20"/>
<path d="M415.377 56.6273L403.867 84.4783H393.795L382.336 56.6273L392.356 56.6273L399.036 72.9667L406.076 56.6273L415.377 56.6273Z" fill="#231F20"/>
<path d="M289.659 84.4746L301.17 56.6236L311.241 56.6236L322.7 84.4746L312.68 84.4746L306 68.1352L298.96 84.4746L289.659 84.4746Z" fill="#231F20"/>
<path d="M351.421 84.4746L362.932 56.6236L373.003 56.6236L384.462 84.4746L374.442 84.4746L367.762 68.1352L360.722 84.4746L351.421 84.4746Z" fill="#231F20"/>
<path d="M65.8776 42.2801L42.928 97.8099H22.8471L0 42.2801H19.9784L33.2974 74.8578L47.3335 42.2801H65.8776Z" fill="#231F20"/>
<path d="M70.9098 42.2801H90.376V97.8099H70.9098V42.2801ZM80.6429 36.1329C77.0912 36.1329 74.2225 35.1425 72.0368 33.1617C69.8511 31.181 68.7583 28.7221 68.7583 25.7851C68.7583 22.8481 69.8511 20.3892 72.0368 18.4084C74.2225 16.4277 77.0912 15.4373 80.6429 15.4373C84.1946 15.4373 87.0633 16.3935 89.249 18.306C91.4346 20.1501 92.5275 22.5407 92.5275 25.4777C92.5275 28.5513 91.4346 31.1127 89.249 33.1617C87.0633 35.1425 84.1946 36.1329 80.6429 36.1329Z" fill="#231F20"/>
<path d="M175.359 41.358C182.189 41.358 187.619 43.4071 191.649 47.5052C195.747 51.6034 197.796 57.7847 197.796 66.0493V97.8099H178.33V69.2253C178.33 65.3321 177.579 62.4634 176.076 60.6193C174.642 58.7751 172.592 57.853 169.929 57.853C166.992 57.853 164.635 58.8776 162.859 60.9266C161.084 62.9757 160.196 66.0834 160.196 70.2499V97.8099H140.729V69.2253C140.729 61.6438 137.929 57.853 132.328 57.853C129.323 57.853 126.932 58.8776 125.157 60.9266C123.381 62.9757 122.493 66.0834 122.493 70.2499V97.8099H103.027V42.2801H121.571V48.1199C123.62 45.866 126.044 44.1926 128.845 43.0997C131.714 41.9386 134.821 41.358 138.168 41.358C142.061 41.358 145.545 42.0752 148.618 43.5095C151.692 44.9439 154.185 47.1296 156.097 50.0666C158.283 47.2662 161.049 45.1146 164.396 43.612C167.743 42.1093 171.397 41.358 175.359 41.358Z" fill="#231F20"/>
<path d="M265.659 69.2253C265.659 69.3619 265.557 70.9671 265.352 74.0407H224.985C225.805 76.9094 227.376 79.1292 229.698 80.7001C232.089 82.2028 235.06 82.9541 238.611 82.9541C241.275 82.9541 243.563 82.5784 245.476 81.8271C247.457 81.0758 249.437 79.8463 251.418 78.1388L261.663 88.794C256.268 94.8046 248.379 97.8099 237.997 97.8099C231.508 97.8099 225.805 96.5804 220.887 94.1215C215.969 91.6626 212.144 88.2475 209.412 83.8762C206.748 79.5048 205.417 74.5529 205.417 69.0204C205.417 63.5562 206.714 58.6726 209.31 54.3696C211.974 49.9982 215.628 46.5831 220.272 44.1242C224.917 41.6654 230.142 40.4359 235.948 40.4359C241.48 40.4359 246.5 41.5971 251.008 43.9193C255.516 46.1733 259.068 49.486 261.663 53.8573C264.327 58.1604 265.659 63.283 265.659 69.2253ZM236.05 54.2671C233.045 54.2671 230.518 55.1209 228.469 56.8285C226.488 58.536 225.224 60.8583 224.678 63.7953H247.422C246.876 60.8583 245.578 58.536 243.529 56.8285C241.548 55.1209 239.055 54.2671 236.05 54.2671Z" fill="#231F20"/>
<path d="M503.077 23.6099V97.8099H484.977V92.4099C481.444 96.6099 476.144 98.7099 469.077 98.7099C464.144 98.7099 459.644 97.5765 455.577 95.3099C451.51 92.9765 448.277 89.6765 445.877 85.4099C443.544 81.1432 442.377 76.2099 442.377 70.6099C442.377 65.0099 443.544 60.1099 445.877 55.9099C448.277 51.6432 451.51 48.3765 455.577 46.1099C459.644 43.8432 464.144 42.7099 469.077 42.7099C475.544 42.7099 480.544 44.5765 484.077 48.3099V23.6099H503.077ZM473.077 83.6099C476.344 83.6099 479.044 82.4765 481.177 80.2099C483.31 77.8765 484.377 74.6765 484.377 70.6099C484.377 66.6099 483.31 63.4765 481.177 61.2099C479.11 58.9432 476.41 57.8099 473.077 57.8099C469.744 57.8099 467.01 58.9432 464.877 61.2099C462.744 63.4765 461.677 66.6099 461.677 70.6099C461.677 74.6765 462.744 77.8765 464.877 80.2099C467.01 82.4765 469.744 83.6099 473.077 83.6099ZM542.501 98.7099C536.701 98.7099 531.468 97.5099 526.801 95.1099C522.135 92.7099 518.468 89.3765 515.801 85.1099C513.201 80.8432 511.901 76.0099 511.901 70.6099C511.901 65.2765 513.201 60.4765 515.801 56.2099C518.468 51.9432 522.101 48.6432 526.701 46.3099C531.368 43.9099 536.635 42.7099 542.501 42.7099C548.368 42.7099 553.635 43.9099 558.301 46.3099C562.968 48.6432 566.601 51.9432 569.201 56.2099C571.801 60.4099 573.101 65.2099 573.101 70.6099C573.101 76.0099 571.801 80.8432 569.201 85.1099C566.601 89.3765 562.968 92.7099 558.301 95.1099C553.635 97.5099 548.368 98.7099 542.501 98.7099ZM542.501 83.6099C545.835 83.6099 548.568 82.4765 550.701 80.2099C552.835 77.8765 553.901 74.6765 553.901 70.6099C553.901 66.6099 552.835 63.4765 550.701 61.2099C548.568 58.9432 545.835 57.8099 542.501 57.8099C539.168 57.8099 536.435 58.9432 534.301 61.2099C532.168 63.4765 531.101 66.6099 531.101 70.6099C531.101 74.6765 532.168 77.8765 534.301 80.2099C536.435 82.4765 539.168 83.6099 542.501 83.6099ZM609.603 98.7099C603.603 98.7099 598.236 97.5099 593.503 95.1099C588.77 92.7099 585.07 89.3765 582.403 85.1099C579.803 80.8432 578.503 76.0099 578.503 70.6099C578.503 65.2099 579.803 60.4099 582.403 56.2099C585.07 51.9432 588.77 48.6432 593.503 46.3099C598.236 43.9099 603.603 42.7099 609.603 42.7099C615.736 42.7099 621.036 44.0432 625.503 46.7099C629.97 49.3099 633.136 52.9432 635.003 57.6099L620.303 65.1099C617.836 60.2432 614.236 57.8099 609.503 57.8099C606.103 57.8099 603.27 58.9432 601.003 61.2099C598.803 63.4765 597.703 66.6099 597.703 70.6099C597.703 74.6765 598.803 77.8765 601.003 80.2099C603.27 82.4765 606.103 83.6099 609.503 83.6099C614.236 83.6099 617.836 81.1765 620.303 76.3099L635.003 83.8099C633.136 88.4765 629.97 92.1432 625.503 94.8099C621.036 97.4099 615.736 98.7099 609.603 98.7099ZM661.857 98.7099C657.323 98.7099 652.857 98.2099 648.457 97.2099C644.057 96.1432 640.523 94.7765 637.857 93.1099L643.557 80.1099C646.023 81.6432 648.957 82.8765 652.357 83.8099C655.757 84.6765 659.123 85.1099 662.457 85.1099C665.523 85.1099 667.69 84.8099 668.957 84.2099C670.29 83.5432 670.957 82.6099 670.957 81.4099C670.957 80.2099 670.157 79.3765 668.557 78.9099C667.023 78.3765 664.557 77.8765 661.157 77.4099C656.823 76.8765 653.123 76.1765 650.057 75.3099C647.057 74.4432 644.457 72.8432 642.257 70.5099C640.057 68.1765 638.957 64.9099 638.957 60.7099C638.957 57.2432 639.99 54.1765 642.057 51.5099C644.123 48.7765 647.123 46.6432 651.057 45.1099C655.057 43.5099 659.823 42.7099 665.357 42.7099C669.29 42.7099 673.19 43.1099 677.057 43.9099C680.923 44.7099 684.157 45.8432 686.757 47.3099L681.057 60.2099C676.257 57.5432 671.057 56.2099 665.457 56.2099C662.457 56.2099 660.257 56.5765 658.857 57.3099C657.457 57.9765 656.757 58.8765 656.757 60.0099C656.757 61.2765 657.523 62.1765 659.057 62.7099C660.59 63.1765 663.123 63.6765 666.657 64.2099C671.123 64.8765 674.823 65.6432 677.757 66.5099C680.69 67.3765 683.223 68.9765 685.357 71.3099C687.557 73.5765 688.657 76.7765 688.657 80.9099C688.657 84.3099 687.623 87.3765 685.557 90.1099C683.49 92.7765 680.423 94.8765 676.357 96.4099C672.357 97.9432 667.523 98.7099 661.857 98.7099Z" fill="black"/>
</svg>
