<svg width="772" height="122" viewBox="0 0 772 122" fill="none" xmlns="http://www.w3.org/2000/svg">
<path d="M353.616 55.8174L342.106 83.6684H332.034L320.575 55.8174L330.595 55.8174L337.276 72.1568L344.315 55.8174L353.616 55.8174Z" fill="white"/>
<path d="M415.377 55.8174L403.867 83.6684H393.795L382.336 55.8174L392.356 55.8174L399.037 72.1568L406.076 55.8174L415.377 55.8174Z" fill="white"/>
<path d="M289.659 83.6648L301.17 55.8138L311.241 55.8138L322.7 83.6648L312.68 83.6648L306 67.3254L298.96 83.6648L289.659 83.6648Z" fill="white"/>
<path d="M351.421 83.6648L362.932 55.8138L373.003 55.8138L384.462 83.6648L374.442 83.6648L367.762 67.3254L360.722 83.6648L351.421 83.6648Z" fill="white"/>
<path d="M65.8776 41.4702L42.928 97H22.8471L0 41.4702H19.9784L33.2974 74.048L47.3335 41.4702H65.8776Z" fill="white"/>
<path d="M70.9098 41.4702H90.376V97H70.9098V41.4702ZM80.6429 35.323C77.0912 35.323 74.2225 34.3327 72.0368 32.3519C69.8511 30.3711 68.7583 27.9122 68.7583 24.9752C68.7583 22.0382 69.8511 19.5794 72.0368 17.5986C74.2225 15.6178 77.0912 14.6274 80.6429 14.6274C84.1946 14.6274 87.0633 15.5837 89.249 17.4961C91.4346 19.3403 92.5275 21.7309 92.5275 24.6679C92.5275 27.7415 91.4346 30.3028 89.249 32.3519C87.0633 34.3327 84.1946 35.323 80.6429 35.323Z" fill="white"/>
<path d="M175.359 40.5482C182.189 40.5482 187.619 42.5972 191.649 46.6954C195.747 50.7935 197.796 56.9749 197.796 65.2394V97H178.33V68.4155C178.33 64.5223 177.579 61.6536 176.076 59.8094C174.642 57.9653 172.592 57.0432 169.929 57.0432C166.992 57.0432 164.635 58.0677 162.859 60.1168C161.084 62.1658 160.196 65.2736 160.196 69.44V97H140.729V68.4155C140.729 60.8339 137.929 57.0432 132.328 57.0432C129.323 57.0432 126.932 58.0677 125.157 60.1168C123.381 62.1658 122.493 65.2736 122.493 69.44V97H103.027V41.4702H121.571V47.3101C123.62 45.0561 126.044 43.3827 128.845 42.2899C131.714 41.1287 134.821 40.5482 138.168 40.5482C142.061 40.5482 145.545 41.2653 148.618 42.6997C151.692 44.134 154.185 46.3197 156.097 49.2567C158.283 46.4563 161.049 44.3048 164.396 42.8021C167.743 41.2995 171.397 40.5482 175.359 40.5482Z" fill="white"/>
<path d="M265.659 68.4155C265.659 68.5521 265.557 70.1572 265.352 73.2308H224.985C225.805 76.0995 227.376 78.3193 229.698 79.8903C232.089 81.3929 235.06 82.1443 238.611 82.1443C241.275 82.1443 243.563 81.7686 245.476 81.0173C247.457 80.2659 249.437 79.0365 251.418 77.3289L261.663 87.9841C256.268 93.9947 248.379 97 237.997 97C231.508 97 225.805 95.7706 220.887 93.3117C215.969 90.8528 212.144 87.4377 209.412 83.0663C206.748 78.695 205.417 73.7431 205.417 68.2106C205.417 62.7464 206.714 57.8628 209.31 53.5597C211.974 49.1884 215.628 45.7733 220.272 43.3144C224.917 40.8555 230.142 39.6261 235.948 39.6261C241.48 39.6261 246.5 40.7872 251.008 43.1095C255.516 45.3635 259.068 48.6761 261.663 53.0475C264.327 57.3505 265.659 62.4732 265.659 68.4155ZM236.05 53.4573C233.045 53.4573 230.518 54.3111 228.469 56.0186C226.488 57.7262 225.224 60.0485 224.678 62.9855H247.422C246.876 60.0485 245.578 57.7262 243.529 56.0186C241.548 54.3111 239.055 53.4573 236.05 53.4573Z" fill="white"/>
<path d="M479.577 41.9C484.51 41.9 488.977 43.0667 492.977 45.4C497.044 47.6667 500.244 50.9333 502.577 55.2C504.977 59.4 506.177 64.3 506.177 69.9C506.177 75.5 504.977 80.4333 502.577 84.7C500.244 88.9 497.044 92.1667 492.977 94.5C488.977 96.7667 484.51 97.9 479.577 97.9C473.244 97.9 468.21 96 464.477 92.2V116.4H445.477V42.8H463.577V48.2C467.11 44 472.444 41.9 479.577 41.9ZM475.577 82.8C478.91 82.8 481.644 81.6667 483.777 79.4C485.91 77.0667 486.977 73.9 486.977 69.9C486.977 65.9 485.91 62.7667 483.777 60.5C481.644 58.1667 478.91 57 475.577 57C472.244 57 469.51 58.1667 467.377 60.5C465.244 62.7667 464.177 65.9 464.177 69.9C464.177 73.9 465.244 77.0667 467.377 79.4C469.51 81.6667 472.244 82.8 475.577 82.8ZM515.008 22.8H534.008V97H515.008V22.8ZM569.456 41.9C578.456 41.9 585.323 43.9667 590.056 48.1C594.789 52.1667 597.156 58.4333 597.156 66.9V97H579.456V90C576.723 95.2667 571.389 97.9 563.456 97.9C559.256 97.9 555.623 97.1667 552.556 95.7C549.489 94.2333 547.156 92.2667 545.556 89.8C544.023 87.2667 543.256 84.4 543.256 81.2C543.256 76.0667 545.223 72.1 549.156 69.3C553.089 66.4333 559.156 65 567.356 65H578.156C577.823 59.2667 573.989 56.4 566.656 56.4C564.056 56.4 561.423 56.8333 558.756 57.7C556.089 58.5 553.823 59.6333 551.956 61.1L545.556 48.2C548.556 46.2 552.189 44.6667 556.456 43.6C560.789 42.4667 565.123 41.9 569.456 41.9ZM568.756 85.9C570.956 85.9 572.889 85.3667 574.556 84.3C576.223 83.2333 577.423 81.6667 578.156 79.6V74.9H569.956C564.423 74.9 561.656 76.7333 561.656 80.4C561.656 82.0667 562.289 83.4 563.556 84.4C564.823 85.4 566.556 85.9 568.756 85.9ZM665.272 42.8L641.872 99.2C639.139 105.867 635.806 110.533 631.872 113.2C627.939 115.933 623.139 117.3 617.472 117.3C614.606 117.3 611.706 116.833 608.772 115.9C605.906 115.033 603.572 113.867 601.772 112.4L608.372 99.1C609.439 100.1 610.706 100.867 612.172 101.4C613.706 102 615.239 102.3 616.772 102.3C618.572 102.3 620.039 101.933 621.172 101.2C622.372 100.467 623.372 99.3 624.172 97.7L600.972 42.8H620.472L633.772 75.9L647.172 42.8H665.272ZM724.119 70C724.119 70.1333 724.019 71.7 723.819 74.7H684.419C685.219 77.5 686.752 79.6667 689.019 81.2C691.352 82.6667 694.252 83.4 697.719 83.4C700.319 83.4 702.552 83.0333 704.419 82.3C706.352 81.5667 708.286 80.3667 710.219 78.7L720.219 89.1C714.952 94.9667 707.252 97.9 697.119 97.9C690.786 97.9 685.219 96.7 680.419 94.3C675.619 91.9 671.886 88.5667 669.219 84.3C666.619 80.0333 665.319 75.2 665.319 69.8C665.319 64.4667 666.586 59.7 669.119 55.5C671.719 51.2333 675.286 47.9 679.819 45.5C684.352 43.1 689.452 41.9 695.119 41.9C700.519 41.9 705.419 43.0333 709.819 45.3C714.219 47.5 717.686 50.7333 720.219 55C722.819 59.2 724.119 64.2 724.119 70ZM695.219 55.4C692.286 55.4 689.819 56.2333 687.819 57.9C685.886 59.5667 684.652 61.8333 684.119 64.7H706.319C705.786 61.8333 704.519 59.5667 702.519 57.9C700.586 56.2333 698.152 55.4 695.219 55.4ZM750.979 49.3C752.913 46.8333 755.413 45 758.479 43.8C761.613 42.5333 765.179 41.9 769.179 41.9V59C767.446 58.8 766.013 58.7 764.879 58.7C760.813 58.7 757.613 59.8 755.279 62C753.013 64.2 751.879 67.5667 751.879 72.1V97H732.879V42.8H750.979V49.3Z" fill="white"/>
</svg>
