<svg width="614" height="230" viewBox="0 0 614 230" fill="none" xmlns="http://www.w3.org/2000/svg">
<rect width="614" height="230" fill="#231F20"/>
<path d="M517.27 170.299C511.492 170.313 505.809 168.824 500.78 165.979L523.58 143.199L546.42 120.339L563.93 102.829C556.935 93.2964 547.186 86.1356 535.997 82.311C524.809 78.4864 512.717 78.1815 501.35 81.4375C489.983 84.6935 479.886 91.3541 472.419 100.522C464.952 109.691 460.473 120.927 459.586 132.718C458.698 144.509 461.444 156.288 467.455 166.471C473.465 176.654 482.451 184.751 493.203 189.672C503.954 194.593 515.956 196.102 527.591 193.995C539.226 191.888 549.936 186.268 558.28 177.889L540.9 160.509C537.803 163.62 534.12 166.087 530.064 167.767C526.008 169.448 521.66 170.308 517.27 170.299V170.299ZM483.77 136.819C483.775 127.937 487.307 119.42 493.588 113.141C499.87 106.861 508.388 103.332 517.27 103.329C520.596 103.319 523.903 103.815 527.08 104.799L485.24 146.669C484.27 143.489 483.775 140.184 483.77 136.859V136.819Z" fill="white" stroke="white" stroke-width="6" stroke-miterlimit="10"/>
<path d="M439.56 127.129V194.699H411.7V127.129C411.765 121.883 409.743 116.826 406.08 113.071C402.416 109.316 397.411 107.169 392.165 107.104C386.919 107.039 381.862 109.061 378.107 112.724C374.351 116.388 372.205 121.393 372.14 126.639V194.699H344.3V127.129C344.3 121.883 342.216 116.852 338.507 113.143C334.797 109.433 329.766 107.349 324.52 107.349C319.274 107.349 314.243 109.433 310.533 113.143C306.824 116.852 304.74 121.883 304.74 127.129V194.699H276.9V127.129C276.894 117.704 279.686 108.489 284.922 100.651C290.158 92.8142 297.603 86.7074 306.313 83.1048C315.022 79.5023 324.606 78.566 333.848 80.4146C343.09 82.2633 351.576 86.8137 358.23 93.4893C364.886 86.8186 373.371 82.2726 382.612 80.4267C391.853 78.5808 401.433 79.518 410.141 83.1198C418.849 86.7216 426.293 92.8259 431.529 100.66C436.766 108.494 439.561 117.706 439.56 127.129Z" fill="white" stroke="white" stroke-width="6" stroke-miterlimit="10"/>
<path d="M252.07 194.709V99.1093H223.82V194.709H252.07Z" fill="white" stroke="white" stroke-width="6" stroke-miterlimit="10"/>
<path d="M237.94 79.2593C247.931 79.2593 256.03 71.1601 256.03 61.1693C256.03 51.1785 247.931 43.0793 237.94 43.0793C227.949 43.0793 219.85 51.1785 219.85 61.1693C219.85 71.1601 227.949 79.2593 237.94 79.2593Z" fill="white" stroke="white" stroke-width="6" stroke-miterlimit="10"/>
<path d="M211.91 35.0793L153.63 194.709H108.23L108.16 194.529L50.0699 35.0793H80.1399L125.99 160.949L126.21 161.569C126.225 161.6 126.242 161.63 126.26 161.659C126.667 162.556 127.324 163.316 128.152 163.849C128.981 164.381 129.945 164.662 130.93 164.659C131.913 164.666 132.876 164.386 133.702 163.853C134.528 163.32 135.181 162.558 135.58 161.659C135.58 161.659 135.58 161.659 135.63 161.589L135.82 160.999L181.82 35.0993L211.91 35.0793Z" fill="white" stroke="white" stroke-width="6" stroke-miterlimit="10"/>
</svg>
