<svg width="772" height="123" viewBox="0 0 772 123" fill="none" xmlns="http://www.w3.org/2000/svg">
<path d="M353.616 56.4373L342.106 84.2883H332.034L320.575 56.4373L330.595 56.4373L337.275 72.7766L344.315 56.4373L353.616 56.4373Z" fill="#231F20"/>
<path d="M415.377 56.4373L403.867 84.2883H393.795L382.336 56.4373L392.356 56.4373L399.036 72.7766L406.076 56.4373L415.377 56.4373Z" fill="#231F20"/>
<path d="M289.659 84.2847L301.17 56.4336L311.241 56.4336L322.7 84.2847L312.68 84.2847L306 67.9453L298.96 84.2847L289.659 84.2847Z" fill="#231F20"/>
<path d="M351.421 84.2847L362.932 56.4336L373.003 56.4336L384.462 84.2847L374.442 84.2847L367.762 67.9453L360.722 84.2847L351.421 84.2847Z" fill="#231F20"/>
<path d="M65.8776 42.0901L42.928 97.6199H22.8471L0 42.0901H19.9784L33.2974 74.6678L47.3335 42.0901H65.8776Z" fill="#231F20"/>
<path d="M70.9098 42.0901H90.376V97.6199H70.9098V42.0901ZM80.6429 35.9429C77.0912 35.9429 74.2225 34.9525 72.0368 32.9718C69.8511 30.991 68.7583 28.5321 68.7583 25.5951C68.7583 22.6581 69.8511 20.1992 72.0368 18.2185C74.2225 16.2377 77.0912 15.2473 80.6429 15.2473C84.1946 15.2473 87.0633 16.2035 89.249 18.116C91.4346 19.9602 92.5275 22.3508 92.5275 25.2878C92.5275 28.3614 91.4346 30.9227 89.249 32.9718C87.0633 34.9525 84.1946 35.9429 80.6429 35.9429Z" fill="#231F20"/>
<path d="M175.359 41.168C182.189 41.168 187.619 43.2171 191.649 47.3152C195.747 51.4134 197.796 57.5947 197.796 65.8593V97.6199H178.33V69.0354C178.33 65.1421 177.579 62.2734 176.076 60.4293C174.642 58.5851 172.592 57.663 169.929 57.663C166.992 57.663 164.635 58.6876 162.859 60.7366C161.084 62.7857 160.196 65.8935 160.196 70.0599V97.6199H140.729V69.0354C140.729 61.4538 137.929 57.663 132.328 57.663C129.323 57.663 126.932 58.6876 125.157 60.7366C123.381 62.7857 122.493 65.8935 122.493 70.0599V97.6199H103.027V42.0901H121.571V47.93C123.62 45.676 126.044 44.0026 128.845 42.9097C131.714 41.7486 134.821 41.168 138.168 41.168C142.061 41.168 145.545 41.8852 148.618 43.3196C151.692 44.7539 154.185 46.9396 156.097 49.8766C158.283 47.0762 161.049 44.9247 164.396 43.422C167.743 41.9194 171.397 41.168 175.359 41.168Z" fill="#231F20"/>
<path d="M265.659 69.0354C265.659 69.172 265.557 70.7771 265.352 73.8507H224.985C225.805 76.7194 227.376 78.9392 229.698 80.5102C232.089 82.0128 235.06 82.7641 238.611 82.7641C241.275 82.7641 243.563 82.3885 245.476 81.6371C247.457 80.8858 249.437 79.6564 251.418 77.9488L261.663 88.604C256.268 94.6146 248.379 97.6199 237.997 97.6199C231.508 97.6199 225.805 96.3904 220.887 93.9316C215.969 91.4727 212.144 88.0576 209.412 83.6862C206.748 79.3149 205.417 74.3629 205.417 68.8305C205.417 63.3663 206.714 58.4827 209.31 54.1796C211.974 49.8083 215.628 46.3932 220.272 43.9343C224.917 41.4754 230.142 40.246 235.948 40.246C241.48 40.246 246.5 41.4071 251.008 43.7294C255.516 45.9833 259.068 49.296 261.663 53.6674C264.327 57.9704 265.659 63.0931 265.659 69.0354ZM236.05 54.0772C233.045 54.0772 230.518 54.9309 228.469 56.6385C226.488 58.3461 225.224 60.6683 224.678 63.6053H247.422C246.876 60.6683 245.578 58.3461 243.529 56.6385C241.548 54.9309 239.055 54.0772 236.05 54.0772Z" fill="#231F20"/>
<path d="M479.577 42.5199C484.51 42.5199 488.977 43.6865 492.977 46.0199C497.044 48.2865 500.244 51.5532 502.577 55.8199C504.977 60.0199 506.177 64.9199 506.177 70.5199C506.177 76.1199 504.977 81.0532 502.577 85.3199C500.244 89.5199 497.044 92.7865 492.977 95.1199C488.977 97.3865 484.51 98.5199 479.577 98.5199C473.244 98.5199 468.21 96.6199 464.477 92.8199V117.02H445.477V43.4199H463.577V48.8199C467.11 44.6199 472.444 42.5199 479.577 42.5199ZM475.577 83.4199C478.91 83.4199 481.644 82.2865 483.777 80.0199C485.91 77.6865 486.977 74.5199 486.977 70.5199C486.977 66.5199 485.91 63.3865 483.777 61.1199C481.644 58.7865 478.91 57.6199 475.577 57.6199C472.244 57.6199 469.51 58.7865 467.377 61.1199C465.244 63.3865 464.177 66.5199 464.177 70.5199C464.177 74.5199 465.244 77.6865 467.377 80.0199C469.51 82.2865 472.244 83.4199 475.577 83.4199ZM515.008 23.4199H534.008V97.6199H515.008V23.4199ZM569.456 42.5199C578.456 42.5199 585.323 44.5865 590.056 48.7199C594.789 52.7865 597.156 59.0532 597.156 67.5199V97.6199H579.456V90.6199C576.723 95.8865 571.389 98.5199 563.456 98.5199C559.256 98.5199 555.623 97.7865 552.556 96.3199C549.489 94.8532 547.156 92.8865 545.556 90.4199C544.023 87.8865 543.256 85.0199 543.256 81.8199C543.256 76.6865 545.223 72.7199 549.156 69.9199C553.089 67.0532 559.156 65.6199 567.356 65.6199H578.156C577.823 59.8865 573.989 57.0199 566.656 57.0199C564.056 57.0199 561.423 57.4532 558.756 58.3199C556.089 59.1199 553.823 60.2532 551.956 61.7199L545.556 48.8199C548.556 46.8199 552.189 45.2865 556.456 44.2199C560.789 43.0865 565.123 42.5199 569.456 42.5199ZM568.756 86.5199C570.956 86.5199 572.889 85.9865 574.556 84.9199C576.223 83.8532 577.423 82.2865 578.156 80.2199V75.5199H569.956C564.423 75.5199 561.656 77.3532 561.656 81.0199C561.656 82.6865 562.289 84.0199 563.556 85.0199C564.823 86.0199 566.556 86.5199 568.756 86.5199ZM665.272 43.4199L641.872 99.8199C639.139 106.487 635.806 111.153 631.872 113.82C627.939 116.553 623.139 117.92 617.472 117.92C614.606 117.92 611.706 117.453 608.772 116.52C605.906 115.653 603.572 114.487 601.772 113.02L608.372 99.7199C609.439 100.72 610.706 101.487 612.172 102.02C613.706 102.62 615.239 102.92 616.772 102.92C618.572 102.92 620.039 102.553 621.172 101.82C622.372 101.087 623.372 99.9199 624.172 98.3199L600.972 43.4199H620.472L633.772 76.5199L647.172 43.4199H665.272ZM724.119 70.6199C724.119 70.7532 724.019 72.3199 723.819 75.3199H684.419C685.219 78.1199 686.753 80.2865 689.019 81.8199C691.353 83.2865 694.253 84.0199 697.719 84.0199C700.319 84.0199 702.553 83.6532 704.419 82.9199C706.353 82.1865 708.286 80.9865 710.219 79.3199L720.219 89.7199C714.953 95.5865 707.253 98.5199 697.119 98.5199C690.786 98.5199 685.219 97.3199 680.419 94.9199C675.619 92.5199 671.886 89.1865 669.219 84.9199C666.619 80.6532 665.319 75.8199 665.319 70.4199C665.319 65.0865 666.586 60.3199 669.119 56.1199C671.719 51.8532 675.286 48.5199 679.819 46.1199C684.353 43.7199 689.453 42.5199 695.119 42.5199C700.519 42.5199 705.419 43.6532 709.819 45.9199C714.219 48.1199 717.686 51.3532 720.219 55.6199C722.819 59.8199 724.119 64.8199 724.119 70.6199ZM695.219 56.0199C692.286 56.0199 689.819 56.8532 687.819 58.5199C685.886 60.1865 684.653 62.4532 684.119 65.3199H706.319C705.786 62.4532 704.519 60.1865 702.519 58.5199C700.586 56.8532 698.153 56.0199 695.219 56.0199ZM750.979 49.9199C752.913 47.4532 755.413 45.6199 758.479 44.4199C761.613 43.1532 765.179 42.5199 769.179 42.5199V59.6199C767.446 59.4199 766.013 59.3199 764.879 59.3199C760.813 59.3199 757.613 60.4199 755.279 62.6199C753.013 64.8199 751.879 68.1865 751.879 72.7199V97.6199H732.879V43.4199H750.979V49.9199Z" fill="black"/>
</svg>
