<svg width="944" height="123" viewBox="0 0 944 123" fill="none" xmlns="http://www.w3.org/2000/svg">
<path d="M354.239 55.8674L342.729 83.7185H332.657L321.198 55.8674L331.218 55.8674L337.898 72.2068L344.938 55.8674L354.239 55.8674Z" fill="#231F20"/>
<path d="M416 55.8674L404.49 83.7185H394.418L382.959 55.8674L392.979 55.8674L399.659 72.2068L406.699 55.8674L416 55.8674Z" fill="#231F20"/>
<path d="M290.282 83.7148L301.793 55.8638L311.864 55.8638L323.323 83.7148L313.303 83.7148L306.623 67.3755L299.583 83.7148L290.282 83.7148Z" fill="#231F20"/>
<path d="M352.044 83.7148L363.555 55.8638L373.626 55.8638L385.085 83.7148L375.065 83.7148L368.385 67.3755L361.345 83.7148L352.044 83.7148Z" fill="#231F20"/>
<path d="M66.5005 41.5203L43.5509 97.0501H23.47L0.622925 41.5203H20.6014L33.9203 74.098L47.9564 41.5203H66.5005Z" fill="#231F20"/>
<path d="M71.5327 41.5203H90.9989V97.0501H71.5327V41.5203ZM81.2658 35.3731C77.7141 35.3731 74.8454 34.3827 72.6597 32.4019C70.4741 30.4212 69.3812 27.9623 69.3812 25.0253C69.3812 22.0883 70.4741 19.6294 72.6597 17.6486C74.8454 15.6679 77.7141 14.6775 81.2658 14.6775C84.8175 14.6775 87.6862 15.6337 89.8719 17.5462C92.0576 19.3903 93.1504 21.7809 93.1504 24.7179C93.1504 27.7915 92.0576 30.3529 89.8719 32.4019C87.6862 34.3827 84.8175 35.3731 81.2658 35.3731Z" fill="#231F20"/>
<path d="M175.982 40.5982C182.812 40.5982 188.242 42.6473 192.272 46.7454C196.37 50.8436 198.419 57.0249 198.419 65.2895V97.0501H178.953V68.4655C178.953 64.5723 178.201 61.7036 176.699 59.8595C175.264 58.0153 173.215 57.0932 170.552 57.0932C167.615 57.0932 165.258 58.1178 163.482 60.1668C161.706 62.2159 160.819 65.3236 160.819 69.4901V97.0501H141.352V68.4655C141.352 60.884 138.552 57.0932 132.951 57.0932C129.946 57.0932 127.555 58.1178 125.779 60.1668C124.004 62.2159 123.116 65.3236 123.116 69.4901V97.0501H103.649V41.5203H122.194V47.3601C124.243 45.1062 126.667 43.4328 129.468 42.3399C132.336 41.1788 135.444 40.5982 138.791 40.5982C142.684 40.5982 146.168 41.3154 149.241 42.7497C152.315 44.1841 154.808 46.3698 156.72 49.3068C158.906 46.5064 161.672 44.3548 165.019 42.8522C168.366 41.3495 172.02 40.5982 175.982 40.5982Z" fill="#231F20"/>
<path d="M266.282 68.4655C266.282 68.6021 266.18 70.2073 265.975 73.2809H225.608C226.428 76.1496 227.999 78.3694 230.321 79.9403C232.711 81.443 235.683 82.1943 239.234 82.1943C241.898 82.1943 244.186 81.8186 246.099 81.0673C248.079 80.316 250.06 79.0866 252.041 77.379L262.286 88.0342C256.891 94.0448 249.002 97.0501 238.62 97.0501C232.131 97.0501 226.428 95.8206 221.51 93.3617C216.592 90.9029 212.767 87.4877 210.035 83.1164C207.371 78.745 206.039 73.7931 206.039 68.2606C206.039 62.7965 207.337 57.9128 209.933 53.6098C212.596 49.2384 216.251 45.8233 220.895 43.3644C225.54 40.9056 230.765 39.6761 236.571 39.6761C242.103 39.6761 247.123 40.8373 251.631 43.1595C256.139 45.4135 259.691 48.7262 262.286 53.0975C264.95 57.4006 266.282 62.5232 266.282 68.4655ZM236.673 53.5073C233.668 53.5073 231.141 54.3611 229.091 56.0687C227.111 57.7762 225.847 60.0985 225.301 63.0355H248.045C247.499 60.0985 246.201 57.7762 244.152 56.0687C242.171 54.3611 239.678 53.5073 236.673 53.5073Z" fill="#231F20"/>
<path d="M473.8 97.95C467.8 97.95 462.433 96.75 457.7 94.35C452.967 91.95 449.267 88.6167 446.6 84.35C444 80.0834 442.7 75.25 442.7 69.85C442.7 64.45 444 59.65 446.6 55.45C449.267 51.1834 452.967 47.8834 457.7 45.55C462.433 43.15 467.8 41.95 473.8 41.95C479.933 41.95 485.233 43.2834 489.7 45.95C494.167 48.55 497.333 52.1834 499.2 56.85L484.5 64.35C482.033 59.4834 478.433 57.05 473.7 57.05C470.3 57.05 467.467 58.1834 465.2 60.45C463 62.7167 461.9 65.85 461.9 69.85C461.9 73.9167 463 77.1167 465.2 79.45C467.467 81.7167 470.3 82.85 473.7 82.85C478.433 82.85 482.033 80.4167 484.5 75.55L499.2 83.05C497.333 87.7167 494.167 91.3834 489.7 94.05C485.233 96.65 479.933 97.95 473.8 97.95ZM532.968 97.95C527.168 97.95 521.935 96.75 517.268 94.35C512.601 91.95 508.935 88.6167 506.268 84.35C503.668 80.0834 502.368 75.25 502.368 69.85C502.368 64.5167 503.668 59.7167 506.268 55.45C508.935 51.1834 512.568 47.8834 517.168 45.55C521.835 43.15 527.101 41.95 532.968 41.95C538.835 41.95 544.101 43.15 548.768 45.55C553.435 47.8834 557.068 51.1834 559.668 55.45C562.268 59.65 563.568 64.45 563.568 69.85C563.568 75.25 562.268 80.0834 559.668 84.35C557.068 88.6167 553.435 91.95 548.768 94.35C544.101 96.75 538.835 97.95 532.968 97.95ZM532.968 82.85C536.301 82.85 539.035 81.7167 541.168 79.45C543.301 77.1167 544.368 73.9167 544.368 69.85C544.368 65.85 543.301 62.7167 541.168 60.45C539.035 58.1834 536.301 57.05 532.968 57.05C529.635 57.05 526.901 58.1834 524.768 60.45C522.635 62.7167 521.568 65.85 521.568 69.85C521.568 73.9167 522.635 77.1167 524.768 79.45C526.901 81.7167 529.635 82.85 532.968 82.85ZM642.97 41.95C649.636 41.95 654.936 43.95 658.87 47.95C662.87 51.95 664.87 57.9834 664.87 66.05V97.05H645.87V69.15C645.87 65.35 645.136 62.55 643.67 60.75C642.27 58.95 640.27 58.05 637.67 58.05C634.803 58.05 632.503 59.05 630.77 61.05C629.036 63.05 628.17 66.0834 628.17 70.15V97.05H609.17V69.15C609.17 61.75 606.436 58.05 600.97 58.05C598.036 58.05 595.703 59.05 593.97 61.05C592.236 63.05 591.37 66.0834 591.37 70.15V97.05H572.37V42.85H590.47V48.55C592.47 46.35 594.836 44.7167 597.57 43.65C600.37 42.5167 603.403 41.95 606.67 41.95C610.47 41.95 613.87 42.65 616.87 44.05C619.87 45.45 622.303 47.5834 624.17 50.45C626.303 47.7167 629.003 45.6167 632.27 44.15C635.536 42.6834 639.103 41.95 642.97 41.95ZM710.962 41.95C715.895 41.95 720.362 43.1167 724.362 45.45C728.428 47.7167 731.628 50.9834 733.962 55.25C736.362 59.45 737.562 64.35 737.562 69.95C737.562 75.55 736.362 80.4834 733.962 84.75C731.628 88.95 728.428 92.2167 724.362 94.55C720.362 96.8167 715.895 97.95 710.962 97.95C704.628 97.95 699.595 96.05 695.862 92.25V116.45H676.862V42.85H694.962V48.25C698.495 44.05 703.828 41.95 710.962 41.95ZM706.962 82.85C710.295 82.85 713.028 81.7167 715.162 79.45C717.295 77.1167 718.362 73.95 718.362 69.95C718.362 65.95 717.295 62.8167 715.162 60.55C713.028 58.2167 710.295 57.05 706.962 57.05C703.628 57.05 700.895 58.2167 698.762 60.55C696.628 62.8167 695.562 65.95 695.562 69.95C695.562 73.95 696.628 77.1167 698.762 79.45C700.895 81.7167 703.628 82.85 706.962 82.85ZM746.393 22.85H765.393V97.05H746.393V22.85ZM833.141 70.05C833.141 70.1834 833.041 71.75 832.841 74.75H793.441C794.241 77.55 795.774 79.7167 798.041 81.25C800.374 82.7167 803.274 83.45 806.741 83.45C809.341 83.45 811.574 83.0834 813.441 82.35C815.374 81.6167 817.307 80.4167 819.241 78.75L829.241 89.15C823.974 95.0167 816.274 97.95 806.141 97.95C799.807 97.95 794.241 96.75 789.441 94.35C784.641 91.95 780.907 88.6167 778.241 84.35C775.641 80.0834 774.341 75.25 774.341 69.85C774.341 64.5167 775.607 59.75 778.141 55.55C780.741 51.2834 784.307 47.95 788.841 45.55C793.374 43.15 798.474 41.95 804.141 41.95C809.541 41.95 814.441 43.0834 818.841 45.35C823.241 47.55 826.707 50.7834 829.241 55.05C831.841 59.25 833.141 64.25 833.141 70.05ZM804.241 55.45C801.307 55.45 798.841 56.2834 796.841 57.95C794.907 59.6167 793.674 61.8834 793.141 64.75H815.341C814.807 61.8834 813.541 59.6167 811.541 57.95C809.607 56.2834 807.174 55.45 804.241 55.45ZM879.301 94.85C877.701 95.85 875.734 96.6167 873.401 97.15C871.134 97.6834 868.701 97.95 866.101 97.95C859.034 97.95 853.601 96.2167 849.801 92.75C846.001 89.2834 844.101 84.1167 844.101 77.25V59.05H836.201V44.85H844.101V30.75H863.101V44.85H875.501V59.05H863.101V77.05C863.101 78.9834 863.601 80.5167 864.601 81.65C865.667 82.7167 867.067 83.25 868.801 83.25C871.001 83.25 872.934 82.6834 874.601 81.55L879.301 94.85ZM940.465 70.05C940.465 70.1834 940.365 71.75 940.165 74.75H900.765C901.565 77.55 903.098 79.7167 905.365 81.25C907.698 82.7167 910.598 83.45 914.065 83.45C916.665 83.45 918.898 83.0834 920.765 82.35C922.698 81.6167 924.632 80.4167 926.565 78.75L936.565 89.15C931.298 95.0167 923.598 97.95 913.465 97.95C907.132 97.95 901.565 96.75 896.765 94.35C891.965 91.95 888.232 88.6167 885.565 84.35C882.965 80.0834 881.665 75.25 881.665 69.85C881.665 64.5167 882.932 59.75 885.465 55.55C888.065 51.2834 891.632 47.95 896.165 45.55C900.698 43.15 905.798 41.95 911.465 41.95C916.865 41.95 921.765 43.0834 926.165 45.35C930.565 47.55 934.032 50.7834 936.565 55.05C939.165 59.25 940.465 64.25 940.465 70.05ZM911.565 55.45C908.632 55.45 906.165 56.2834 904.165 57.95C902.232 59.6167 900.998 61.8834 900.465 64.75H922.665C922.132 61.8834 920.865 59.6167 918.865 57.95C916.932 56.2834 914.498 55.45 911.565 55.45Z" fill="black"/>
</svg>
