<svg width="1054" height="122" viewBox="0 0 1054 122" fill="none" xmlns="http://www.w3.org/2000/svg">
<path d="M353.616 55.8174L342.106 83.6684H332.034L320.575 55.8174L330.595 55.8174L337.276 72.1568L344.315 55.8174L353.616 55.8174Z" fill="white"/>
<path d="M415.377 55.8174L403.867 83.6684H393.795L382.336 55.8174L392.356 55.8174L399.037 72.1568L406.076 55.8174L415.377 55.8174Z" fill="white"/>
<path d="M289.659 83.6648L301.17 55.8138L311.241 55.8138L322.7 83.6648L312.68 83.6648L306 67.3254L298.96 83.6648L289.659 83.6648Z" fill="white"/>
<path d="M351.421 83.6648L362.932 55.8138L373.003 55.8138L384.462 83.6648L374.442 83.6648L367.762 67.3254L360.722 83.6648L351.421 83.6648Z" fill="white"/>
<path d="M65.8776 41.4702L42.928 97H22.8471L0 41.4702H19.9784L33.2974 74.048L47.3335 41.4702H65.8776Z" fill="white"/>
<path d="M70.9098 41.4702H90.376V97H70.9098V41.4702ZM80.6429 35.323C77.0912 35.323 74.2225 34.3327 72.0368 32.3519C69.8511 30.3711 68.7583 27.9122 68.7583 24.9752C68.7583 22.0382 69.8511 19.5794 72.0368 17.5986C74.2225 15.6178 77.0912 14.6274 80.6429 14.6274C84.1946 14.6274 87.0633 15.5837 89.249 17.4961C91.4346 19.3403 92.5275 21.7309 92.5275 24.6679C92.5275 27.7415 91.4346 30.3028 89.249 32.3519C87.0633 34.3327 84.1946 35.323 80.6429 35.323Z" fill="white"/>
<path d="M175.359 40.5482C182.189 40.5482 187.619 42.5972 191.649 46.6954C195.747 50.7935 197.796 56.9749 197.796 65.2394V97H178.33V68.4155C178.33 64.5223 177.579 61.6536 176.076 59.8094C174.642 57.9653 172.592 57.0432 169.929 57.0432C166.992 57.0432 164.635 58.0677 162.859 60.1168C161.084 62.1658 160.196 65.2736 160.196 69.44V97H140.729V68.4155C140.729 60.8339 137.929 57.0432 132.328 57.0432C129.323 57.0432 126.932 58.0677 125.157 60.1168C123.381 62.1658 122.493 65.2736 122.493 69.44V97H103.027V41.4702H121.571V47.3101C123.62 45.0561 126.044 43.3827 128.845 42.2899C131.714 41.1287 134.821 40.5482 138.168 40.5482C142.061 40.5482 145.545 41.2653 148.618 42.6997C151.692 44.134 154.185 46.3197 156.097 49.2567C158.283 46.4563 161.049 44.3048 164.396 42.8021C167.743 41.2995 171.397 40.5482 175.359 40.5482Z" fill="white"/>
<path d="M265.659 68.4155C265.659 68.5521 265.557 70.1572 265.352 73.2308H224.985C225.805 76.0995 227.376 78.3193 229.698 79.8903C232.089 81.3929 235.06 82.1443 238.611 82.1443C241.275 82.1443 243.563 81.7686 245.476 81.0173C247.457 80.2659 249.437 79.0365 251.418 77.3289L261.663 87.9841C256.268 93.9947 248.379 97 237.997 97C231.508 97 225.805 95.7706 220.887 93.3117C215.969 90.8528 212.144 87.4377 209.412 83.0663C206.748 78.695 205.417 73.7431 205.417 68.2106C205.417 62.7464 206.714 57.8628 209.31 53.5597C211.974 49.1884 215.628 45.7733 220.272 43.3144C224.917 40.8555 230.142 39.6261 235.948 39.6261C241.48 39.6261 246.5 40.7872 251.008 43.1095C255.516 45.3635 259.068 48.6761 261.663 53.0475C264.327 57.3505 265.659 62.4732 265.659 68.4155ZM236.05 53.4573C233.045 53.4573 230.518 54.3111 228.469 56.0186C226.488 57.7262 225.224 60.0485 224.678 62.9855H247.422C246.876 60.0485 245.578 57.7262 243.529 56.0186C241.548 54.3111 239.055 53.4573 236.05 53.4573Z" fill="white"/>
<path d="M479.577 41.9C484.51 41.9 488.977 43.0667 492.977 45.4C497.044 47.6667 500.244 50.9333 502.577 55.2C504.977 59.4 506.177 64.3 506.177 69.9C506.177 75.5 504.977 80.4333 502.577 84.7C500.244 88.9 497.044 92.1667 492.977 94.5C488.977 96.7667 484.51 97.9 479.577 97.9C473.244 97.9 468.21 96 464.477 92.2V116.4H445.477V42.8H463.577V48.2C467.11 44 472.444 41.9 479.577 41.9ZM475.577 82.8C478.91 82.8 481.644 81.6667 483.777 79.4C485.91 77.0667 486.977 73.9 486.977 69.9C486.977 65.9 485.91 62.7667 483.777 60.5C481.644 58.1667 478.91 57 475.577 57C472.244 57 469.51 58.1667 467.377 60.5C465.244 62.7667 464.177 65.9 464.177 69.9C464.177 73.9 465.244 77.0667 467.377 79.4C469.51 81.6667 472.244 82.8 475.577 82.8ZM515.008 22.8H534.008V97H515.008V22.8ZM569.456 41.9C578.456 41.9 585.323 43.9667 590.056 48.1C594.789 52.1667 597.156 58.4333 597.156 66.9V97H579.456V90C576.723 95.2667 571.389 97.9 563.456 97.9C559.256 97.9 555.623 97.1667 552.556 95.7C549.489 94.2333 547.156 92.2667 545.556 89.8C544.023 87.2667 543.256 84.4 543.256 81.2C543.256 76.0667 545.223 72.1 549.156 69.3C553.089 66.4333 559.156 65 567.356 65H578.156C577.823 59.2667 573.989 56.4 566.656 56.4C564.056 56.4 561.423 56.8333 558.756 57.7C556.089 58.5 553.823 59.6333 551.956 61.1L545.556 48.2C548.556 46.2 552.189 44.6667 556.456 43.6C560.789 42.4667 565.123 41.9 569.456 41.9ZM568.756 85.9C570.956 85.9 572.889 85.3667 574.556 84.3C576.223 83.2333 577.423 81.6667 578.156 79.6V74.9H569.956C564.423 74.9 561.656 76.7333 561.656 80.4C561.656 82.0667 562.289 83.4 563.556 84.4C564.823 85.4 566.556 85.9 568.756 85.9ZM665.272 42.8L641.872 99.2C639.139 105.867 635.806 110.533 631.872 113.2C627.939 115.933 623.139 117.3 617.472 117.3C614.606 117.3 611.706 116.833 608.772 115.9C605.906 115.033 603.572 113.867 601.772 112.4L608.372 99.1C609.439 100.1 610.706 100.867 612.172 101.4C613.706 102 615.239 102.3 616.772 102.3C618.572 102.3 620.039 101.933 621.172 101.2C622.372 100.467 623.372 99.3 624.172 97.7L600.972 42.8H620.472L633.772 75.9L647.172 42.8H665.272ZM727.019 42.8V87.1C727.019 97.1667 724.286 104.7 718.819 109.7C713.352 114.767 705.486 117.3 695.219 117.3C689.886 117.3 684.886 116.7 680.219 115.5C675.552 114.3 671.586 112.533 668.319 110.2L675.219 96.9C677.419 98.7 680.186 100.1 683.519 101.1C686.919 102.167 690.252 102.7 693.519 102.7C698.519 102.7 702.186 101.6 704.519 99.4C706.852 97.2 708.019 93.9333 708.019 89.6V87.8C704.352 92.0667 698.986 94.2 691.919 94.2C687.119 94.2 682.686 93.1333 678.619 91C674.552 88.8 671.319 85.7333 668.919 81.8C666.519 77.8 665.319 73.2 665.319 68C665.319 62.8667 666.519 58.3333 668.919 54.4C671.319 50.4 674.552 47.3333 678.619 45.2C682.686 43 687.119 41.9 691.919 41.9C699.652 41.9 705.319 44.4 708.919 49.4V42.8H727.019ZM696.419 79.1C699.819 79.1 702.619 78.0667 704.819 76C707.086 73.9333 708.219 71.2667 708.219 68C708.219 64.7333 707.119 62.1 704.919 60.1C702.719 58.0333 699.886 57 696.419 57C692.952 57 690.086 58.0333 687.819 60.1C685.619 62.1 684.519 64.7333 684.519 68C684.519 71.2667 685.652 73.9333 687.919 76C690.186 78.0667 693.019 79.1 696.419 79.1ZM757.327 49.3C759.26 46.8333 761.76 45 764.827 43.8C767.96 42.5333 771.527 41.9 775.527 41.9V59C773.794 58.8 772.36 58.7 771.227 58.7C767.16 58.7 763.96 59.8 761.627 62C759.36 64.2 758.227 67.5667 758.227 72.1V97H739.227V42.8H757.327V49.3ZM810.079 97.9C804.279 97.9 799.046 96.7 794.379 94.3C789.713 91.9 786.046 88.5667 783.379 84.3C780.779 80.0333 779.479 75.2 779.479 69.8C779.479 64.4667 780.779 59.6667 783.379 55.4C786.046 51.1333 789.679 47.8333 794.279 45.5C798.946 43.1 804.213 41.9 810.079 41.9C815.946 41.9 821.213 43.1 825.879 45.5C830.546 47.8333 834.179 51.1333 836.779 55.4C839.379 59.6 840.679 64.4 840.679 69.8C840.679 75.2 839.379 80.0333 836.779 84.3C834.179 88.5667 830.546 91.9 825.879 94.3C821.213 96.7 815.946 97.9 810.079 97.9ZM810.079 82.8C813.413 82.8 816.146 81.6667 818.279 79.4C820.413 77.0667 821.479 73.8667 821.479 69.8C821.479 65.8 820.413 62.6667 818.279 60.4C816.146 58.1333 813.413 57 810.079 57C806.746 57 804.013 58.1333 801.879 60.4C799.746 62.6667 798.679 65.8 798.679 69.8C798.679 73.8667 799.746 77.0667 801.879 79.4C804.013 81.6667 806.746 82.8 810.079 82.8ZM906.481 42.8V97H888.381V91.2C886.381 93.4 883.981 95.0667 881.181 96.2C878.381 97.3333 875.414 97.9 872.281 97.9C865.281 97.9 859.681 95.8333 855.481 91.7C851.348 87.5667 849.281 81.3667 849.281 73.1V42.8H868.281V70C868.281 74.0667 869.048 77.0333 870.581 78.9C872.114 80.7667 874.348 81.7 877.281 81.7C880.281 81.7 882.714 80.6667 884.581 78.6C886.514 76.4667 887.481 73.2333 887.481 68.9V42.8H906.481ZM954.019 41.9C960.752 41.9 966.152 43.9 970.219 47.9C974.352 51.9 976.419 57.9333 976.419 66V97H957.419V69.1C957.419 61.7 954.452 58 948.519 58C945.252 58 942.619 59.0667 940.619 61.2C938.686 63.3333 937.719 66.5333 937.719 70.8V97H918.719V42.8H936.819V48.7C938.952 46.5 941.486 44.8333 944.419 43.7C947.352 42.5 950.552 41.9 954.019 41.9ZM1046.73 22.8V97H1028.63V91.6C1025.1 95.8 1019.8 97.9 1012.73 97.9C1007.8 97.9 1003.3 96.7667 999.229 94.5C995.163 92.1667 991.929 88.8667 989.529 84.6C987.196 80.3333 986.029 75.4 986.029 69.8C986.029 64.2 987.196 59.3 989.529 55.1C991.929 50.8333 995.163 47.5667 999.229 45.3C1003.3 43.0333 1007.8 41.9 1012.73 41.9C1019.2 41.9 1024.2 43.7667 1027.73 47.5V22.8H1046.73ZM1016.73 82.8C1020 82.8 1022.7 81.6667 1024.83 79.4C1026.96 77.0667 1028.03 73.8667 1028.03 69.8C1028.03 65.8 1026.96 62.6667 1024.83 60.4C1022.76 58.1333 1020.06 57 1016.73 57C1013.4 57 1010.66 58.1333 1008.53 60.4C1006.4 62.6667 1005.33 65.8 1005.33 69.8C1005.33 73.8667 1006.4 77.0667 1008.53 79.4C1010.66 81.6667 1013.4 82.8 1016.73 82.8Z" fill="white"/>
</svg>
