<svg width="1054" height="123" viewBox="0 0 1054 123" fill="none" xmlns="http://www.w3.org/2000/svg">
<path d="M353.616 56.0573L342.106 83.9083H332.034L320.575 56.0573L330.595 56.0573L337.275 72.3966L344.315 56.0573L353.616 56.0573Z" fill="#231F20"/>
<path d="M415.377 56.0573L403.867 83.9083H393.795L382.336 56.0573L392.356 56.0573L399.036 72.3966L406.076 56.0573L415.377 56.0573Z" fill="#231F20"/>
<path d="M289.659 83.9047L301.17 56.0536L311.241 56.0536L322.7 83.9047L312.68 83.9047L306 67.5653L298.96 83.9047L289.659 83.9047Z" fill="#231F20"/>
<path d="M351.421 83.9047L362.932 56.0536L373.003 56.0536L384.462 83.9047L374.442 83.9047L367.762 67.5653L360.722 83.9047L351.421 83.9047Z" fill="#231F20"/>
<path d="M65.8776 41.7101L42.928 97.2399H22.8471L0 41.7101H19.9784L33.2974 74.2878L47.3335 41.7101H65.8776Z" fill="#231F20"/>
<path d="M70.9098 41.7101H90.376V97.2399H70.9098V41.7101ZM80.6429 35.5629C77.0912 35.5629 74.2225 34.5725 72.0368 32.5918C69.8511 30.611 68.7583 28.1521 68.7583 25.2151C68.7583 22.2781 69.8511 19.8192 72.0368 17.8385C74.2225 15.8577 77.0912 14.8673 80.6429 14.8673C84.1946 14.8673 87.0633 15.8235 89.249 17.736C91.4346 19.5802 92.5275 21.9707 92.5275 24.9077C92.5275 27.9814 91.4346 30.5427 89.249 32.5918C87.0633 34.5725 84.1946 35.5629 80.6429 35.5629Z" fill="#231F20"/>
<path d="M175.359 40.788C182.189 40.788 187.619 42.8371 191.649 46.9352C195.747 51.0334 197.796 57.2147 197.796 65.4793V97.2399H178.33V68.6554C178.33 64.7621 177.579 61.8934 176.076 60.0493C174.642 58.2051 172.592 57.283 169.929 57.283C166.992 57.283 164.635 58.3076 162.859 60.3566C161.084 62.4057 160.196 65.5135 160.196 69.6799V97.2399H140.729V68.6554C140.729 61.0738 137.929 57.283 132.328 57.283C129.323 57.283 126.932 58.3076 125.157 60.3566C123.381 62.4057 122.493 65.5135 122.493 69.6799V97.2399H103.027V41.7101H121.571V47.55C123.62 45.296 126.044 43.6226 128.845 42.5297C131.714 41.3686 134.821 40.788 138.168 40.788C142.061 40.788 145.545 41.5052 148.618 42.9396C151.692 44.3739 154.185 46.5596 156.097 49.4966C158.283 46.6962 161.049 44.5447 164.396 43.042C167.743 41.5394 171.397 40.788 175.359 40.788Z" fill="#231F20"/>
<path d="M265.659 68.6554C265.659 68.792 265.557 70.3971 265.352 73.4707H224.985C225.805 76.3394 227.376 78.5592 229.698 80.1301C232.089 81.6328 235.06 82.3841 238.611 82.3841C241.275 82.3841 243.563 82.0085 245.476 81.2571C247.457 80.5058 249.437 79.2764 251.418 77.5688L261.663 88.224C256.268 94.2346 248.379 97.2399 237.997 97.2399C231.508 97.2399 225.805 96.0104 220.887 93.5516C215.969 91.0927 212.144 87.6776 209.412 83.3062C206.748 78.9349 205.417 73.9829 205.417 68.4505C205.417 62.9863 206.714 58.1027 209.31 53.7996C211.974 49.4283 215.628 46.0132 220.272 43.5543C224.917 41.0954 230.142 39.8659 235.948 39.8659C241.48 39.8659 246.5 41.0271 251.008 43.3494C255.516 45.6033 259.068 48.916 261.663 53.2873C264.327 57.5904 265.659 62.7131 265.659 68.6554ZM236.05 53.6972C233.045 53.6972 230.518 54.5509 228.469 56.2585C226.488 57.9661 225.224 60.2883 224.678 63.2253H247.422C246.876 60.2883 245.578 57.9661 243.529 56.2585C241.548 54.5509 239.055 53.6972 236.05 53.6972Z" fill="#231F20"/>
<path d="M479.577 42.1399C484.51 42.1399 488.977 43.3065 492.977 45.6399C497.044 47.9065 500.244 51.1732 502.577 55.4399C504.977 59.6399 506.177 64.5399 506.177 70.1399C506.177 75.7399 504.977 80.6732 502.577 84.9399C500.244 89.1399 497.044 92.4065 492.977 94.7399C488.977 97.0065 484.51 98.1399 479.577 98.1399C473.244 98.1399 468.21 96.2399 464.477 92.4399V116.64H445.477V43.0399H463.577V48.4399C467.11 44.2399 472.444 42.1399 479.577 42.1399ZM475.577 83.0399C478.91 83.0399 481.644 81.9065 483.777 79.6399C485.91 77.3065 486.977 74.1399 486.977 70.1399C486.977 66.1399 485.91 63.0065 483.777 60.7399C481.644 58.4065 478.91 57.2399 475.577 57.2399C472.244 57.2399 469.51 58.4065 467.377 60.7399C465.244 63.0065 464.177 66.1399 464.177 70.1399C464.177 74.1399 465.244 77.3065 467.377 79.6399C469.51 81.9065 472.244 83.0399 475.577 83.0399ZM515.008 23.0399H534.008V97.2399H515.008V23.0399ZM569.456 42.1399C578.456 42.1399 585.323 44.2065 590.056 48.3399C594.789 52.4065 597.156 58.6732 597.156 67.1399V97.2399H579.456V90.2399C576.723 95.5065 571.389 98.1399 563.456 98.1399C559.256 98.1399 555.623 97.4065 552.556 95.9399C549.489 94.4732 547.156 92.5065 545.556 90.0399C544.023 87.5065 543.256 84.6399 543.256 81.4399C543.256 76.3065 545.223 72.3399 549.156 69.5399C553.089 66.6732 559.156 65.2399 567.356 65.2399H578.156C577.823 59.5065 573.989 56.6399 566.656 56.6399C564.056 56.6399 561.423 57.0732 558.756 57.9399C556.089 58.7399 553.823 59.8732 551.956 61.3399L545.556 48.4399C548.556 46.4399 552.189 44.9065 556.456 43.8399C560.789 42.7065 565.123 42.1399 569.456 42.1399ZM568.756 86.1399C570.956 86.1399 572.889 85.6065 574.556 84.5399C576.223 83.4732 577.423 81.9065 578.156 79.8399V75.1399H569.956C564.423 75.1399 561.656 76.9732 561.656 80.6399C561.656 82.3065 562.289 83.6399 563.556 84.6399C564.823 85.6399 566.556 86.1399 568.756 86.1399ZM665.272 43.0399L641.872 99.4399C639.139 106.107 635.806 110.773 631.872 113.44C627.939 116.173 623.139 117.54 617.472 117.54C614.606 117.54 611.706 117.073 608.772 116.14C605.906 115.273 603.572 114.107 601.772 112.64L608.372 99.3399C609.439 100.34 610.706 101.107 612.172 101.64C613.706 102.24 615.239 102.54 616.772 102.54C618.572 102.54 620.039 102.173 621.172 101.44C622.372 100.707 623.372 99.5399 624.172 97.9399L600.972 43.0399H620.472L633.772 76.1399L647.172 43.0399H665.272ZM727.019 43.0399V87.3399C727.019 97.4065 724.286 104.94 718.819 109.94C713.353 115.007 705.486 117.54 695.219 117.54C689.886 117.54 684.886 116.94 680.219 115.74C675.553 114.54 671.586 112.773 668.319 110.44L675.219 97.1399C677.419 98.9399 680.186 100.34 683.519 101.34C686.919 102.407 690.253 102.94 693.519 102.94C698.519 102.94 702.186 101.84 704.519 99.6399C706.853 97.4399 708.019 94.1732 708.019 89.8399V88.0399C704.353 92.3065 698.986 94.4399 691.919 94.4399C687.119 94.4399 682.686 93.3732 678.619 91.2399C674.553 89.0399 671.319 85.9732 668.919 82.0399C666.519 78.0399 665.319 73.4399 665.319 68.2399C665.319 63.1065 666.519 58.5732 668.919 54.6399C671.319 50.6399 674.553 47.5732 678.619 45.4399C682.686 43.2399 687.119 42.1399 691.919 42.1399C699.653 42.1399 705.319 44.6399 708.919 49.6399V43.0399H727.019ZM696.419 79.3399C699.819 79.3399 702.619 78.3065 704.819 76.2399C707.086 74.1732 708.219 71.5065 708.219 68.2399C708.219 64.9732 707.119 62.3399 704.919 60.3399C702.719 58.2732 699.886 57.2399 696.419 57.2399C692.953 57.2399 690.086 58.2732 687.819 60.3399C685.619 62.3399 684.519 64.9732 684.519 68.2399C684.519 71.5065 685.653 74.1732 687.919 76.2399C690.186 78.3065 693.019 79.3399 696.419 79.3399ZM757.327 49.5399C759.26 47.0732 761.76 45.2399 764.827 44.0399C767.96 42.7732 771.527 42.1399 775.527 42.1399V59.2399C773.794 59.0399 772.36 58.9399 771.227 58.9399C767.16 58.9399 763.96 60.0399 761.627 62.2399C759.36 64.4399 758.227 67.8065 758.227 72.3399V97.2399H739.227V43.0399H757.327V49.5399ZM810.079 98.1399C804.279 98.1399 799.046 96.9399 794.379 94.5399C789.713 92.1399 786.046 88.8065 783.379 84.5399C780.779 80.2732 779.479 75.4399 779.479 70.0399C779.479 64.7065 780.779 59.9065 783.379 55.6399C786.046 51.3732 789.679 48.0732 794.279 45.7399C798.946 43.3399 804.213 42.1399 810.079 42.1399C815.946 42.1399 821.213 43.3399 825.879 45.7399C830.546 48.0732 834.179 51.3732 836.779 55.6399C839.379 59.8399 840.679 64.6399 840.679 70.0399C840.679 75.4399 839.379 80.2732 836.779 84.5399C834.179 88.8065 830.546 92.1399 825.879 94.5399C821.213 96.9399 815.946 98.1399 810.079 98.1399ZM810.079 83.0399C813.413 83.0399 816.146 81.9065 818.279 79.6399C820.413 77.3065 821.479 74.1065 821.479 70.0399C821.479 66.0399 820.413 62.9065 818.279 60.6399C816.146 58.3732 813.413 57.2399 810.079 57.2399C806.746 57.2399 804.013 58.3732 801.879 60.6399C799.746 62.9065 798.679 66.0399 798.679 70.0399C798.679 74.1065 799.746 77.3065 801.879 79.6399C804.013 81.9065 806.746 83.0399 810.079 83.0399ZM906.481 43.0399V97.2399H888.381V91.4399C886.381 93.6399 883.981 95.3065 881.181 96.4399C878.381 97.5732 875.414 98.1399 872.281 98.1399C865.281 98.1399 859.681 96.0732 855.481 91.9399C851.348 87.8065 849.281 81.6065 849.281 73.3399V43.0399H868.281V70.2399C868.281 74.3065 869.048 77.2732 870.581 79.1399C872.114 81.0065 874.348 81.9399 877.281 81.9399C880.281 81.9399 882.714 80.9065 884.581 78.8399C886.514 76.7065 887.481 73.4732 887.481 69.1399V43.0399H906.481ZM954.019 42.1399C960.753 42.1399 966.153 44.1399 970.219 48.1399C974.353 52.1399 976.419 58.1732 976.419 66.2399V97.2399H957.419V69.3399C957.419 61.9399 954.453 58.2399 948.519 58.2399C945.253 58.2399 942.619 59.3065 940.619 61.4399C938.686 63.5732 937.719 66.7732 937.719 71.0399V97.2399H918.719V43.0399H936.819V48.9399C938.953 46.7399 941.486 45.0732 944.419 43.9399C947.353 42.7399 950.553 42.1399 954.019 42.1399ZM1046.73 23.0399V97.2399H1028.63V91.8399C1025.1 96.0399 1019.8 98.1399 1012.73 98.1399C1007.8 98.1399 1003.3 97.0065 999.229 94.7399C995.163 92.4065 991.929 89.1065 989.529 84.8399C987.196 80.5732 986.029 75.6399 986.029 70.0399C986.029 64.4399 987.196 59.5399 989.529 55.3399C991.929 51.0732 995.163 47.8065 999.229 45.5399C1003.3 43.2732 1007.8 42.1399 1012.73 42.1399C1019.2 42.1399 1024.2 44.0065 1027.73 47.7399V23.0399H1046.73ZM1016.73 83.0399C1020 83.0399 1022.7 81.9065 1024.83 79.6399C1026.96 77.3065 1028.03 74.1065 1028.03 70.0399C1028.03 66.0399 1026.96 62.9065 1024.83 60.6399C1022.76 58.3732 1020.06 57.2399 1016.73 57.2399C1013.4 57.2399 1010.66 58.3732 1008.53 60.6399C1006.4 62.9065 1005.33 66.0399 1005.33 70.0399C1005.33 74.1065 1006.4 77.3065 1008.53 79.6399C1010.66 81.9065 1013.4 83.0399 1016.73 83.0399Z" fill="black"/>
</svg>
