<svg width="611" height="123" viewBox="0 0 611 123" fill="none" xmlns="http://www.w3.org/2000/svg">
<path d="M353.616 56.0573L342.106 83.9083H332.034L320.575 56.0573L330.595 56.0573L337.276 72.3966L344.315 56.0573L353.616 56.0573Z" fill="white"/>
<path d="M415.377 56.0573L403.867 83.9083H393.795L382.336 56.0573L392.356 56.0573L399.037 72.3966L406.076 56.0573L415.377 56.0573Z" fill="white"/>
<path d="M289.659 83.9047L301.17 56.0536L311.241 56.0536L322.7 83.9047L312.68 83.9047L306 67.5653L298.96 83.9047L289.659 83.9047Z" fill="white"/>
<path d="M351.421 83.9047L362.932 56.0536L373.003 56.0536L384.462 83.9047L374.442 83.9047L367.762 67.5653L360.722 83.9047L351.421 83.9047Z" fill="white"/>
<path d="M65.8776 41.7101L42.928 97.2399H22.8471L0 41.7101H19.9784L33.2974 74.2878L47.3335 41.7101H65.8776Z" fill="white"/>
<path d="M70.9098 41.7101H90.376V97.2399H70.9098V41.7101ZM80.6429 35.5629C77.0912 35.5629 74.2225 34.5725 72.0368 32.5918C69.8511 30.611 68.7583 28.1521 68.7583 25.2151C68.7583 22.2781 69.8511 19.8192 72.0368 17.8385C74.2225 15.8577 77.0912 14.8673 80.6429 14.8673C84.1946 14.8673 87.0633 15.8235 89.249 17.736C91.4346 19.5802 92.5275 21.9707 92.5275 24.9077C92.5275 27.9814 91.4346 30.5427 89.249 32.5918C87.0633 34.5725 84.1946 35.5629 80.6429 35.5629Z" fill="white"/>
<path d="M175.359 40.788C182.189 40.788 187.619 42.8371 191.649 46.9352C195.747 51.0334 197.796 57.2147 197.796 65.4793V97.2399H178.33V68.6554C178.33 64.7621 177.579 61.8934 176.076 60.0493C174.642 58.2051 172.592 57.283 169.929 57.283C166.992 57.283 164.635 58.3076 162.859 60.3566C161.084 62.4057 160.196 65.5135 160.196 69.6799V97.2399H140.729V68.6554C140.729 61.0738 137.929 57.283 132.328 57.283C129.323 57.283 126.932 58.3076 125.157 60.3566C123.381 62.4057 122.493 65.5135 122.493 69.6799V97.2399H103.027V41.7101H121.571V47.55C123.62 45.296 126.044 43.6226 128.845 42.5297C131.714 41.3686 134.821 40.788 138.168 40.788C142.061 40.788 145.545 41.5052 148.618 42.9396C151.692 44.3739 154.185 46.5596 156.097 49.4966C158.283 46.6962 161.049 44.5447 164.396 43.042C167.743 41.5394 171.397 40.788 175.359 40.788Z" fill="white"/>
<path d="M265.659 68.6554C265.659 68.792 265.557 70.3971 265.352 73.4707H224.985C225.805 76.3394 227.376 78.5592 229.698 80.1301C232.089 81.6328 235.06 82.3841 238.611 82.3841C241.275 82.3841 243.563 82.0085 245.476 81.2571C247.457 80.5058 249.437 79.2764 251.418 77.5688L261.663 88.224C256.268 94.2346 248.379 97.2399 237.997 97.2399C231.508 97.2399 225.805 96.0104 220.887 93.5516C215.969 91.0927 212.144 87.6776 209.412 83.3062C206.748 78.9349 205.417 73.9829 205.417 68.4505C205.417 62.9863 206.714 58.1027 209.31 53.7996C211.974 49.4283 215.628 46.0132 220.272 43.5543C224.917 41.0954 230.142 39.8659 235.948 39.8659C241.48 39.8659 246.5 41.0271 251.008 43.3494C255.516 45.6033 259.068 48.916 261.663 53.2873C264.327 57.5904 265.659 62.7131 265.659 68.6554ZM236.05 53.6972C233.045 53.6972 230.518 54.5509 228.469 56.2585C226.488 57.9661 225.224 60.2883 224.678 63.2253H247.422C246.876 60.2883 245.578 57.9661 243.529 56.2585C241.548 54.5509 239.055 53.6972 236.05 53.6972Z" fill="white"/>
<path d="M445.477 23.0399H464.477V97.2399H445.477V23.0399ZM476.825 43.0399H495.825V97.2399H476.825V43.0399ZM486.325 37.0399C482.858 37.0399 480.058 36.0732 477.925 34.1399C475.791 32.2065 474.725 29.8065 474.725 26.9399C474.725 24.0732 475.791 21.6732 477.925 19.7399C480.058 17.8065 482.858 16.8399 486.325 16.8399C489.791 16.8399 492.591 17.7732 494.725 19.6399C496.858 21.4399 497.925 23.7732 497.925 26.6399C497.925 29.6399 496.858 32.1399 494.725 34.1399C492.591 36.0732 489.791 37.0399 486.325 37.0399ZM545.572 95.0399C543.972 96.0399 542.006 96.8065 539.672 97.3399C537.406 97.8732 534.972 98.1399 532.372 98.1399C525.306 98.1399 519.872 96.4065 516.072 92.9399C512.272 89.4732 510.372 84.3065 510.372 77.4399V59.2399H502.472V45.0399H510.372V30.9399H529.372V45.0399H541.772V59.2399H529.372V77.2399C529.372 79.1732 529.872 80.7065 530.872 81.8399C531.939 82.9065 533.339 83.4399 535.072 83.4399C537.272 83.4399 539.206 82.8732 540.872 81.7399L545.572 95.0399ZM606.736 70.2399C606.736 70.3732 606.636 71.9399 606.436 74.9399H567.036C567.836 77.7399 569.37 79.9065 571.636 81.4399C573.97 82.9065 576.87 83.6399 580.336 83.6399C582.936 83.6399 585.17 83.2732 587.036 82.5399C588.97 81.8065 590.903 80.6065 592.836 78.9399L602.836 89.3399C597.57 95.2065 589.87 98.1399 579.736 98.1399C573.403 98.1399 567.836 96.9399 563.036 94.5399C558.236 92.1399 554.503 88.8065 551.836 84.5399C549.236 80.2732 547.936 75.4399 547.936 70.0399C547.936 64.7065 549.203 59.9399 551.736 55.7399C554.336 51.4732 557.903 48.1399 562.436 45.7399C566.97 43.3399 572.07 42.1399 577.736 42.1399C583.136 42.1399 588.036 43.2732 592.436 45.5399C596.836 47.7399 600.303 50.9732 602.836 55.2399C605.436 59.4399 606.736 64.4399 606.736 70.2399ZM577.836 55.6399C574.903 55.6399 572.436 56.4732 570.436 58.1399C568.503 59.8065 567.27 62.0732 566.736 64.9399H588.936C588.403 62.0732 587.136 59.8065 585.136 58.1399C583.203 56.4732 580.77 55.6399 577.836 55.6399Z" fill="white"/>
</svg>
