<svg width="672" height="122" viewBox="0 0 672 122" fill="none" xmlns="http://www.w3.org/2000/svg">
<path d="M353.616 55.8174L342.106 83.6685H332.034L320.575 55.8174L330.595 55.8174L337.276 72.1568L344.315 55.8174L353.616 55.8174Z" fill="white"/>
<path d="M415.377 55.8174L403.867 83.6685H393.795L382.336 55.8174L392.356 55.8174L399.037 72.1568L406.076 55.8174L415.377 55.8174Z" fill="white"/>
<path d="M289.659 83.6647L301.17 55.8137L311.241 55.8137L322.7 83.6647L312.68 83.6647L306 67.3253L298.96 83.6647L289.659 83.6647Z" fill="white"/>
<path d="M351.421 83.6647L362.932 55.8137L373.003 55.8137L384.462 83.6647L374.442 83.6647L367.762 67.3253L360.722 83.6647L351.421 83.6647Z" fill="white"/>
<path d="M65.8776 41.4702L42.928 97H22.8471L0 41.4702H19.9784L33.2974 74.048L47.3335 41.4702H65.8776Z" fill="white"/>
<path d="M70.9098 41.4702H90.376V97H70.9098V41.4702ZM80.6429 35.323C77.0912 35.323 74.2225 34.3327 72.0368 32.3519C69.8511 30.3711 68.7583 27.9122 68.7583 24.9752C68.7583 22.0382 69.8511 19.5794 72.0368 17.5986C74.2225 15.6178 77.0912 14.6274 80.6429 14.6274C84.1946 14.6274 87.0633 15.5837 89.249 17.4961C91.4346 19.3403 92.5275 21.7309 92.5275 24.6679C92.5275 27.7415 91.4346 30.3028 89.249 32.3519C87.0633 34.3327 84.1946 35.323 80.6429 35.323Z" fill="white"/>
<path d="M175.359 40.5482C182.189 40.5482 187.619 42.5972 191.649 46.6954C195.747 50.7935 197.796 56.9749 197.796 65.2394V97H178.33V68.4155C178.33 64.5223 177.579 61.6536 176.076 59.8094C174.642 57.9653 172.592 57.0432 169.929 57.0432C166.992 57.0432 164.635 58.0677 162.859 60.1168C161.084 62.1658 160.196 65.2736 160.196 69.44V97H140.729V68.4155C140.729 60.8339 137.929 57.0432 132.328 57.0432C129.323 57.0432 126.932 58.0677 125.157 60.1168C123.381 62.1658 122.493 65.2736 122.493 69.44V97H103.027V41.4702H121.571V47.3101C123.62 45.0561 126.044 43.3827 128.845 42.2899C131.714 41.1287 134.821 40.5482 138.168 40.5482C142.061 40.5482 145.545 41.2653 148.618 42.6997C151.692 44.134 154.185 46.3197 156.097 49.2567C158.283 46.4563 161.049 44.3048 164.396 42.8021C167.743 41.2995 171.397 40.5482 175.359 40.5482Z" fill="white"/>
<path d="M265.659 68.4155C265.659 68.5521 265.557 70.1572 265.352 73.2308H224.985C225.805 76.0995 227.376 78.3193 229.698 79.8903C232.089 81.3929 235.06 82.1443 238.611 82.1443C241.275 82.1443 243.563 81.7686 245.476 81.0173C247.457 80.2659 249.437 79.0365 251.418 77.3289L261.663 87.9841C256.268 93.9947 248.379 97 237.997 97C231.508 97 225.805 95.7706 220.887 93.3117C215.969 90.8528 212.144 87.4377 209.412 83.0663C206.748 78.695 205.417 73.7431 205.417 68.2106C205.417 62.7464 206.714 57.8628 209.31 53.5597C211.974 49.1884 215.628 45.7733 220.272 43.3144C224.917 40.8555 230.142 39.6261 235.948 39.6261C241.48 39.6261 246.5 40.7872 251.008 43.1095C255.516 45.3635 259.068 48.6761 261.663 53.0475C264.327 57.3505 265.659 62.4732 265.659 68.4155ZM236.05 53.4573C233.045 53.4573 230.518 54.3111 228.469 56.0186C226.488 57.7262 225.224 60.0485 224.678 62.9855H247.422C246.876 60.0485 245.578 57.7262 243.529 56.0186C241.548 54.3111 239.055 53.4573 236.05 53.4573Z" fill="white"/>
<path d="M473.177 97.9C467.177 97.9 461.81 96.7 457.077 94.3C452.344 91.9 448.644 88.5667 445.977 84.3C443.377 80.0333 442.077 75.2 442.077 69.8C442.077 64.4 443.377 59.6 445.977 55.4C448.644 51.1333 452.344 47.8333 457.077 45.5C461.81 43.1 467.177 41.9 473.177 41.9C479.31 41.9 484.61 43.2333 489.077 45.9C493.544 48.5 496.71 52.1333 498.577 56.8L483.877 64.3C481.41 59.4333 477.81 57 473.077 57C469.677 57 466.844 58.1333 464.577 60.4C462.377 62.6667 461.277 65.8 461.277 69.8C461.277 73.8667 462.377 77.0667 464.577 79.4C466.844 81.6667 469.677 82.8 473.077 82.8C477.81 82.8 481.41 80.3667 483.877 75.5L498.577 83C496.71 87.6667 493.544 91.3333 489.077 94C484.61 96.6 479.31 97.9 473.177 97.9ZM532.345 97.9C526.545 97.9 521.312 96.7 516.645 94.3C511.978 91.9 508.312 88.5667 505.645 84.3C503.045 80.0333 501.745 75.2 501.745 69.8C501.745 64.4667 503.045 59.6667 505.645 55.4C508.312 51.1333 511.945 47.8333 516.545 45.5C521.212 43.1 526.478 41.9 532.345 41.9C538.212 41.9 543.478 43.1 548.145 45.5C552.812 47.8333 556.445 51.1333 559.045 55.4C561.645 59.6 562.945 64.4 562.945 69.8C562.945 75.2 561.645 80.0333 559.045 84.3C556.445 88.5667 552.812 91.9 548.145 94.3C543.478 96.7 538.212 97.9 532.345 97.9ZM532.345 82.8C535.678 82.8 538.412 81.6667 540.545 79.4C542.678 77.0667 543.745 73.8667 543.745 69.8C543.745 65.8 542.678 62.6667 540.545 60.4C538.412 58.1333 535.678 57 532.345 57C529.012 57 526.278 58.1333 524.145 60.4C522.012 62.6667 520.945 65.8 520.945 69.8C520.945 73.8667 522.012 77.0667 524.145 79.4C526.278 81.6667 529.012 82.8 532.345 82.8ZM589.846 49.3C591.78 46.8333 594.28 45 597.346 43.8C600.48 42.5333 604.046 41.9 608.046 41.9V59C606.313 58.8 604.88 58.7 603.746 58.7C599.68 58.7 596.48 59.8 594.146 62C591.88 64.2 590.746 67.5667 590.746 72.1V97H571.746V42.8H589.846V49.3ZM670.799 70C670.799 70.1333 670.699 71.7 670.499 74.7H631.099C631.899 77.5 633.432 79.6667 635.699 81.2C638.032 82.6667 640.932 83.4 644.399 83.4C646.999 83.4 649.232 83.0333 651.099 82.3C653.032 81.5667 654.965 80.3667 656.899 78.7L666.899 89.1C661.632 94.9667 653.932 97.9 643.799 97.9C637.465 97.9 631.899 96.7 627.099 94.3C622.299 91.9 618.565 88.5667 615.899 84.3C613.299 80.0333 611.999 75.2 611.999 69.8C611.999 64.4667 613.265 59.7 615.799 55.5C618.399 51.2333 621.965 47.9 626.499 45.5C631.032 43.1 636.132 41.9 641.799 41.9C647.199 41.9 652.099 43.0333 656.499 45.3C660.899 47.5 664.365 50.7333 666.899 55C669.499 59.2 670.799 64.2 670.799 70ZM641.899 55.4C638.965 55.4 636.499 56.2333 634.499 57.9C632.565 59.5667 631.332 61.8333 630.799 64.7H652.999C652.465 61.8333 651.199 59.5667 649.199 57.9C647.265 56.2333 644.832 55.4 641.899 55.4Z" fill="white"/>
</svg>
