<svg width="672" height="123" viewBox="0 0 672 123" fill="none" xmlns="http://www.w3.org/2000/svg">
<path d="M353.616 56.6273L342.106 84.4783H332.034L320.575 56.6273L330.595 56.6273L337.275 72.9667L344.315 56.6273L353.616 56.6273Z" fill="#231F20"/>
<path d="M415.377 56.6273L403.867 84.4783H393.795L382.336 56.6273L392.356 56.6273L399.036 72.9667L406.076 56.6273L415.377 56.6273Z" fill="#231F20"/>
<path d="M289.659 84.4746L301.17 56.6236L311.241 56.6236L322.7 84.4746L312.68 84.4746L306 68.1352L298.96 84.4746L289.659 84.4746Z" fill="#231F20"/>
<path d="M351.421 84.4746L362.932 56.6236L373.003 56.6236L384.462 84.4746L374.442 84.4746L367.762 68.1352L360.722 84.4746L351.421 84.4746Z" fill="#231F20"/>
<path d="M65.8776 42.2801L42.928 97.8099H22.8471L0 42.2801H19.9784L33.2974 74.8578L47.3335 42.2801H65.8776Z" fill="#231F20"/>
<path d="M70.9098 42.2801H90.376V97.8099H70.9098V42.2801ZM80.6429 36.1329C77.0912 36.1329 74.2225 35.1425 72.0368 33.1618C69.8511 31.181 68.7583 28.7221 68.7583 25.7851C68.7583 22.8481 69.8511 20.3892 72.0368 18.4085C74.2225 16.4277 77.0912 15.4373 80.6429 15.4373C84.1946 15.4373 87.0633 16.3935 89.249 18.306C91.4346 20.1502 92.5275 22.5408 92.5275 25.4778C92.5275 28.5514 91.4346 31.1127 89.249 33.1618C87.0633 35.1425 84.1946 36.1329 80.6429 36.1329Z" fill="#231F20"/>
<path d="M175.359 41.358C182.189 41.358 187.619 43.4071 191.649 47.5052C195.747 51.6034 197.796 57.7847 197.796 66.0493V97.8099H178.33V69.2254C178.33 65.3321 177.579 62.4635 176.076 60.6193C174.642 58.7751 172.592 57.853 169.929 57.853C166.992 57.853 164.635 58.8776 162.859 60.9267C161.084 62.9757 160.196 66.0835 160.196 70.2499V97.8099H140.729V69.2254C140.729 61.6438 137.929 57.853 132.328 57.853C129.323 57.853 126.932 58.8776 125.157 60.9267C123.381 62.9757 122.493 66.0835 122.493 70.2499V97.8099H103.027V42.2801H121.571V48.12C123.62 45.866 126.044 44.1926 128.845 43.0997C131.714 41.9386 134.821 41.358 138.168 41.358C142.061 41.358 145.545 42.0752 148.618 43.5096C151.692 44.9439 154.185 47.1296 156.097 50.0666C158.283 47.2662 161.049 45.1147 164.396 43.612C167.743 42.1094 171.397 41.358 175.359 41.358Z" fill="#231F20"/>
<path d="M265.659 69.2254C265.659 69.362 265.557 70.9671 265.352 74.0407H224.985C225.805 76.9094 227.376 79.1292 229.698 80.7002C232.089 82.2028 235.06 82.9541 238.611 82.9541C241.275 82.9541 243.563 82.5785 245.476 81.8271C247.457 81.0758 249.437 79.8464 251.418 78.1388L261.663 88.794C256.268 94.8046 248.379 97.8099 237.997 97.8099C231.508 97.8099 225.805 96.5804 220.887 94.1216C215.969 91.6627 212.144 88.2476 209.412 83.8762C206.748 79.5049 205.417 74.5529 205.417 69.0205C205.417 63.5563 206.714 58.6727 209.31 54.3696C211.974 49.9983 215.628 46.5832 220.272 44.1243C224.917 41.6654 230.142 40.436 235.948 40.436C241.48 40.436 246.5 41.5971 251.008 43.9194C255.516 46.1733 259.068 49.486 261.663 53.8574C264.327 58.1604 265.659 63.2831 265.659 69.2254ZM236.05 54.2672C233.045 54.2672 230.518 55.1209 228.469 56.8285C226.488 58.5361 225.224 60.8583 224.678 63.7953H247.422C246.876 60.8583 245.578 58.5361 243.529 56.8285C241.548 55.1209 239.055 54.2672 236.05 54.2672Z" fill="#231F20"/>
<path d="M502.477 43.6099V97.8099H484.377V92.0099C482.377 94.2099 479.977 95.8765 477.177 97.0099C474.377 98.1432 471.41 98.7099 468.277 98.7099C461.277 98.7099 455.677 96.6432 451.477 92.5099C447.344 88.3765 445.277 82.1765 445.277 73.9099V43.6099H464.277V70.8099C464.277 74.8765 465.044 77.8432 466.577 79.7099C468.11 81.5765 470.344 82.5099 473.277 82.5099C476.277 82.5099 478.71 81.4765 480.577 79.4099C482.51 77.2765 483.477 74.0432 483.477 69.7099V43.6099H502.477ZM552.115 95.6099C550.515 96.6099 548.549 97.3765 546.215 97.9099C543.949 98.4432 541.515 98.7099 538.915 98.7099C531.849 98.7099 526.415 96.9765 522.615 93.5099C518.815 90.0432 516.915 84.8765 516.915 78.0099V59.8099H509.015V45.6099H516.915V31.5099H535.915V45.6099H548.315V59.8099H535.915V77.8099C535.915 79.7432 536.415 81.2765 537.415 82.4099C538.482 83.4765 539.882 84.0099 541.615 84.0099C543.815 84.0099 545.749 83.4432 547.415 82.3099L552.115 95.6099ZM559.442 43.6099H578.442V97.8099H559.442V43.6099ZM568.942 37.6099C565.475 37.6099 562.675 36.6432 560.542 34.7099C558.409 32.7765 557.342 30.3765 557.342 27.5099C557.342 24.6432 558.409 22.2432 560.542 20.3099C562.675 18.3765 565.475 17.4099 568.942 17.4099C572.409 17.4099 575.209 18.3432 577.342 20.2099C579.475 22.0099 580.542 24.3432 580.542 27.2099C580.542 30.2099 579.475 32.7099 577.342 34.7099C575.209 36.6432 572.409 37.6099 568.942 37.6099ZM590.79 23.6099H609.79V97.8099H590.79V23.6099ZM641.837 98.7099C637.304 98.7099 632.837 98.2099 628.437 97.2099C624.037 96.1432 620.504 94.7765 617.837 93.1099L623.537 80.1099C626.004 81.6432 628.937 82.8765 632.337 83.8099C635.737 84.6765 639.104 85.1099 642.437 85.1099C645.504 85.1099 647.671 84.8099 648.937 84.2099C650.271 83.5432 650.937 82.6099 650.937 81.4099C650.937 80.2099 650.137 79.3765 648.537 78.9099C647.004 78.3765 644.537 77.8765 641.137 77.4099C636.804 76.8765 633.104 76.1765 630.037 75.3099C627.037 74.4432 624.437 72.8432 622.237 70.5099C620.037 68.1765 618.937 64.9099 618.937 60.7099C618.937 57.2432 619.971 54.1765 622.037 51.5099C624.104 48.7765 627.104 46.6432 631.037 45.1099C635.037 43.5099 639.804 42.7099 645.337 42.7099C649.271 42.7099 653.171 43.1099 657.037 43.9099C660.904 44.7099 664.137 45.8432 666.737 47.3099L661.037 60.2099C656.237 57.5432 651.037 56.2099 645.437 56.2099C642.437 56.2099 640.237 56.5765 638.837 57.3099C637.437 57.9765 636.737 58.8765 636.737 60.0099C636.737 61.2765 637.504 62.1765 639.037 62.7099C640.571 63.1765 643.104 63.6765 646.637 64.2099C651.104 64.8765 654.804 65.6432 657.737 66.5099C660.671 67.3765 663.204 68.9765 665.337 71.3099C667.537 73.5765 668.637 76.7765 668.637 80.9099C668.637 84.3099 667.604 87.3765 665.537 90.1099C663.471 92.7765 660.404 94.8765 656.337 96.4099C652.337 97.9432 647.504 98.7099 641.837 98.7099Z" fill="black"/>
</svg>
